STARTFONT 2.1
COMMENT Sources:
COMMENT -Misc-Fixed-Bold-R-Normal--13-120-75-75-C-70-ISO10646-1 "$ucs-fonts: 7x13B.bdf,v 1.27 2002-11-08 20:42:37+00 mgk25 Rel $"
COMMENT -windows-dina-bold-r-normal--13-80-96-96-c-70-microsoft-cp1252
COMMENT -dylex-terminal-Medium-R-Normal--13-120-75-75-C-70-ISO10646-1
FONT -dylex-terminal-Bold-R-Normal--26-240-75-75-C-140-ISO10646-1
SIZE 26 75 75
FONTBOUNDINGBOX 14 26 0 -6
STARTPROPERTIES 23
FONTNAME_REGISTRY ""
FOUNDRY "dylex"
FAMILY_NAME "terminal"
WEIGHT_NAME "Bold"
SLANT "R"
SETWIDTH_NAME "Normal"
ADD_STYLE_NAME ""
PIXEL_SIZE 26
POINT_SIZE 240
RESOLUTION_X 75
RESOLUTION_Y 75
SPACING "C"
AVERAGE_WIDTH 140
CHARSET_REGISTRY "ISO10646"
CHARSET_ENCODING "1"
DESTINATION 1
DEFAULT_CHAR 0
FONT_DESCENT 6
FONT_ASCENT 20
COPYRIGHT "Public domain font.  Share and enjoy."
CAP_HEIGHT 16
X_HEIGHT 12
_GBDFED_INFO "Edited with gbdfed 1.6."
ENDPROPERTIES
CHARS 1067
STARTCHAR char0
ENCODING 0
SWIDTH 994 0
DWIDTH 14 0
BBX 14 26 0 -6
BITMAP
0000
0000
3CF0
3CF0
3CF0
3CF0
0000
0000
3CF0
3CF0
3CF0
3CF0
0000
0000
3CF0
3CF0
3CF0
3CF0
0000
0000
3CF0
3CF0
3CF0
3CF0
0000
0000
ENDCHAR
STARTCHAR char1
ENCODING 1
SWIDTH 994 0
DWIDTH 14 0
BBX 14 26 0 -6
BITMAP
0000
0000
0000
0000
0000
0000
0300
0300
0FC0
0FC0
3FF0
3FF0
FFFC
FFFC
3FF0
3FF0
0FC0
0FC0
0300
0300
0000
0000
0000
0000
0000
0000
ENDCHAR
STARTCHAR dkshade
ENCODING 2
SWIDTH 994 0
DWIDTH 14 0
BBX 14 26 0 -6
BITMAP
FFFC
FFFC
3330
3330
FFFC
FFFC
CCCC
CCCC
FFFC
FFFC
3330
3330
FFFC
FFFC
CCCC
CCCC
FFFC
FFFC
3330
3330
FFFC
FFFC
CCCC
CCCC
FFFC
FFFC
ENDCHAR
STARTCHAR char3
ENCODING 3
SWIDTH 994 0
DWIDTH 14 0
BBX 14 26 0 -6
BITMAP
0000
0000
3300
3300
3300
3300
3F00
3F00
3300
3300
33FC
33FC
0030
0030
0030
0030
0030
0030
0030
0030
0000
0000
0000
0000
0000
0000
ENDCHAR
STARTCHAR char4
ENCODING 4
SWIDTH 994 0
DWIDTH 14 0
BBX 14 26 0 -6
BITMAP
0000
0000
3F00
3F00
3000
3000
3C00
3C00
3000
3000
30FC
30FC
00C0
00C0
00F0
00F0
00C0
00C0
00C0
00C0
0000
0000
0000
0000
0000
0000
ENDCHAR
STARTCHAR char5
ENCODING 5
SWIDTH 994 0
DWIDTH 14 0
BBX 14 26 0 -6
BITMAP
0000
0000
0F00
0F00
3000
3000
3000
3000
3000
3000
0FFC
0FFC
00CC
00CC
00F0
00F0
00CC
00CC
00CC
00CC
0000
0000
0000
0000
0000
0000
ENDCHAR
STARTCHAR char6
ENCODING 6
SWIDTH 994 0
DWIDTH 14 0
BBX 14 26 0 -6
BITMAP
0000
0000
3000
3000
3000
3000
3000
3000
3000
3000
3FFC
3FFC
00C0
00C0
00F0
00F0
00C0
00C0
00C0
00C0
0000
0000
0000
0000
0000
0000
ENDCHAR
STARTCHAR char7
ENCODING 7
SWIDTH 994 0
DWIDTH 14 0
BBX 14 26 0 -6
BITMAP
0000
0000
0000
0000
0FC0
0FC0
3CF0
3CF0
3CF0
3CF0
0FC0
0FC0
0000
0000
0000
0000
0000
0000
0000
0000
0000
0000
0000
0000
0000
0000
ENDCHAR
STARTCHAR char8
ENCODING 8
SWIDTH 994 0
DWIDTH 14 0
BBX 14 26 0 -6
BITMAP
0000
0000
0000
0000
0000
0000
0F00
0F00
0F00
0F00
FFF0
FFF0
0F00
0F00
0F00
0F00
0000
0000
FFF0
FFF0
0000
0000
0000
0000
0000
0000
ENDCHAR
STARTCHAR char9
ENCODING 9
SWIDTH 994 0
DWIDTH 14 0
BBX 14 26 0 -6
BITMAP
0000
0000
3C00
3C00
3300
3300
3300
3300
3300
3300
33C0
33C0
00C0
00C0
00C0
00C0
00C0
00C0
00FC
00FC
0000
0000
0000
0000
0000
0000
ENDCHAR
STARTCHAR char10
ENCODING 10
SWIDTH 994 0
DWIDTH 14 0
BBX 14 26 0 -6
BITMAP
0000
0000
3300
3300
3300
3300
3300
3300
0C00
0C00
0CFC
0CFC
0030
0030
0030
0030
0030
0030
0030
0030
0000
0000
0000
0000
0000
0000
ENDCHAR
STARTCHAR char14
ENCODING 11
SWIDTH 994 0
DWIDTH 14 0
BBX 14 26 0 -6
BITMAP
0F00
0F00
0F00
0F00
0F00
0F00
0F00
0F00
0F00
0F00
FF00
FF00
FF00
FF00
0000
0000
0000
0000
0000
0000
0000
0000
0000
0000
0000
0000
ENDCHAR
STARTCHAR char17
ENCODING 12
SWIDTH 994 0
DWIDTH 14 0
BBX 14 26 0 -6
BITMAP
0000
0000
0000
0000
0000
0000
0000
0000
0000
0000
FF00
FF00
FF00
FF00
0F00
0F00
0F00
0F00
0F00
0F00
0F00
0F00
0F00
0F00
0F00
0F00
ENDCHAR
STARTCHAR char16
ENCODING 13
SWIDTH 994 0
DWIDTH 14 0
BBX 14 26 0 -6
BITMAP
0000
0000
0000
0000
0000
0000
0000
0000
0000
0000
0FFC
0FFC
0FFC
0FFC
0F00
0F00
0F00
0F00
0F00
0F00
0F00
0F00
0F00
0F00
0F00
0F00
ENDCHAR
STARTCHAR char15
ENCODING 14
SWIDTH 994 0
DWIDTH 14 0
BBX 14 26 0 -6
BITMAP
0F00
0F00
0F00
0F00
0F00
0F00
0F00
0F00
0F00
0F00
0FFC
0FFC
0FFC
0FFC
0000
0000
0000
0000
0000
0000
0000
0000
0000
0000
0000
0000
ENDCHAR
STARTCHAR char24
ENCODING 15
SWIDTH 994 0
DWIDTH 14 0
BBX 14 26 0 -6
BITMAP
0F00
0F00
0F00
0F00
0F00
0F00
0F00
0F00
0F00
0F00
FFFC
FFFC
FFFC
FFFC
0F00
0F00
0F00
0F00
0F00
0F00
0F00
0F00
0F00
0F00
0F00
0F00
ENDCHAR
STARTCHAR char16
ENCODING 16
SWIDTH 994 0
DWIDTH 14 0
BBX 14 26 0 -6
BITMAP
FFFC
FFFC
FFFC
FFFC
0000
0000
0000
0000
0000
0000
0000
0000
0000
0000
0000
0000
0000
0000
0000
0000
0000
0000
0000
0000
0000
0000
ENDCHAR
STARTCHAR char17
ENCODING 17
SWIDTH 994 0
DWIDTH 14 0
BBX 14 26 0 -6
BITMAP
0000
0000
0000
0000
0000
0000
FFFC
FFFC
FFFC
FFFC
0000
0000
0000
0000
0000
0000
0000
0000
0000
0000
0000
0000
0000
0000
0000
0000
ENDCHAR
STARTCHAR char18
ENCODING 18
SWIDTH 994 0
DWIDTH 14 0
BBX 14 26 0 -6
BITMAP
0000
0000
0000
0000
0000
0000
0000
0000
0000
0000
FFFC
FFFC
FFFC
FFFC
0000
0000
0000
0000
0000
0000
0000
0000
0000
0000
0000
0000
ENDCHAR
STARTCHAR char19
ENCODING 19
SWIDTH 994 0
DWIDTH 14 0
BBX 14 26 0 -6
BITMAP
0000
0000
0000
0000
0000
0000
0000
0000
0000
0000
0000
0000
0000
0000
0000
0000
FFFC
FFFC
FFFC
FFFC
0000
0000
0000
0000
0000
0000
ENDCHAR
STARTCHAR char20
ENCODING 20
SWIDTH 994 0
DWIDTH 14 0
BBX 14 26 0 -6
BITMAP
0000
0000
0000
0000
0000
0000
0000
0000
0000
0000
0000
0000
0000
0000
0000
0000
0000
0000
0000
0000
0000
0000
FFFC
FFFC
FFFC
FFFC
ENDCHAR
STARTCHAR char22
ENCODING 21
SWIDTH 994 0
DWIDTH 14 0
BBX 14 26 0 -6
BITMAP
0F00
0F00
0F00
0F00
0F00
0F00
0F00
0F00
0F00
0F00
0FFC
0FFC
0FFC
0FFC
0F00
0F00
0F00
0F00
0F00
0F00
0F00
0F00
0F00
0F00
0F00
0F00
ENDCHAR
STARTCHAR char20
ENCODING 22
SWIDTH 994 0
DWIDTH 14 0
BBX 14 26 0 -6
BITMAP
0F00
0F00
0F00
0F00
0F00
0F00
0F00
0F00
0F00
0F00
FF00
FF00
FF00
FF00
0F00
0F00
0F00
0F00
0F00
0F00
0F00
0F00
0F00
0F00
0F00
0F00
ENDCHAR
STARTCHAR char21
ENCODING 23
SWIDTH 994 0
DWIDTH 14 0
BBX 14 26 0 -6
BITMAP
0F00
0F00
0F00
0F00
0F00
0F00
0F00
0F00
0F00
0F00
FFFC
FFFC
FFFC
FFFC
0000
0000
0000
0000
0000
0000
0000
0000
0000
0000
0000
0000
ENDCHAR
STARTCHAR char23
ENCODING 24
SWIDTH 994 0
DWIDTH 14 0
BBX 14 26 0 -6
BITMAP
0000
0000
0000
0000
0000
0000
0000
0000
0000
0000
FFFC
FFFC
FFFC
FFFC
0F00
0F00
0F00
0F00
0F00
0F00
0F00
0F00
0F00
0F00
0F00
0F00
ENDCHAR
STARTCHAR char19
ENCODING 25
SWIDTH 994 0
DWIDTH 14 0
BBX 14 26 0 -6
BITMAP
0F00
0F00
0F00
0F00
0F00
0F00
0F00
0F00
0F00
0F00
0F00
0F00
0F00
0F00
0F00
0F00
0F00
0F00
0F00
0F00
0F00
0F00
0F00
0F00
0F00
0F00
ENDCHAR
STARTCHAR char27
ENCODING 26
SWIDTH 994 0
DWIDTH 14 0
BBX 14 26 0 -6
BITMAP
0000
0000
0000
0000
0000
0000
03F0
03F0
3F00
3F00
F000
F000
3F00
3F00
03F0
03F0
0000
0000
FFF0
FFF0
0000
0000
0000
0000
0000
0000
ENDCHAR
STARTCHAR char29
ENCODING 27
SWIDTH 994 0
DWIDTH 14 0
BBX 14 26 0 -6
BITMAP
0000
0000
0000
0000
0000
0000
FC00
FC00
0FC0
0FC0
00F0
00F0
0FC0
0FC0
FC00
FC00
0000
0000
FFF0
FFF0
0000
0000
0000
0000
0000
0000
ENDCHAR
STARTCHAR char28
ENCODING 28
SWIDTH 994 0
DWIDTH 14 0
BBX 14 26 0 -6
BITMAP
0000
0000
0000
0000
0000
0000
0000
0000
FFF0
FFF0
3CC0
3CC0
3CC0
3CC0
3CC0
3CC0
3CC0
3CC0
3CC0
3CC0
0000
0000
0000
0000
0000
0000
ENDCHAR
STARTCHAR char26
ENCODING 29
SWIDTH 994 0
DWIDTH 14 0
BBX 14 26 0 -6
BITMAP
0000
0000
0000
0000
0000
0000
0000
0000
03C0
03C0
FFF0
FFF0
0F00
0F00
FFF0
FFF0
3C00
3C00
0000
0000
0000
0000
0000
0000
0000
0000
ENDCHAR
STARTCHAR char30
ENCODING 30
SWIDTH 994 0
DWIDTH 14 0
BBX 14 26 0 -6
BITMAP
0000
0000
0000
0000
0FC0
0FC0
3C00
3C00
3C00
3C00
FFC0
FFC0
3C00
3C00
3C00
3C00
F000
F000
FFF0
FFF0
0000
0000
0000
0000
0000
0000
ENDCHAR
STARTCHAR char31
ENCODING 31
SWIDTH 994 0
DWIDTH 14 0
BBX 14 26 0 -6
BITMAP
0000
0000
0000
0000
0000
0000
0000
0000
0000
0000
0000
0000
3FC0
3FC0
0000
0000
0000
0000
0000
0000
0000
0000
0000
0000
0000
0000
ENDCHAR
STARTCHAR char32
ENCODING 32
SWIDTH 994 0
DWIDTH 14 0
BBX 14 26 0 -6
BITMAP
0000
0000
0000
0000
0000
0000
0000
0000
0000
0000
0000
0000
0000
0000
0000
0000
0000
0000
0000
0000
0000
0000
0000
0000
0000
0000
ENDCHAR
STARTCHAR char33
ENCODING 33
SWIDTH 994 0
DWIDTH 14 0
BBX 14 26 0 -6
BITMAP
0000
0000
0000
0000
0F00
0F00
0F00
0F00
0F00
0F00
0F00
0F00
0F00
0F00
0F00
0F00
0000
0000
0F00
0F00
0000
0000
0000
0000
0000
0000
ENDCHAR
STARTCHAR char34
ENCODING 34
SWIDTH 994 0
DWIDTH 14 0
BBX 14 26 0 -6
BITMAP
0000
0000
3CF0
3CF0
3CF0
3CF0
3CF0
3CF0
0000
0000
0000
0000
0000
0000
0000
0000
0000
0000
0000
0000
0000
0000
0000
0000
0000
0000
ENDCHAR
STARTCHAR char35
ENCODING 35
SWIDTH 994 0
DWIDTH 14 0
BBX 14 26 0 -6
BITMAP
0000
0000
0000
0000
3CF0
3CF0
3CF0
3CF0
FFFC
FFFC
3CF0
3CF0
3CF0
3CF0
FFFC
FFFC
3CF0
3CF0
3CF0
3CF0
0000
0000
0000
0000
0000
0000
ENDCHAR
STARTCHAR char36
ENCODING 36
SWIDTH 994 0
DWIDTH 14 0
BBX 14 26 0 -6
BITMAP
0000
0000
0300
0300
3FF0
3FF0
F33C
F33C
FF00
FF00
3FC0
3FC0
0FF0
0FF0
033C
033C
F33C
F33C
3FF0
3FF0
0300
0300
0000
0000
0000
0000
ENDCHAR
STARTCHAR char37
ENCODING 37
SWIDTH 994 0
DWIDTH 14 0
BBX 14 26 0 -6
BITMAP
0000
0000
0000
0000
30F0
30F0
FCF0
FCF0
33C0
33C0
03C0
03C0
0F00
0F00
0F30
0F30
3CFC
3CFC
3C30
3C30
0000
0000
0000
0000
0000
0000
ENDCHAR
STARTCHAR char38
ENCODING 38
SWIDTH 994 0
DWIDTH 14 0
BBX 14 26 0 -6
BITMAP
0000
0000
0000
0000
3C00
3C00
F300
F300
F300
F300
3C00
3C00
F330
F330
F3C0
F3C0
F3C0
F3C0
3F30
3F30
0000
0000
0000
0000
0000
0000
ENDCHAR
STARTCHAR char39
ENCODING 39
SWIDTH 994 0
DWIDTH 14 0
BBX 14 26 0 -6
BITMAP
0000
0000
0F00
0F00
0F00
0F00
0F00
0F00
0000
0000
0000
0000
0000
0000
0000
0000
0000
0000
0000
0000
0000
0000
0000
0000
0000
0000
ENDCHAR
STARTCHAR char40
ENCODING 40
SWIDTH 994 0
DWIDTH 14 0
BBX 14 26 0 -6
BITMAP
0000
0000
00F0
00F0
03C0
03C0
03C0
03C0
0F00
0F00
0F00
0F00
0F00
0F00
0F00
0F00
0F00
0F00
03C0
03C0
03C0
03C0
00F0
00F0
0000
0000
ENDCHAR
STARTCHAR char41
ENCODING 41
SWIDTH 994 0
DWIDTH 14 0
BBX 14 26 0 -6
BITMAP
0000
0000
3C00
3C00
0F00
0F00
0F00
0F00
03C0
03C0
03C0
03C0
03C0
03C0
03C0
03C0
03C0
03C0
0F00
0F00
0F00
0F00
3C00
3C00
0000
0000
ENDCHAR
STARTCHAR char42
ENCODING 42
SWIDTH 994 0
DWIDTH 14 0
BBX 14 26 0 -6
BITMAP
0000
0000
0000
0000
0000
0000
0000
0000
F0F0
F0F0
3FC0
3FC0
FFF0
FFF0
3FC0
3FC0
F0F0
F0F0
0000
0000
0000
0000
0000
0000
0000
0000
ENDCHAR
STARTCHAR char43
ENCODING 43
SWIDTH 994 0
DWIDTH 14 0
BBX 14 26 0 -6
BITMAP
0000
0000
0000
0000
0000
0000
0000
0000
0F00
0F00
0F00
0F00
FFF0
FFF0
0F00
0F00
0F00
0F00
0000
0000
0000
0000
0000
0000
0000
0000
ENDCHAR
STARTCHAR char44
ENCODING 44
SWIDTH 994 0
DWIDTH 14 0
BBX 14 26 0 -6
BITMAP
0000
0000
0000
0000
0000
0000
0000
0000
0000
0000
0000
0000
0000
0000
0000
0000
0F00
0F00
0F00
0F00
0F00
0F00
3C00
3C00
0000
0000
ENDCHAR
STARTCHAR char45
ENCODING 45
SWIDTH 994 0
DWIDTH 14 0
BBX 14 26 0 -6
BITMAP
0000
0000
0000
0000
0000
0000
0000
0000
0000
0000
0000
0000
FFF0
FFF0
0000
0000
0000
0000
0000
0000
0000
0000
0000
0000
0000
0000
ENDCHAR
STARTCHAR char46
ENCODING 46
SWIDTH 994 0
DWIDTH 14 0
BBX 14 26 0 -6
BITMAP
0000
0000
0000
0000
0000
0000
0000
0000
0000
0000
0000
0000
0000
0000
0000
0000
0F00
0F00
0F00
0F00
0000
0000
0000
0000
0000
0000
ENDCHAR
STARTCHAR char47
ENCODING 47
SWIDTH 994 0
DWIDTH 14 0
BBX 14 26 0 -6
BITMAP
0000
0000
0030
0030
00F0
00F0
00F0
00F0
03C0
03C0
03C0
03C0
0F00
0F00
0F00
0F00
3C00
3C00
3C00
3C00
3000
3000
0000
0000
0000
0000
ENDCHAR
STARTCHAR char48
ENCODING 48
SWIDTH 994 0
DWIDTH 14 0
BBX 14 26 0 -6
BITMAP
0000
0000
0000
0000
3FC0
3FC0
F0F0
F0F0
F0F0
F0F0
F3F0
F3F0
FCF0
FCF0
F0F0
F0F0
F0F0
F0F0
3FC0
3FC0
0000
0000
0000
0000
0000
0000
ENDCHAR
STARTCHAR char49
ENCODING 49
SWIDTH 994 0
DWIDTH 14 0
BBX 14 26 0 -6
BITMAP
0000
0000
0000
0000
0300
0300
0F00
0F00
3F00
3F00
0F00
0F00
0F00
0F00
0F00
0F00
0F00
0F00
FFF0
FFF0
0000
0000
0000
0000
0000
0000
ENDCHAR
STARTCHAR char50
ENCODING 50
SWIDTH 994 0
DWIDTH 14 0
BBX 14 26 0 -6
BITMAP
0000
0000
0000
0000
3FC0
3FC0
F0F0
F0F0
00F0
00F0
03C0
03C0
0F00
0F00
3C00
3C00
F000
F000
FFF0
FFF0
0000
0000
0000
0000
0000
0000
ENDCHAR
STARTCHAR char51
ENCODING 51
SWIDTH 994 0
DWIDTH 14 0
BBX 14 26 0 -6
BITMAP
0000
0000
0000
0000
3FC0
3FC0
F0F0
F0F0
00F0
00F0
0FC0
0FC0
00F0
00F0
00F0
00F0
F0F0
F0F0
3FC0
3FC0
0000
0000
0000
0000
0000
0000
ENDCHAR
STARTCHAR char52
ENCODING 52
SWIDTH 994 0
DWIDTH 14 0
BBX 14 26 0 -6
BITMAP
0000
0000
0000
0000
00F0
00F0
03F0
03F0
0FF0
0FF0
3CF0
3CF0
F0F0
F0F0
FFFC
FFFC
00F0
00F0
00F0
00F0
0000
0000
0000
0000
0000
0000
ENDCHAR
STARTCHAR char53
ENCODING 53
SWIDTH 994 0
DWIDTH 14 0
BBX 14 26 0 -6
BITMAP
0000
0000
0000
0000
FFF0
FFF0
F000
F000
F000
F000
FFC0
FFC0
00F0
00F0
00F0
00F0
F0F0
F0F0
3FC0
3FC0
0000
0000
0000
0000
0000
0000
ENDCHAR
STARTCHAR char54
ENCODING 54
SWIDTH 994 0
DWIDTH 14 0
BBX 14 26 0 -6
BITMAP
0000
0000
0000
0000
0F00
0F00
3C00
3C00
F000
F000
FFC0
FFC0
F0F0
F0F0
F0F0
F0F0
F0F0
F0F0
3FC0
3FC0
0000
0000
0000
0000
0000
0000
ENDCHAR
STARTCHAR char55
ENCODING 55
SWIDTH 994 0
DWIDTH 14 0
BBX 14 26 0 -6
BITMAP
0000
0000
0000
0000
FFF0
FFF0
00F0
00F0
03C0
03C0
03C0
03C0
0F00
0F00
0F00
0F00
3C00
3C00
3C00
3C00
0000
0000
0000
0000
0000
0000
ENDCHAR
STARTCHAR char56
ENCODING 56
SWIDTH 994 0
DWIDTH 14 0
BBX 14 26 0 -6
BITMAP
0000
0000
0000
0000
3FC0
3FC0
F0F0
F0F0
F0F0
F0F0
3FC0
3FC0
F0F0
F0F0
F0F0
F0F0
F0F0
F0F0
3FC0
3FC0
0000
0000
0000
0000
0000
0000
ENDCHAR
STARTCHAR char57
ENCODING 57
SWIDTH 994 0
DWIDTH 14 0
BBX 14 26 0 -6
BITMAP
0000
0000
0000
0000
3FC0
3FC0
F0F0
F0F0
F0F0
F0F0
F0F0
F0F0
3FF0
3FF0
00F0
00F0
03C0
03C0
0F00
0F00
0000
0000
0000
0000
0000
0000
ENDCHAR
STARTCHAR char58
ENCODING 58
SWIDTH 994 0
DWIDTH 14 0
BBX 14 26 0 -6
BITMAP
0000
0000
0000
0000
0000
0000
0000
0000
0F00
0F00
0F00
0F00
0000
0000
0000
0000
0F00
0F00
0F00
0F00
0000
0000
0000
0000
0000
0000
ENDCHAR
STARTCHAR char59
ENCODING 59
SWIDTH 994 0
DWIDTH 14 0
BBX 14 26 0 -6
BITMAP
0000
0000
0000
0000
0000
0000
0000
0000
0F00
0F00
0F00
0F00
0000
0000
0000
0000
0F00
0F00
0F00
0F00
0F00
0F00
3C00
3C00
0000
0000
ENDCHAR
STARTCHAR char60
ENCODING 60
SWIDTH 994 0
DWIDTH 14 0
BBX 14 26 0 -6
BITMAP
0000
0000
0000
0000
0000
0000
00F0
00F0
03C0
03C0
0F00
0F00
3C00
3C00
0F00
0F00
03C0
03C0
00F0
00F0
0000
0000
0000
0000
0000
0000
ENDCHAR
STARTCHAR char61
ENCODING 61
SWIDTH 994 0
DWIDTH 14 0
BBX 14 26 0 -6
BITMAP
0000
0000
0000
0000
0000
0000
0000
0000
0000
0000
FFFC
FFFC
0000
0000
FFFC
FFFC
0000
0000
0000
0000
0000
0000
0000
0000
0000
0000
ENDCHAR
STARTCHAR char62
ENCODING 62
SWIDTH 994 0
DWIDTH 14 0
BBX 14 26 0 -6
BITMAP
0000
0000
0000
0000
0000
0000
F000
F000
3C00
3C00
0F00
0F00
03C0
03C0
0F00
0F00
3C00
3C00
F000
F000
0000
0000
0000
0000
0000
0000
ENDCHAR
STARTCHAR char63
ENCODING 63
SWIDTH 994 0
DWIDTH 14 0
BBX 14 26 0 -6
BITMAP
0000
0000
0000
0000
3FC0
3FC0
F0F0
F0F0
00F0
00F0
03C0
03C0
0F00
0F00
0F00
0F00
0000
0000
0F00
0F00
0000
0000
0000
0000
0000
0000
ENDCHAR
STARTCHAR char64
ENCODING 64
SWIDTH 994 0
DWIDTH 14 0
BBX 14 26 0 -6
BITMAP
0000
0000
0000
0000
0FF0
0FF0
3C3C
3C3C
F3FC
F3FC
FF3C
FF3C
FF3C
FF3C
F3FC
F3FC
3C00
3C00
0FF0
0FF0
0000
0000
0000
0000
0000
0000
ENDCHAR
STARTCHAR char65
ENCODING 65
SWIDTH 994 0
DWIDTH 14 0
BBX 14 26 0 -6
BITMAP
0000
0000
0000
0000
0F00
0F00
0F00
0F00
3FC0
3FC0
30C0
30C0
FFF0
FFF0
F0F0
F0F0
F0F0
F0F0
F0F0
F0F0
0000
0000
0000
0000
0000
0000
ENDCHAR
STARTCHAR char66
ENCODING 66
SWIDTH 994 0
DWIDTH 14 0
BBX 14 26 0 -6
BITMAP
0000
0000
0000
0000
FFC0
FFC0
F0F0
F0F0
F0F0
F0F0
FFC0
FFC0
F0F0
F0F0
F0F0
F0F0
F0F0
F0F0
FFC0
FFC0
0000
0000
0000
0000
0000
0000
ENDCHAR
STARTCHAR char67
ENCODING 67
SWIDTH 994 0
DWIDTH 14 0
BBX 14 26 0 -6
BITMAP
0000
0000
0000
0000
0FC0
0FC0
3CF0
3CF0
F000
F000
F000
F000
F000
F000
F000
F000
3CF0
3CF0
0FC0
0FC0
0000
0000
0000
0000
0000
0000
ENDCHAR
STARTCHAR char68
ENCODING 68
SWIDTH 994 0
DWIDTH 14 0
BBX 14 26 0 -6
BITMAP
0000
0000
0000
0000
FF00
FF00
F3C0
F3C0
F0F0
F0F0
F0F0
F0F0
F0F0
F0F0
F0F0
F0F0
F3C0
F3C0
FF00
FF00
0000
0000
0000
0000
0000
0000
ENDCHAR
STARTCHAR char69
ENCODING 69
SWIDTH 994 0
DWIDTH 14 0
BBX 14 26 0 -6
BITMAP
0000
0000
0000
0000
FFF0
FFF0
F000
F000
F000
F000
FFC0
FFC0
F000
F000
F000
F000
F000
F000
FFF0
FFF0
0000
0000
0000
0000
0000
0000
ENDCHAR
STARTCHAR char70
ENCODING 70
SWIDTH 994 0
DWIDTH 14 0
BBX 14 26 0 -6
BITMAP
0000
0000
0000
0000
FFF0
FFF0
F000
F000
F000
F000
FFC0
FFC0
F000
F000
F000
F000
F000
F000
F000
F000
0000
0000
0000
0000
0000
0000
ENDCHAR
STARTCHAR char71
ENCODING 71
SWIDTH 994 0
DWIDTH 14 0
BBX 14 26 0 -6
BITMAP
0000
0000
0000
0000
0FC0
0FC0
3CF0
3CF0
F000
F000
F000
F000
F3F0
F3F0
F0F0
F0F0
3CF0
3CF0
0FC0
0FC0
0000
0000
0000
0000
0000
0000
ENDCHAR
STARTCHAR char72
ENCODING 72
SWIDTH 994 0
DWIDTH 14 0
BBX 14 26 0 -6
BITMAP
0000
0000
0000
0000
F0F0
F0F0
F0F0
F0F0
F0F0
F0F0
FFF0
FFF0
F0F0
F0F0
F0F0
F0F0
F0F0
F0F0
F0F0
F0F0
0000
0000
0000
0000
0000
0000
ENDCHAR
STARTCHAR char73
ENCODING 73
SWIDTH 994 0
DWIDTH 14 0
BBX 14 26 0 -6
BITMAP
0000
0000
0000
0000
3FC0
3FC0
0F00
0F00
0F00
0F00
0F00
0F00
0F00
0F00
0F00
0F00
0F00
0F00
3FC0
3FC0
0000
0000
0000
0000
0000
0000
ENDCHAR
STARTCHAR char74
ENCODING 74
SWIDTH 994 0
DWIDTH 14 0
BBX 14 26 0 -6
BITMAP
0000
0000
0000
0000
03F0
03F0
00F0
00F0
00F0
00F0
00F0
00F0
00F0
00F0
F0F0
F0F0
F0F0
F0F0
3FC0
3FC0
0000
0000
0000
0000
0000
0000
ENDCHAR
STARTCHAR char75
ENCODING 75
SWIDTH 994 0
DWIDTH 14 0
BBX 14 26 0 -6
BITMAP
0000
0000
0000
0000
F0F0
F0F0
F0F0
F0F0
F3C0
F3C0
FF00
FF00
F3C0
F3C0
F0F0
F0F0
F0F0
F0F0
F0F0
F0F0
0000
0000
0000
0000
0000
0000
ENDCHAR
STARTCHAR char76
ENCODING 76
SWIDTH 994 0
DWIDTH 14 0
BBX 14 26 0 -6
BITMAP
0000
0000
0000
0000
F000
F000
F000
F000
F000
F000
F000
F000
F000
F000
F000
F000
F000
F000
FFF0
FFF0
0000
0000
0000
0000
0000
0000
ENDCHAR
STARTCHAR char77
ENCODING 77
SWIDTH 994 0
DWIDTH 14 0
BBX 14 26 0 -6
BITMAP
0000
0000
0000
0000
C00C
C00C
F03C
F03C
FCFC
FCFC
FFFC
FFFC
F33C
F33C
F03C
F03C
F03C
F03C
F03C
F03C
0000
0000
0000
0000
0000
0000
ENDCHAR
STARTCHAR char78
ENCODING 78
SWIDTH 994 0
DWIDTH 14 0
BBX 14 26 0 -6
BITMAP
0000
0000
0000
0000
F0F0
F0F0
FCF0
FCF0
FCF0
FCF0
F3F0
F3F0
F3F0
F3F0
F0F0
F0F0
F0F0
F0F0
F0F0
F0F0
0000
0000
0000
0000
0000
0000
ENDCHAR
STARTCHAR char79
ENCODING 79
SWIDTH 994 0
DWIDTH 14 0
BBX 14 26 0 -6
BITMAP
0000
0000
0000
0000
3FC0
3FC0
F0F0
F0F0
F0F0
F0F0
F0F0
F0F0
F0F0
F0F0
F0F0
F0F0
F0F0
F0F0
3FC0
3FC0
0000
0000
0000
0000
0000
0000
ENDCHAR
STARTCHAR char80
ENCODING 80
SWIDTH 994 0
DWIDTH 14 0
BBX 14 26 0 -6
BITMAP
0000
0000
0000
0000
FFC0
FFC0
F0F0
F0F0
F0F0
F0F0
F0F0
F0F0
FFC0
FFC0
F000
F000
F000
F000
F000
F000
0000
0000
0000
0000
0000
0000
ENDCHAR
STARTCHAR char81
ENCODING 81
SWIDTH 994 0
DWIDTH 14 0
BBX 14 26 0 -6
BITMAP
0000
0000
0000
0000
3FC0
3FC0
F0F0
F0F0
F0F0
F0F0
F0F0
F0F0
F0F0
F0F0
F0F0
F0F0
F0C0
F0C0
3FF0
3FF0
00F0
00F0
0000
0000
0000
0000
ENDCHAR
STARTCHAR char82
ENCODING 82
SWIDTH 994 0
DWIDTH 14 0
BBX 14 26 0 -6
BITMAP
0000
0000
0000
0000
FFC0
FFC0
F0F0
F0F0
F0F0
F0F0
FFC0
FFC0
F3C0
F3C0
F0F0
F0F0
F0F0
F0F0
F0F0
F0F0
0000
0000
0000
0000
0000
0000
ENDCHAR
STARTCHAR char83
ENCODING 83
SWIDTH 994 0
DWIDTH 14 0
BBX 14 26 0 -6
BITMAP
0000
0000
0000
0000
3FC0
3FC0
F0F0
F0F0
F000
F000
3C00
3C00
03C0
03C0
00F0
00F0
F0F0
F0F0
3FC0
3FC0
0000
0000
0000
0000
0000
0000
ENDCHAR
STARTCHAR char84
ENCODING 84
SWIDTH 994 0
DWIDTH 14 0
BBX 14 26 0 -6
BITMAP
0000
0000
0000
0000
FFF0
FFF0
0F00
0F00
0F00
0F00
0F00
0F00
0F00
0F00
0F00
0F00
0F00
0F00
0F00
0F00
0000
0000
0000
0000
0000
0000
ENDCHAR
STARTCHAR char85
ENCODING 85
SWIDTH 994 0
DWIDTH 14 0
BBX 14 26 0 -6
BITMAP
0000
0000
0000
0000
F0F0
F0F0
F0F0
F0F0
F0F0
F0F0
F0F0
F0F0
F0F0
F0F0
F0F0
F0F0
F0F0
F0F0
3FC0
3FC0
0000
0000
0000
0000
0000
0000
ENDCHAR
STARTCHAR char86
ENCODING 86
SWIDTH 994 0
DWIDTH 14 0
BBX 14 26 0 -6
BITMAP
0000
0000
0000
0000
F0F0
F0F0
F0F0
F0F0
F0F0
F0F0
F0F0
F0F0
3FC0
3FC0
3FC0
3FC0
0F00
0F00
0F00
0F00
0000
0000
0000
0000
0000
0000
ENDCHAR
STARTCHAR char87
ENCODING 87
SWIDTH 994 0
DWIDTH 14 0
BBX 14 26 0 -6
BITMAP
0000
0000
0000
0000
F03C
F03C
F33C
F33C
F33C
F33C
FFFC
FFFC
FFFC
FFFC
3CF0
3CF0
3CF0
3CF0
3CF0
3CF0
0000
0000
0000
0000
0000
0000
ENDCHAR
STARTCHAR char88
ENCODING 88
SWIDTH 994 0
DWIDTH 14 0
BBX 14 26 0 -6
BITMAP
0000
0000
0000
0000
F0F0
F0F0
F0F0
F0F0
3FC0
3FC0
0F00
0F00
0F00
0F00
3FC0
3FC0
F0F0
F0F0
F0F0
F0F0
0000
0000
0000
0000
0000
0000
ENDCHAR
STARTCHAR char89
ENCODING 89
SWIDTH 994 0
DWIDTH 14 0
BBX 14 26 0 -6
BITMAP
0000
0000
0000
0000
F0F0
F0F0
F0F0
F0F0
F0F0
F0F0
3FC0
3FC0
0F00
0F00
0F00
0F00
0F00
0F00
0F00
0F00
0000
0000
0000
0000
0000
0000
ENDCHAR
STARTCHAR char90
ENCODING 90
SWIDTH 994 0
DWIDTH 14 0
BBX 14 26 0 -6
BITMAP
0000
0000
0000
0000
FFF0
FFF0
00F0
00F0
03C0
03C0
0F00
0F00
3C00
3C00
3C00
3C00
F000
F000
FFF0
FFF0
0000
0000
0000
0000
0000
0000
ENDCHAR
STARTCHAR char91
ENCODING 91
SWIDTH 994 0
DWIDTH 14 0
BBX 14 26 0 -6
BITMAP
0000
0000
0FF0
0FF0
0F00
0F00
0F00
0F00
0F00
0F00
0F00
0F00
0F00
0F00
0F00
0F00
0F00
0F00
0F00
0F00
0F00
0F00
0FF0
0FF0
0000
0000
ENDCHAR
STARTCHAR char92
ENCODING 92
SWIDTH 994 0
DWIDTH 14 0
BBX 14 26 0 -6
BITMAP
0000
0000
3000
3000
3C00
3C00
3C00
3C00
0F00
0F00
0F00
0F00
03C0
03C0
03C0
03C0
00F0
00F0
00F0
00F0
0030
0030
0000
0000
0000
0000
ENDCHAR
STARTCHAR char93
ENCODING 93
SWIDTH 994 0
DWIDTH 14 0
BBX 14 26 0 -6
BITMAP
0000
0000
3FC0
3FC0
03C0
03C0
03C0
03C0
03C0
03C0
03C0
03C0
03C0
03C0
03C0
03C0
03C0
03C0
03C0
03C0
03C0
03C0
3FC0
3FC0
0000
0000
ENDCHAR
STARTCHAR char94
ENCODING 94
SWIDTH 994 0
DWIDTH 14 0
BBX 14 26 0 -6
BITMAP
0000
0000
0F00
0F00
0F00
0F00
3FC0
3FC0
3FC0
3FC0
F0F0
F0F0
F0F0
F0F0
0000
0000
0000
0000
0000
0000
0000
0000
0000
0000
0000
0000
ENDCHAR
STARTCHAR char95
ENCODING 95
SWIDTH 994 0
DWIDTH 14 0
BBX 14 26 0 -6
BITMAP
0000
0000
0000
0000
0000
0000
0000
0000
0000
0000
0000
0000
0000
0000
0000
0000
0000
0000
0000
0000
FFFC
FFFC
0000
0000
0000
0000
ENDCHAR
STARTCHAR char96
ENCODING 96
SWIDTH 994 0
DWIDTH 14 0
BBX 14 26 0 -6
BITMAP
0000
0000
0F00
0F00
03C0
03C0
0000
0000
0000
0000
0000
0000
0000
0000
0000
0000
0000
0000
0000
0000
0000
0000
0000
0000
0000
0000
ENDCHAR
STARTCHAR char97
ENCODING 97
SWIDTH 994 0
DWIDTH 14 0
BBX 14 26 0 -6
BITMAP
0000
0000
0000
0000
0000
0000
0000
0000
3FC0
3FC0
00F0
00F0
3FF0
3FF0
F0F0
F0F0
F0F0
F0F0
3FF0
3FF0
0000
0000
0000
0000
0000
0000
ENDCHAR
STARTCHAR char98
ENCODING 98
SWIDTH 994 0
DWIDTH 14 0
BBX 14 26 0 -6
BITMAP
0000
0000
F000
F000
F000
F000
F000
F000
FFC0
FFC0
F0F0
F0F0
F0F0
F0F0
F0F0
F0F0
F0F0
F0F0
FFC0
FFC0
0000
0000
0000
0000
0000
0000
ENDCHAR
STARTCHAR char99
ENCODING 99
SWIDTH 994 0
DWIDTH 14 0
BBX 14 26 0 -6
BITMAP
0000
0000
0000
0000
0000
0000
0000
0000
3FC0
3FC0
F0F0
F0F0
F000
F000
F000
F000
F0F0
F0F0
3FC0
3FC0
0000
0000
0000
0000
0000
0000
ENDCHAR
STARTCHAR char100
ENCODING 100
SWIDTH 994 0
DWIDTH 14 0
BBX 14 26 0 -6
BITMAP
0000
0000
00F0
00F0
00F0
00F0
00F0
00F0
3FF0
3FF0
F0F0
F0F0
F0F0
F0F0
F0F0
F0F0
F0F0
F0F0
3FF0
3FF0
0000
0000
0000
0000
0000
0000
ENDCHAR
STARTCHAR char101
ENCODING 101
SWIDTH 994 0
DWIDTH 14 0
BBX 14 26 0 -6
BITMAP
0000
0000
0000
0000
0000
0000
0000
0000
3FC0
3FC0
F0F0
F0F0
FFF0
FFF0
F000
F000
F0F0
F0F0
3FC0
3FC0
0000
0000
0000
0000
0000
0000
ENDCHAR
STARTCHAR char102
ENCODING 102
SWIDTH 994 0
DWIDTH 14 0
BBX 14 26 0 -6
BITMAP
0000
0000
0FF0
0FF0
3C00
3C00
3C00
3C00
FFC0
FFC0
3C00
3C00
3C00
3C00
3C00
3C00
3C00
3C00
3C00
3C00
0000
0000
0000
0000
0000
0000
ENDCHAR
STARTCHAR char103
ENCODING 103
SWIDTH 994 0
DWIDTH 14 0
BBX 14 26 0 -6
BITMAP
0000
0000
0000
0000
0000
0000
0000
0000
3FF0
3FF0
F0F0
F0F0
F0F0
F0F0
F0F0
F0F0
F0F0
F0F0
3FF0
3FF0
00F0
00F0
00F0
00F0
3FC0
3FC0
ENDCHAR
STARTCHAR char104
ENCODING 104
SWIDTH 994 0
DWIDTH 14 0
BBX 14 26 0 -6
BITMAP
0000
0000
F000
F000
F000
F000
F000
F000
FFC0
FFC0
F0F0
F0F0
F0F0
F0F0
F0F0
F0F0
F0F0
F0F0
F0F0
F0F0
0000
0000
0000
0000
0000
0000
ENDCHAR
STARTCHAR char105
ENCODING 105
SWIDTH 994 0
DWIDTH 14 0
BBX 14 26 0 -6
BITMAP
0000
0000
0F00
0F00
0F00
0F00
0000
0000
3F00
3F00
0F00
0F00
0F00
0F00
0F00
0F00
0F00
0F00
0F00
0F00
0000
0000
0000
0000
0000
0000
ENDCHAR
STARTCHAR char106
ENCODING 106
SWIDTH 994 0
DWIDTH 14 0
BBX 14 26 0 -6
BITMAP
0000
0000
03C0
03C0
03C0
03C0
0000
0000
0FC0
0FC0
03C0
03C0
03C0
03C0
03C0
03C0
03C0
03C0
03C0
03C0
03C0
03C0
FF00
FF00
0000
0000
ENDCHAR
STARTCHAR char107
ENCODING 107
SWIDTH 994 0
DWIDTH 14 0
BBX 14 26 0 -6
BITMAP
0000
0000
F000
F000
F000
F000
F000
F000
F0F0
F0F0
F3C0
F3C0
FF00
FF00
FF00
FF00
F3C0
F3C0
F0F0
F0F0
0000
0000
0000
0000
0000
0000
ENDCHAR
STARTCHAR char108
ENCODING 108
SWIDTH 994 0
DWIDTH 14 0
BBX 14 26 0 -6
BITMAP
0000
0000
3F00
3F00
0F00
0F00
0F00
0F00
0F00
0F00
0F00
0F00
0F00
0F00
0F00
0F00
0F00
0F00
0F00
0F00
0000
0000
0000
0000
0000
0000
ENDCHAR
STARTCHAR char109
ENCODING 109
SWIDTH 994 0
DWIDTH 14 0
BBX 14 26 0 -6
BITMAP
0000
0000
0000
0000
0000
0000
0000
0000
FCF0
FCF0
FFFC
FFFC
FFFC
FFFC
F33C
F33C
F33C
F33C
F33C
F33C
0000
0000
0000
0000
0000
0000
ENDCHAR
STARTCHAR char110
ENCODING 110
SWIDTH 994 0
DWIDTH 14 0
BBX 14 26 0 -6
BITMAP
0000
0000
0000
0000
0000
0000
0000
0000
FFC0
FFC0
F0F0
F0F0
F0F0
F0F0
F0F0
F0F0
F0F0
F0F0
F0F0
F0F0
0000
0000
0000
0000
0000
0000
ENDCHAR
STARTCHAR char111
ENCODING 111
SWIDTH 994 0
DWIDTH 14 0
BBX 14 26 0 -6
BITMAP
0000
0000
0000
0000
0000
0000
0000
0000
3FC0
3FC0
F0F0
F0F0
F0F0
F0F0
F0F0
F0F0
F0F0
F0F0
3FC0
3FC0
0000
0000
0000
0000
0000
0000
ENDCHAR
STARTCHAR char112
ENCODING 112
SWIDTH 994 0
DWIDTH 14 0
BBX 14 26 0 -6
BITMAP
0000
0000
0000
0000
0000
0000
0000
0000
FFC0
FFC0
F0F0
F0F0
F0F0
F0F0
F0F0
F0F0
F0F0
F0F0
FFC0
FFC0
F000
F000
F000
F000
F000
F000
ENDCHAR
STARTCHAR char113
ENCODING 113
SWIDTH 994 0
DWIDTH 14 0
BBX 14 26 0 -6
BITMAP
0000
0000
0000
0000
0000
0000
0000
0000
3FF0
3FF0
F0F0
F0F0
F0F0
F0F0
F0F0
F0F0
F0F0
F0F0
3FF0
3FF0
00F0
00F0
00F0
00F0
00F0
00F0
ENDCHAR
STARTCHAR char114
ENCODING 114
SWIDTH 994 0
DWIDTH 14 0
BBX 14 26 0 -6
BITMAP
0000
0000
0000
0000
0000
0000
0000
0000
F3C0
F3C0
FCF0
FCF0
F000
F000
F000
F000
F000
F000
F000
F000
0000
0000
0000
0000
0000
0000
ENDCHAR
STARTCHAR char115
ENCODING 115
SWIDTH 994 0
DWIDTH 14 0
BBX 14 26 0 -6
BITMAP
0000
0000
0000
0000
0000
0000
0000
0000
3FC0
3FC0
F0F0
F0F0
3FC0
3FC0
00F0
00F0
F0F0
F0F0
3FC0
3FC0
0000
0000
0000
0000
0000
0000
ENDCHAR
STARTCHAR char116
ENCODING 116
SWIDTH 994 0
DWIDTH 14 0
BBX 14 26 0 -6
BITMAP
0000
0000
0000
0000
3C00
3C00
3C00
3C00
FFC0
FFC0
3C00
3C00
3C00
3C00
3C00
3C00
3C00
3C00
0FF0
0FF0
0000
0000
0000
0000
0000
0000
ENDCHAR
STARTCHAR char117
ENCODING 117
SWIDTH 994 0
DWIDTH 14 0
BBX 14 26 0 -6
BITMAP
0000
0000
0000
0000
0000
0000
0000
0000
F0F0
F0F0
F0F0
F0F0
F0F0
F0F0
F0F0
F0F0
F0F0
F0F0
3FF0
3FF0
0000
0000
0000
0000
0000
0000
ENDCHAR
STARTCHAR char118
ENCODING 118
SWIDTH 994 0
DWIDTH 14 0
BBX 14 26 0 -6
BITMAP
0000
0000
0000
0000
0000
0000
0000
0000
F0F0
F0F0
F0F0
F0F0
3FC0
3FC0
3FC0
3FC0
0F00
0F00
0F00
0F00
0000
0000
0000
0000
0000
0000
ENDCHAR
STARTCHAR char119
ENCODING 119
SWIDTH 994 0
DWIDTH 14 0
BBX 14 26 0 -6
BITMAP
0000
0000
0000
0000
0000
0000
0000
0000
F03C
F03C
F33C
F33C
F33C
F33C
FFFC
FFFC
3FF0
3FF0
3CF0
3CF0
0000
0000
0000
0000
0000
0000
ENDCHAR
STARTCHAR char120
ENCODING 120
SWIDTH 994 0
DWIDTH 14 0
BBX 14 26 0 -6
BITMAP
0000
0000
0000
0000
0000
0000
0000
0000
F0F0
F0F0
3FC0
3FC0
0F00
0F00
0F00
0F00
3FC0
3FC0
F0F0
F0F0
0000
0000
0000
0000
0000
0000
ENDCHAR
STARTCHAR char121
ENCODING 121
SWIDTH 994 0
DWIDTH 14 0
BBX 14 26 0 -6
BITMAP
0000
0000
0000
0000
0000
0000
0000
0000
F0F0
F0F0
F0F0
F0F0
F0F0
F0F0
F0F0
F0F0
F0F0
F0F0
3FF0
3FF0
00F0
00F0
F0F0
F0F0
3FC0
3FC0
ENDCHAR
STARTCHAR char122
ENCODING 122
SWIDTH 994 0
DWIDTH 14 0
BBX 14 26 0 -6
BITMAP
0000
0000
0000
0000
0000
0000
0000
0000
FFF0
FFF0
03C0
03C0
0F00
0F00
3C00
3C00
F000
F000
FFF0
FFF0
0000
0000
0000
0000
0000
0000
ENDCHAR
STARTCHAR char123
ENCODING 123
SWIDTH 994 0
DWIDTH 14 0
BBX 14 26 0 -6
BITMAP
0000
0000
03F0
03F0
0F00
0F00
0F00
0F00
0F00
0F00
0F00
0F00
FC00
FC00
0F00
0F00
0F00
0F00
0F00
0F00
0F00
0F00
03F0
03F0
0000
0000
ENDCHAR
STARTCHAR char124
ENCODING 124
SWIDTH 994 0
DWIDTH 14 0
BBX 14 26 0 -6
BITMAP
0000
0000
0F00
0F00
0F00
0F00
0F00
0F00
0F00
0F00
0F00
0F00
0F00
0F00
0F00
0F00
0F00
0F00
0F00
0F00
0F00
0F00
0F00
0F00
0000
0000
ENDCHAR
STARTCHAR char125
ENCODING 125
SWIDTH 994 0
DWIDTH 14 0
BBX 14 26 0 -6
BITMAP
0000
0000
FC00
FC00
0F00
0F00
0F00
0F00
0F00
0F00
0F00
0F00
03F0
03F0
0F00
0F00
0F00
0F00
0F00
0F00
0F00
0F00
FC00
FC00
0000
0000
ENDCHAR
STARTCHAR char126
ENCODING 126
SWIDTH 994 0
DWIDTH 14 0
BBX 14 26 0 -6
BITMAP
0000
0000
0000
0000
0000
0000
0000
0000
0000
0000
3C30
3C30
FFF0
FFF0
C3C0
C3C0
0000
0000
0000
0000
0000
0000
0000
0000
0000
0000
ENDCHAR
STARTCHAR char127
ENCODING 127
SWIDTH 994 0
DWIDTH 14 0
BBX 14 26 0 -6
BITMAP
0000
0000
0000
0000
0000
0000
0000
0000
0000
0000
0000
0000
0000
0000
0000
0000
0000
0000
0000
0000
0000
0000
0000
0000
0000
0000
ENDCHAR
STARTCHAR char128
ENCODING 128
SWIDTH 994 0
DWIDTH 14 0
BBX 14 26 0 -6
BITMAP
0000
0000
0000
0000
0000
0000
0FC0
0FC0
3CF0
3CF0
FF00
FF00
3C00
3C00
FF00
FF00
3CF0
3CF0
0FC0
0FC0
0000
0000
0000
0000
0000
0000
ENDCHAR
STARTCHAR char129
ENCODING 129
SWIDTH 994 0
DWIDTH 14 0
BBX 14 26 0 -6
BITMAP
0000
0000
0000
0000
0000
0000
0000
0000
0000
0000
0000
0000
0000
0000
0000
0000
0000
0000
0000
0000
0000
0000
0000
0000
0000
0000
ENDCHAR
STARTCHAR char130
ENCODING 130
SWIDTH 994 0
DWIDTH 14 0
BBX 14 26 0 -6
BITMAP
0000
0000
0000
0000
0000
0000
0000
0000
0000
0000
0000
0000
0000
0000
0000
0000
0F00
0F00
0F00
0F00
0F00
0F00
3C00
3C00
0000
0000
ENDCHAR
STARTCHAR char131
ENCODING 131
SWIDTH 994 0
DWIDTH 14 0
BBX 14 26 0 -6
BITMAP
0000
0000
03F0
03F0
0F00
0F00
0F00
0F00
3FF0
3FF0
0F00
0F00
0F00
0F00
0F00
0F00
0F00
0F00
0F00
0F00
0F00
0F00
FC00
FC00
0000
0000
ENDCHAR
STARTCHAR char132
ENCODING 132
SWIDTH 994 0
DWIDTH 14 0
BBX 14 26 0 -6
BITMAP
0000
0000
0000
0000
0000
0000
0000
0000
0000
0000
0000
0000
0000
0000
0000
0000
3CF0
3CF0
3CF0
3CF0
3CF0
3CF0
0000
0000
0000
0000
ENDCHAR
STARTCHAR char133
ENCODING 133
SWIDTH 994 0
DWIDTH 14 0
BBX 14 26 0 -6
BITMAP
0000
0000
0000
0000
0000
0000
0000
0000
0000
0000
0000
0000
0000
0000
0000
0000
0000
0000
3330
3330
0000
0000
0000
0000
0000
0000
ENDCHAR
STARTCHAR char134
ENCODING 134
SWIDTH 994 0
DWIDTH 14 0
BBX 14 26 0 -6
BITMAP
0000
0000
0F00
0F00
0F00
0F00
FFF0
FFF0
0F00
0F00
0F00
0F00
0F00
0F00
0F00
0F00
0F00
0F00
0F00
0F00
0000
0000
0000
0000
0000
0000
ENDCHAR
STARTCHAR char135
ENCODING 135
SWIDTH 994 0
DWIDTH 14 0
BBX 14 26 0 -6
BITMAP
0000
0000
0F00
0F00
0F00
0F00
FFF0
FFF0
0F00
0F00
FFF0
FFF0
0F00
0F00
0F00
0F00
0F00
0F00
0F00
0F00
0000
0000
0000
0000
0000
0000
ENDCHAR
STARTCHAR char136
ENCODING 136
SWIDTH 994 0
DWIDTH 14 0
BBX 14 26 0 -6
BITMAP
0000
0000
0F00
0F00
3FC0
3FC0
F0F0
F0F0
0000
0000
0000
0000
0000
0000
0000
0000
0000
0000
0000
0000
0000
0000
0000
0000
0000
0000
ENDCHAR
STARTCHAR char137
ENCODING 137
SWIDTH 994 0
DWIDTH 14 0
BBX 14 26 0 -6
BITMAP
0000
0000
0000
0000
F3C0
F3C0
F3C0
F3C0
0F00
0F00
0F00
0F00
3C00
3C00
3C00
3C00
F330
F330
F330
F330
0000
0000
0000
0000
0000
0000
ENDCHAR
STARTCHAR char138
ENCODING 138
SWIDTH 994 0
DWIDTH 14 0
BBX 14 26 0 -6
BITMAP
3CF0
3CF0
0FC0
0FC0
3FC0
3FC0
F0F0
F0F0
F000
F000
3FC0
3FC0
00F0
00F0
00F0
00F0
F0F0
F0F0
3FC0
3FC0
0000
0000
0000
0000
0000
0000
ENDCHAR
STARTCHAR char139
ENCODING 139
SWIDTH 994 0
DWIDTH 14 0
BBX 14 26 0 -6
BITMAP
0000
0000
0000
0000
0000
0000
0000
0000
03C0
03C0
0F00
0F00
3C00
3C00
0F00
0F00
03C0
03C0
0000
0000
0000
0000
0000
0000
0000
0000
ENDCHAR
STARTCHAR char140
ENCODING 140
SWIDTH 994 0
DWIDTH 14 0
BBX 14 26 0 -6
BITMAP
0000
0000
0000
0000
3CF0
3CF0
F3C0
F3C0
F3C0
F3C0
F3F0
F3F0
F3C0
F3C0
F3C0
F3C0
F3C0
F3C0
3CF0
3CF0
0000
0000
0000
0000
0000
0000
ENDCHAR
STARTCHAR char141
ENCODING 141
SWIDTH 994 0
DWIDTH 14 0
BBX 14 26 0 -6
BITMAP
0000
0000
0000
0000
0000
0000
0000
0000
0000
0000
0000
0000
0000
0000
0000
0000
0000
0000
0000
0000
0000
0000
0000
0000
0000
0000
ENDCHAR
STARTCHAR char142
ENCODING 142
SWIDTH 994 0
DWIDTH 14 0
BBX 14 26 0 -6
BITMAP
3CF0
3CF0
0FC0
0FC0
FFF0
FFF0
03C0
03C0
0F00
0F00
0F00
0F00
3C00
3C00
3C00
3C00
F000
F000
FFF0
FFF0
0000
0000
0000
0000
0000
0000
ENDCHAR
STARTCHAR char143
ENCODING 143
SWIDTH 994 0
DWIDTH 14 0
BBX 14 26 0 -6
BITMAP
0000
0000
0000
0000
0000
0000
0000
0000
0000
0000
0000
0000
0000
0000
0000
0000
0000
0000
0000
0000
0000
0000
0000
0000
0000
0000
ENDCHAR
STARTCHAR char144
ENCODING 144
SWIDTH 994 0
DWIDTH 14 0
BBX 14 26 0 -6
BITMAP
0000
0000
0000
0000
0000
0000
0000
0000
0000
0000
0000
0000
0000
0000
0000
0000
0000
0000
0000
0000
0000
0000
0000
0000
0000
0000
ENDCHAR
STARTCHAR char145
ENCODING 145
SWIDTH 994 0
DWIDTH 14 0
BBX 14 26 0 -6
BITMAP
0000
0000
0F00
0F00
0F00
0F00
03C0
03C0
0000
0000
0000
0000
0000
0000
0000
0000
0000
0000
0000
0000
0000
0000
0000
0000
0000
0000
ENDCHAR
STARTCHAR char146
ENCODING 146
SWIDTH 994 0
DWIDTH 14 0
BBX 14 26 0 -6
BITMAP
0000
0000
0F00
0F00
0F00
0F00
3C00
3C00
0000
0000
0000
0000
0000
0000
0000
0000
0000
0000
0000
0000
0000
0000
0000
0000
0000
0000
ENDCHAR
STARTCHAR char147
ENCODING 147
SWIDTH 994 0
DWIDTH 14 0
BBX 14 26 0 -6
BITMAP
0000
0000
F3C0
F3C0
F3C0
F3C0
3CF0
3CF0
0000
0000
0000
0000
0000
0000
0000
0000
0000
0000
0000
0000
0000
0000
0000
0000
0000
0000
ENDCHAR
STARTCHAR char148
ENCODING 148
SWIDTH 994 0
DWIDTH 14 0
BBX 14 26 0 -6
BITMAP
0000
0000
3CF0
3CF0
3CF0
3CF0
F3C0
F3C0
0000
0000
0000
0000
0000
0000
0000
0000
0000
0000
0000
0000
0000
0000
0000
0000
0000
0000
ENDCHAR
STARTCHAR char149
ENCODING 149
SWIDTH 994 0
DWIDTH 14 0
BBX 14 26 0 -6
BITMAP
0000
0000
0000
0000
0000
0000
0000
0000
0F00
0F00
3FC0
3FC0
FFF0
FFF0
3FC0
3FC0
0F00
0F00
0000
0000
0000
0000
0000
0000
0000
0000
ENDCHAR
STARTCHAR char150
ENCODING 150
SWIDTH 994 0
DWIDTH 14 0
BBX 14 26 0 -6
BITMAP
0000
0000
0000
0000
0000
0000
0000
0000
0000
0000
0000
0000
FFF0
FFF0
0000
0000
0000
0000
0000
0000
0000
0000
0000
0000
0000
0000
ENDCHAR
STARTCHAR char151
ENCODING 151
SWIDTH 994 0
DWIDTH 14 0
BBX 14 26 0 -6
BITMAP
0000
0000
0000
0000
0000
0000
0000
0000
0000
0000
0000
0000
FFFC
FFFC
0000
0000
0000
0000
0000
0000
0000
0000
0000
0000
0000
0000
ENDCHAR
STARTCHAR char152
ENCODING 152
SWIDTH 994 0
DWIDTH 14 0
BBX 14 26 0 -6
BITMAP
0000
0000
0000
0000
0F30
0F30
33C0
33C0
0000
0000
0000
0000
0000
0000
0000
0000
0000
0000
0000
0000
0000
0000
0000
0000
0000
0000
ENDCHAR
STARTCHAR char153
ENCODING 153
SWIDTH 994 0
DWIDTH 14 0
BBX 14 26 0 -6
BITMAP
0000
0000
0000
0000
3FF0
3FF0
0CF0
0CF0
0CF0
0CF0
0CF0
0CF0
0000
0000
0000
0000
0000
0000
0000
0000
0000
0000
0000
0000
0000
0000
ENDCHAR
STARTCHAR char154
ENCODING 154
SWIDTH 994 0
DWIDTH 14 0
BBX 14 26 0 -6
BITMAP
0000
0000
3CF0
3CF0
0FC0
0FC0
0000
0000
3FC0
3FC0
F0F0
F0F0
3FC0
3FC0
00F0
00F0
F0F0
F0F0
3FC0
3FC0
0000
0000
0000
0000
0000
0000
ENDCHAR
STARTCHAR char155
ENCODING 155
SWIDTH 994 0
DWIDTH 14 0
BBX 14 26 0 -6
BITMAP
0000
0000
0000
0000
0000
0000
0000
0000
3C00
3C00
0F00
0F00
03C0
03C0
0F00
0F00
3C00
3C00
0000
0000
0000
0000
0000
0000
0000
0000
ENDCHAR
STARTCHAR char156
ENCODING 156
SWIDTH 994 0
DWIDTH 14 0
BBX 14 26 0 -6
BITMAP
0000
0000
0000
0000
0000
0000
0000
0000
3CC0
3CC0
F330
F330
F3F0
F3F0
F300
F300
F330
F330
3CC0
3CC0
0000
0000
0000
0000
0000
0000
ENDCHAR
STARTCHAR char157
ENCODING 157
SWIDTH 994 0
DWIDTH 14 0
BBX 14 26 0 -6
BITMAP
0000
0000
0000
0000
0000
0000
0000
0000
0000
0000
0000
0000
0000
0000
0000
0000
0000
0000
0000
0000
0000
0000
0000
0000
0000
0000
ENDCHAR
STARTCHAR char158
ENCODING 158
SWIDTH 994 0
DWIDTH 14 0
BBX 14 26 0 -6
BITMAP
0000
0000
3CF0
3CF0
0FC0
0FC0
0000
0000
FFF0
FFF0
03C0
03C0
0F00
0F00
3C00
3C00
F000
F000
FFF0
FFF0
0000
0000
0000
0000
0000
0000
ENDCHAR
STARTCHAR char159
ENCODING 159
SWIDTH 994 0
DWIDTH 14 0
BBX 14 26 0 -6
BITMAP
0000
0000
F0F0
F0F0
0000
0000
F0F0
F0F0
F0F0
F0F0
F0F0
F0F0
3FC0
3FC0
0F00
0F00
0F00
0F00
0F00
0F00
0000
0000
0000
0000
0000
0000
ENDCHAR
STARTCHAR char160
ENCODING 160
SWIDTH 994 0
DWIDTH 14 0
BBX 14 26 0 -6
BITMAP
0000
0000
0000
0000
0000
0000
0000
0000
0000
0000
0000
0000
0000
0000
0000
0000
0000
0000
0000
0000
0000
0000
0000
0000
0000
0000
ENDCHAR
STARTCHAR char161
ENCODING 161
SWIDTH 994 0
DWIDTH 14 0
BBX 14 26 0 -6
BITMAP
0000
0000
0000
0000
0F00
0F00
0000
0000
0F00
0F00
0F00
0F00
0F00
0F00
0F00
0F00
0F00
0F00
0F00
0F00
0000
0000
0000
0000
0000
0000
ENDCHAR
STARTCHAR char162
ENCODING 162
SWIDTH 994 0
DWIDTH 14 0
BBX 14 26 0 -6
BITMAP
0000
0000
0000
0000
0000
0000
0300
0300
3FC0
3FC0
F330
F330
F300
F300
F300
F300
F330
F330
3FC0
3FC0
0300
0300
0000
0000
0000
0000
ENDCHAR
STARTCHAR char163
ENCODING 163
SWIDTH 994 0
DWIDTH 14 0
BBX 14 26 0 -6
BITMAP
0000
0000
0000
0000
0FC0
0FC0
3C00
3C00
3C00
3C00
FFC0
FFC0
3C00
3C00
3C00
3C00
F000
F000
FFF0
FFF0
0000
0000
0000
0000
0000
0000
ENDCHAR
STARTCHAR char164
ENCODING 164
SWIDTH 994 0
DWIDTH 14 0
BBX 14 26 0 -6
BITMAP
0000
0000
0000
0000
0000
0000
0000
0000
F03C
F03C
3FF0
3FF0
3CF0
3CF0
3CF0
3CF0
3FF0
3FF0
F03C
F03C
0000
0000
0000
0000
0000
0000
ENDCHAR
STARTCHAR char165
ENCODING 165
SWIDTH 994 0
DWIDTH 14 0
BBX 14 26 0 -6
BITMAP
0000
0000
0000
0000
F0F0
F0F0
F0F0
F0F0
F0F0
F0F0
3FC0
3FC0
0F00
0F00
FFF0
FFF0
0F00
0F00
0F00
0F00
0000
0000
0000
0000
0000
0000
ENDCHAR
STARTCHAR char166
ENCODING 166
SWIDTH 994 0
DWIDTH 14 0
BBX 14 26 0 -6
BITMAP
0000
0000
0F00
0F00
0F00
0F00
0F00
0F00
0F00
0F00
0F00
0F00
0000
0000
0F00
0F00
0F00
0F00
0F00
0F00
0F00
0F00
0F00
0F00
0000
0000
ENDCHAR
STARTCHAR char167
ENCODING 167
SWIDTH 994 0
DWIDTH 14 0
BBX 14 26 0 -6
BITMAP
0000
0000
3FC0
3FC0
F0F0
F0F0
F000
F000
3F00
3F00
3CC0
3CC0
0FC0
0FC0
00F0
00F0
F0F0
F0F0
3FC0
3FC0
0000
0000
0000
0000
0000
0000
ENDCHAR
STARTCHAR char168
ENCODING 168
SWIDTH 994 0
DWIDTH 14 0
BBX 14 26 0 -6
BITMAP
0000
0000
3CF0
3CF0
0000
0000
0000
0000
0000
0000
0000
0000
0000
0000
0000
0000
0000
0000
0000
0000
0000
0000
0000
0000
0000
0000
ENDCHAR
STARTCHAR char169
ENCODING 169
SWIDTH 994 0
DWIDTH 14 0
BBX 14 26 0 -6
BITMAP
0000
0000
0000
0000
3FF0
3FF0
FFFC
FFFC
FC3C
FC3C
F3FC
F3FC
F3FC
F3FC
FC3C
FC3C
FFFC
FFFC
3FF0
3FF0
0000
0000
0000
0000
0000
0000
ENDCHAR
STARTCHAR char170
ENCODING 170
SWIDTH 994 0
DWIDTH 14 0
BBX 14 26 0 -6
BITMAP
0000
0000
0000
0000
3F00
3F00
03C0
03C0
3FC0
3FC0
F3C0
F3C0
3FC0
3FC0
0000
0000
0000
0000
0000
0000
0000
0000
0000
0000
0000
0000
ENDCHAR
STARTCHAR char171
ENCODING 171
SWIDTH 994 0
DWIDTH 14 0
BBX 14 26 0 -6
BITMAP
0000
0000
0000
0000
0000
0000
0000
0000
0F30
0F30
3CC0
3CC0
F300
F300
3CC0
3CC0
0F30
0F30
0000
0000
0000
0000
0000
0000
0000
0000
ENDCHAR
STARTCHAR char172
ENCODING 172
SWIDTH 994 0
DWIDTH 14 0
BBX 14 26 0 -6
BITMAP
0000
0000
0000
0000
0000
0000
0000
0000
0000
0000
0000
0000
FFC0
FFC0
03C0
03C0
03C0
03C0
03C0
03C0
0000
0000
0000
0000
0000
0000
ENDCHAR
STARTCHAR char173
ENCODING 173
SWIDTH 994 0
DWIDTH 14 0
BBX 14 26 0 -6
BITMAP
0000
0000
0000
0000
0000
0000
0000
0000
0000
0000
0000
0000
0000
0000
0000
0000
0000
0000
0000
0000
0000
0000
0000
0000
0000
0000
ENDCHAR
STARTCHAR char174
ENCODING 174
SWIDTH 994 0
DWIDTH 14 0
BBX 14 26 0 -6
BITMAP
0000
0000
0000
0000
3FF0
3FF0
FFFC
FFFC
F0FC
F0FC
F33C
F33C
F0FC
F0FC
F33C
F33C
FFFC
FFFC
3FF0
3FF0
0000
0000
0000
0000
0000
0000
ENDCHAR
STARTCHAR char175
ENCODING 175
SWIDTH 994 0
DWIDTH 14 0
BBX 14 26 0 -6
BITMAP
FFFC
FFFC
0000
0000
0000
0000
0000
0000
0000
0000
0000
0000
0000
0000
0000
0000
0000
0000
0000
0000
0000
0000
0000
0000
0000
0000
ENDCHAR
STARTCHAR char176
ENCODING 176
SWIDTH 994 0
DWIDTH 14 0
BBX 14 26 0 -6
BITMAP
0000
0000
3F00
3F00
F3C0
F3C0
F3C0
F3C0
3F00
3F00
0000
0000
0000
0000
0000
0000
0000
0000
0000
0000
0000
0000
0000
0000
0000
0000
ENDCHAR
STARTCHAR char177
ENCODING 177
SWIDTH 994 0
DWIDTH 14 0
BBX 14 26 0 -6
BITMAP
0000
0000
0000
0000
0000
0000
0F00
0F00
0F00
0F00
FFF0
FFF0
0F00
0F00
0F00
0F00
0000
0000
FFF0
FFF0
0000
0000
0000
0000
0000
0000
ENDCHAR
STARTCHAR char178
ENCODING 178
SWIDTH 994 0
DWIDTH 14 0
BBX 14 26 0 -6
BITMAP
0000
0000
FF00
FF00
03C0
03C0
0F00
0F00
3C00
3C00
FFC0
FFC0
0000
0000
0000
0000
0000
0000
0000
0000
0000
0000
0000
0000
0000
0000
ENDCHAR
STARTCHAR char179
ENCODING 179
SWIDTH 994 0
DWIDTH 14 0
BBX 14 26 0 -6
BITMAP
0000
0000
FF00
FF00
03C0
03C0
3F00
3F00
03C0
03C0
FF00
FF00
0000
0000
0000
0000
0000
0000
0000
0000
0000
0000
0000
0000
0000
0000
ENDCHAR
STARTCHAR char180
ENCODING 180
SWIDTH 994 0
DWIDTH 14 0
BBX 14 26 0 -6
BITMAP
0000
0000
03C0
03C0
0F00
0F00
0000
0000
0000
0000
0000
0000
0000
0000
0000
0000
0000
0000
0000
0000
0000
0000
0000
0000
0000
0000
ENDCHAR
STARTCHAR char181
ENCODING 181
SWIDTH 994 0
DWIDTH 14 0
BBX 14 26 0 -6
BITMAP
0000
0000
0000
0000
0000
0000
0000
0000
3CF0
3CF0
3CF0
3CF0
3CF0
3CF0
3CF0
3CF0
3FF0
3FF0
3CC0
3CC0
3C00
3C00
F000
F000
0000
0000
ENDCHAR
STARTCHAR char182
ENCODING 182
SWIDTH 994 0
DWIDTH 14 0
BBX 14 26 0 -6
BITMAP
0000
0000
0000
0000
0FF0
0FF0
3F30
3F30
3F30
3F30
0F30
0F30
0330
0330
0330
0330
0330
0330
0330
0330
0330
0330
0000
0000
0000
0000
ENDCHAR
STARTCHAR char183
ENCODING 183
SWIDTH 994 0
DWIDTH 14 0
BBX 14 26 0 -6
BITMAP
0000
0000
0000
0000
0000
0000
0000
0000
0000
0000
0300
0300
0FC0
0FC0
0300
0300
0000
0000
0000
0000
0000
0000
0000
0000
0000
0000
ENDCHAR
STARTCHAR char184
ENCODING 184
SWIDTH 994 0
DWIDTH 14 0
BBX 14 26 0 -6
BITMAP
0000
0000
0000
0000
0000
0000
0000
0000
0000
0000
0000
0000
0000
0000
0000
0000
0000
0000
0FC0
0FC0
03C0
03C0
0F00
0F00
0000
0000
ENDCHAR
STARTCHAR char185
ENCODING 185
SWIDTH 994 0
DWIDTH 14 0
BBX 14 26 0 -6
BITMAP
0000
0000
3C00
3C00
FC00
FC00
3C00
3C00
3C00
3C00
FF00
FF00
0000
0000
0000
0000
0000
0000
0000
0000
0000
0000
0000
0000
0000
0000
ENDCHAR
STARTCHAR char186
ENCODING 186
SWIDTH 994 0
DWIDTH 14 0
BBX 14 26 0 -6
BITMAP
0000
0000
3F00
3F00
F3C0
F3C0
F3C0
F3C0
F3C0
F3C0
3F00
3F00
0000
0000
0000
0000
0000
0000
0000
0000
0000
0000
0000
0000
0000
0000
ENDCHAR
STARTCHAR char187
ENCODING 187
SWIDTH 994 0
DWIDTH 14 0
BBX 14 26 0 -6
BITMAP
0000
0000
0000
0000
0000
0000
0000
0000
F300
F300
3CC0
3CC0
0F30
0F30
3CC0
3CC0
F300
F300
0000
0000
0000
0000
0000
0000
0000
0000
ENDCHAR
STARTCHAR char188
ENCODING 188
SWIDTH 994 0
DWIDTH 14 0
BBX 14 26 0 -6
BITMAP
0000
0000
3030
3030
30C0
30C0
30C0
30C0
3300
3300
0300
0300
0C30
0C30
0CF0
0CF0
33F0
33F0
3030
3030
0000
0000
0000
0000
0000
0000
ENDCHAR
STARTCHAR char189
ENCODING 189
SWIDTH 994 0
DWIDTH 14 0
BBX 14 26 0 -6
BITMAP
0000
0000
3030
3030
30C0
30C0
30C0
30C0
3300
3300
0300
0300
0CC0
0CC0
0C30
0C30
30C0
30C0
30F0
30F0
0000
0000
0000
0000
0000
0000
ENDCHAR
STARTCHAR char190
ENCODING 190
SWIDTH 994 0
DWIDTH 14 0
BBX 14 26 0 -6
BITMAP
0000
0000
3C30
3C30
0CC0
0CC0
30C0
30C0
0F00
0F00
3F00
3F00
0C30
0C30
0CF0
0CF0
33F0
33F0
3030
3030
0000
0000
0000
0000
0000
0000
ENDCHAR
STARTCHAR char191
ENCODING 191
SWIDTH 994 0
DWIDTH 14 0
BBX 14 26 0 -6
BITMAP
0000
0000
0000
0000
0F00
0F00
0000
0000
0F00
0F00
0F00
0F00
3C00
3C00
F000
F000
F0F0
F0F0
3FC0
3FC0
0000
0000
0000
0000
0000
0000
ENDCHAR
STARTCHAR char192
ENCODING 192
SWIDTH 994 0
DWIDTH 14 0
BBX 14 26 0 -6
BITMAP
3C00
3C00
0F00
0F00
0000
0000
0F00
0F00
0F00
0F00
3FC0
3FC0
30C0
30C0
FFF0
FFF0
F0F0
F0F0
F0F0
F0F0
0000
0000
0000
0000
0000
0000
ENDCHAR
STARTCHAR char193
ENCODING 193
SWIDTH 994 0
DWIDTH 14 0
BBX 14 26 0 -6
BITMAP
03C0
03C0
0F00
0F00
0000
0000
0F00
0F00
0F00
0F00
3FC0
3FC0
30C0
30C0
FFF0
FFF0
F0F0
F0F0
F0F0
F0F0
0000
0000
0000
0000
0000
0000
ENDCHAR
STARTCHAR char194
ENCODING 194
SWIDTH 994 0
DWIDTH 14 0
BBX 14 26 0 -6
BITMAP
0FC0
0FC0
3CF0
3CF0
0000
0000
0F00
0F00
0F00
0F00
3FC0
3FC0
30C0
30C0
FFF0
FFF0
F0F0
F0F0
F0F0
F0F0
0000
0000
0000
0000
0000
0000
ENDCHAR
STARTCHAR char195
ENCODING 195
SWIDTH 994 0
DWIDTH 14 0
BBX 14 26 0 -6
BITMAP
0F30
0F30
33C0
33C0
0000
0000
0F00
0F00
0F00
0F00
3FC0
3FC0
30C0
30C0
FFF0
FFF0
F0F0
F0F0
F0F0
F0F0
0000
0000
0000
0000
0000
0000
ENDCHAR
STARTCHAR char196
ENCODING 196
SWIDTH 994 0
DWIDTH 14 0
BBX 14 26 0 -6
BITMAP
0000
0000
F0F0
F0F0
0000
0000
0F00
0F00
0F00
0F00
3FC0
3FC0
30C0
30C0
FFF0
FFF0
F0F0
F0F0
F0F0
F0F0
0000
0000
0000
0000
0000
0000
ENDCHAR
STARTCHAR char197
ENCODING 197
SWIDTH 994 0
DWIDTH 14 0
BBX 14 26 0 -6
BITMAP
0FC0
0FC0
3CF0
3CF0
0FC0
0FC0
0F00
0F00
3FC0
3FC0
3FC0
3FC0
F0F0
F0F0
FFF0
FFF0
F0F0
F0F0
F0F0
F0F0
0000
0000
0000
0000
0000
0000
ENDCHAR
STARTCHAR char198
ENCODING 198
SWIDTH 994 0
DWIDTH 14 0
BBX 14 26 0 -6
BITMAP
0000
0000
0000
0000
0FF0
0FF0
3FC0
3FC0
33C0
33C0
F3F0
F3F0
FFC0
FFC0
F3C0
F3C0
F3C0
F3C0
F3F0
F3F0
0000
0000
0000
0000
0000
0000
ENDCHAR
STARTCHAR char199
ENCODING 199
SWIDTH 994 0
DWIDTH 14 0
BBX 14 26 0 -6
BITMAP
0000
0000
0000
0000
3FC0
3FC0
F0F0
F0F0
F000
F000
F000
F000
F000
F000
F000
F000
F0F0
F0F0
3FC0
3FC0
0F00
0F00
0F00
0F00
3C00
3C00
ENDCHAR
STARTCHAR char200
ENCODING 200
SWIDTH 994 0
DWIDTH 14 0
BBX 14 26 0 -6
BITMAP
3C00
3C00
0F00
0F00
0000
0000
FFF0
FFF0
F000
F000
F000
F000
FFC0
FFC0
F000
F000
F000
F000
FFF0
FFF0
0000
0000
0000
0000
0000
0000
ENDCHAR
STARTCHAR char201
ENCODING 201
SWIDTH 994 0
DWIDTH 14 0
BBX 14 26 0 -6
BITMAP
03C0
03C0
0F00
0F00
0000
0000
FFF0
FFF0
F000
F000
F000
F000
FFC0
FFC0
F000
F000
F000
F000
FFF0
FFF0
0000
0000
0000
0000
0000
0000
ENDCHAR
STARTCHAR char202
ENCODING 202
SWIDTH 994 0
DWIDTH 14 0
BBX 14 26 0 -6
BITMAP
0FC0
0FC0
3CF0
3CF0
0000
0000
FFF0
FFF0
F000
F000
F000
F000
FFC0
FFC0
F000
F000
F000
F000
FFF0
FFF0
0000
0000
0000
0000
0000
0000
ENDCHAR
STARTCHAR char203
ENCODING 203
SWIDTH 994 0
DWIDTH 14 0
BBX 14 26 0 -6
BITMAP
0000
0000
F0F0
F0F0
0000
0000
FFF0
FFF0
F000
F000
F000
F000
FFC0
FFC0
F000
F000
F000
F000
FFF0
FFF0
0000
0000
0000
0000
0000
0000
ENDCHAR
STARTCHAR char204
ENCODING 204
SWIDTH 994 0
DWIDTH 14 0
BBX 14 26 0 -6
BITMAP
3C00
3C00
0F00
0F00
0000
0000
3FC0
3FC0
0F00
0F00
0F00
0F00
0F00
0F00
0F00
0F00
0F00
0F00
3FC0
3FC0
0000
0000
0000
0000
0000
0000
ENDCHAR
STARTCHAR char205
ENCODING 205
SWIDTH 994 0
DWIDTH 14 0
BBX 14 26 0 -6
BITMAP
03C0
03C0
0F00
0F00
0000
0000
3FC0
3FC0
0F00
0F00
0F00
0F00
0F00
0F00
0F00
0F00
0F00
0F00
3FC0
3FC0
0000
0000
0000
0000
0000
0000
ENDCHAR
STARTCHAR char206
ENCODING 206
SWIDTH 994 0
DWIDTH 14 0
BBX 14 26 0 -6
BITMAP
0FC0
0FC0
3CF0
3CF0
0000
0000
3FC0
3FC0
0F00
0F00
0F00
0F00
0F00
0F00
0F00
0F00
0F00
0F00
3FC0
3FC0
0000
0000
0000
0000
0000
0000
ENDCHAR
STARTCHAR char207
ENCODING 207
SWIDTH 994 0
DWIDTH 14 0
BBX 14 26 0 -6
BITMAP
0000
0000
F0F0
F0F0
0000
0000
3FC0
3FC0
0F00
0F00
0F00
0F00
0F00
0F00
0F00
0F00
0F00
0F00
3FC0
3FC0
0000
0000
0000
0000
0000
0000
ENDCHAR
STARTCHAR char208
ENCODING 208
SWIDTH 994 0
DWIDTH 14 0
BBX 14 26 0 -6
BITMAP
0000
0000
0000
0000
0000
0000
3FC0
3FC0
3CF0
3CF0
3CF0
3CF0
FFF0
FFF0
3CF0
3CF0
3CF0
3CF0
3FC0
3FC0
0000
0000
0000
0000
0000
0000
ENDCHAR
STARTCHAR char209
ENCODING 209
SWIDTH 994 0
DWIDTH 14 0
BBX 14 26 0 -6
BITMAP
0F30
0F30
33C0
33C0
0000
0000
F0F0
F0F0
FCF0
FCF0
FFF0
FFF0
F3F0
F3F0
F0F0
F0F0
F0F0
F0F0
F0F0
F0F0
0000
0000
0000
0000
0000
0000
ENDCHAR
STARTCHAR char210
ENCODING 210
SWIDTH 994 0
DWIDTH 14 0
BBX 14 26 0 -6
BITMAP
3C00
3C00
0F00
0F00
0000
0000
3FC0
3FC0
F0F0
F0F0
F0F0
F0F0
F0F0
F0F0
F0F0
F0F0
F0F0
F0F0
3FC0
3FC0
0000
0000
0000
0000
0000
0000
ENDCHAR
STARTCHAR char211
ENCODING 211
SWIDTH 994 0
DWIDTH 14 0
BBX 14 26 0 -6
BITMAP
03C0
03C0
0F00
0F00
0000
0000
3FC0
3FC0
F0F0
F0F0
F0F0
F0F0
F0F0
F0F0
F0F0
F0F0
F0F0
F0F0
3FC0
3FC0
0000
0000
0000
0000
0000
0000
ENDCHAR
STARTCHAR char212
ENCODING 212
SWIDTH 994 0
DWIDTH 14 0
BBX 14 26 0 -6
BITMAP
0FC0
0FC0
3CF0
3CF0
0000
0000
3FC0
3FC0
F0F0
F0F0
F0F0
F0F0
F0F0
F0F0
F0F0
F0F0
F0F0
F0F0
3FC0
3FC0
0000
0000
0000
0000
0000
0000
ENDCHAR
STARTCHAR char213
ENCODING 213
SWIDTH 994 0
DWIDTH 14 0
BBX 14 26 0 -6
BITMAP
0F30
0F30
33C0
33C0
0000
0000
3FC0
3FC0
F0F0
F0F0
F0F0
F0F0
F0F0
F0F0
F0F0
F0F0
F0F0
F0F0
3FC0
3FC0
0000
0000
0000
0000
0000
0000
ENDCHAR
STARTCHAR char214
ENCODING 214
SWIDTH 994 0
DWIDTH 14 0
BBX 14 26 0 -6
BITMAP
0000
0000
F0F0
F0F0
0000
0000
3FC0
3FC0
F0F0
F0F0
F0F0
F0F0
F0F0
F0F0
F0F0
F0F0
F0F0
F0F0
3FC0
3FC0
0000
0000
0000
0000
0000
0000
ENDCHAR
STARTCHAR char215
ENCODING 215
SWIDTH 994 0
DWIDTH 14 0
BBX 14 26 0 -6
BITMAP
0000
0000
0000
0000
0000
0000
0000
0000
F0F0
F0F0
3FC0
3FC0
0F00
0F00
3FC0
3FC0
F0F0
F0F0
0000
0000
0000
0000
0000
0000
0000
0000
ENDCHAR
STARTCHAR char216
ENCODING 216
SWIDTH 994 0
DWIDTH 14 0
BBX 14 26 0 -6
BITMAP
0000
0000
0000
0000
3F30
3F30
F0F0
F0F0
F3C0
F3C0
F3F0
F3F0
FCF0
FCF0
3CF0
3CF0
F0F0
F0F0
CFC0
CFC0
0000
0000
0000
0000
0000
0000
ENDCHAR
STARTCHAR char217
ENCODING 217
SWIDTH 994 0
DWIDTH 14 0
BBX 14 26 0 -6
BITMAP
3C00
3C00
0F00
0F00
0000
0000
F0F0
F0F0
F0F0
F0F0
F0F0
F0F0
F0F0
F0F0
F0F0
F0F0
F0F0
F0F0
3FC0
3FC0
0000
0000
0000
0000
0000
0000
ENDCHAR
STARTCHAR char218
ENCODING 218
SWIDTH 994 0
DWIDTH 14 0
BBX 14 26 0 -6
BITMAP
03C0
03C0
0F00
0F00
0000
0000
F0F0
F0F0
F0F0
F0F0
F0F0
F0F0
F0F0
F0F0
F0F0
F0F0
F0F0
F0F0
3FC0
3FC0
0000
0000
0000
0000
0000
0000
ENDCHAR
STARTCHAR char219
ENCODING 219
SWIDTH 994 0
DWIDTH 14 0
BBX 14 26 0 -6
BITMAP
0FC0
0FC0
3CF0
3CF0
0000
0000
F0F0
F0F0
F0F0
F0F0
F0F0
F0F0
F0F0
F0F0
F0F0
F0F0
F0F0
F0F0
3FC0
3FC0
0000
0000
0000
0000
0000
0000
ENDCHAR
STARTCHAR char220
ENCODING 220
SWIDTH 994 0
DWIDTH 14 0
BBX 14 26 0 -6
BITMAP
0000
0000
F0F0
F0F0
0000
0000
F0F0
F0F0
F0F0
F0F0
F0F0
F0F0
F0F0
F0F0
F0F0
F0F0
F0F0
F0F0
3FC0
3FC0
0000
0000
0000
0000
0000
0000
ENDCHAR
STARTCHAR char221
ENCODING 221
SWIDTH 994 0
DWIDTH 14 0
BBX 14 26 0 -6
BITMAP
03C0
03C0
0F00
0F00
0000
0000
F0F0
F0F0
F0F0
F0F0
F0F0
F0F0
3FC0
3FC0
0F00
0F00
0F00
0F00
0F00
0F00
0000
0000
0000
0000
0000
0000
ENDCHAR
STARTCHAR char222
ENCODING 222
SWIDTH 994 0
DWIDTH 14 0
BBX 14 26 0 -6
BITMAP
0000
0000
0000
0000
F000
F000
F000
F000
FFC0
FFC0
F0F0
F0F0
F0F0
F0F0
FFC0
FFC0
F000
F000
F000
F000
0000
0000
0000
0000
0000
0000
ENDCHAR
STARTCHAR char223
ENCODING 223
SWIDTH 994 0
DWIDTH 14 0
BBX 14 26 0 -6
BITMAP
0000
0000
0FC0
0FC0
3CF0
3CF0
3CF0
3CF0
3FC0
3FC0
3CF0
3CF0
3CF0
3CF0
3CF0
3CF0
3CF0
3CF0
3FC0
3FC0
F000
F000
0000
0000
0000
0000
ENDCHAR
STARTCHAR char224
ENCODING 224
SWIDTH 994 0
DWIDTH 14 0
BBX 14 26 0 -6
BITMAP
0000
0000
3C00
3C00
0F00
0F00
0000
0000
3FC0
3FC0
00F0
00F0
3FF0
3FF0
F0F0
F0F0
F0F0
F0F0
3FF0
3FF0
0000
0000
0000
0000
0000
0000
ENDCHAR
STARTCHAR char225
ENCODING 225
SWIDTH 994 0
DWIDTH 14 0
BBX 14 26 0 -6
BITMAP
0000
0000
03C0
03C0
0F00
0F00
0000
0000
3FC0
3FC0
00F0
00F0
3FF0
3FF0
F0F0
F0F0
F0F0
F0F0
3FF0
3FF0
0000
0000
0000
0000
0000
0000
ENDCHAR
STARTCHAR char226
ENCODING 226
SWIDTH 994 0
DWIDTH 14 0
BBX 14 26 0 -6
BITMAP
0000
0000
0FC0
0FC0
3CF0
3CF0
0000
0000
3FC0
3FC0
00F0
00F0
3FF0
3FF0
F0F0
F0F0
F0F0
F0F0
3FF0
3FF0
0000
0000
0000
0000
0000
0000
ENDCHAR
STARTCHAR char227
ENCODING 227
SWIDTH 994 0
DWIDTH 14 0
BBX 14 26 0 -6
BITMAP
0000
0000
0F30
0F30
33C0
33C0
0000
0000
3FC0
3FC0
00F0
00F0
3FF0
3FF0
F0F0
F0F0
F0F0
F0F0
3FF0
3FF0
0000
0000
0000
0000
0000
0000
ENDCHAR
STARTCHAR char228
ENCODING 228
SWIDTH 994 0
DWIDTH 14 0
BBX 14 26 0 -6
BITMAP
0000
0000
F0F0
F0F0
0000
0000
0000
0000
3FC0
3FC0
00F0
00F0
3FF0
3FF0
F0F0
F0F0
F0F0
F0F0
3FF0
3FF0
0000
0000
0000
0000
0000
0000
ENDCHAR
STARTCHAR char229
ENCODING 229
SWIDTH 994 0
DWIDTH 14 0
BBX 14 26 0 -6
BITMAP
0FC0
0FC0
3CF0
3CF0
0FC0
0FC0
0000
0000
3FC0
3FC0
00F0
00F0
3FF0
3FF0
F0F0
F0F0
F0F0
F0F0
3FF0
3FF0
0000
0000
0000
0000
0000
0000
ENDCHAR
STARTCHAR char230
ENCODING 230
SWIDTH 994 0
DWIDTH 14 0
BBX 14 26 0 -6
BITMAP
0000
0000
0000
0000
0000
0000
0000
0000
33C0
33C0
0F30
0F30
3FF0
3FF0
CF00
CF00
CF30
CF30
3CC0
3CC0
0000
0000
0000
0000
0000
0000
ENDCHAR
STARTCHAR char231
ENCODING 231
SWIDTH 994 0
DWIDTH 14 0
BBX 14 26 0 -6
BITMAP
0000
0000
0000
0000
0000
0000
0000
0000
3FC0
3FC0
F0F0
F0F0
F000
F000
F000
F000
F0F0
F0F0
3FC0
3FC0
0F00
0F00
0F00
0F00
3C00
3C00
ENDCHAR
STARTCHAR char232
ENCODING 232
SWIDTH 994 0
DWIDTH 14 0
BBX 14 26 0 -6
BITMAP
0000
0000
3C00
3C00
0F00
0F00
0000
0000
3FC0
3FC0
F0F0
F0F0
FFF0
FFF0
F000
F000
F0F0
F0F0
3FC0
3FC0
0000
0000
0000
0000
0000
0000
ENDCHAR
STARTCHAR char233
ENCODING 233
SWIDTH 994 0
DWIDTH 14 0
BBX 14 26 0 -6
BITMAP
0000
0000
03C0
03C0
0F00
0F00
0000
0000
3FC0
3FC0
F0F0
F0F0
FFF0
FFF0
F000
F000
F0F0
F0F0
3FC0
3FC0
0000
0000
0000
0000
0000
0000
ENDCHAR
STARTCHAR char234
ENCODING 234
SWIDTH 994 0
DWIDTH 14 0
BBX 14 26 0 -6
BITMAP
0000
0000
0FC0
0FC0
3CF0
3CF0
0000
0000
3FC0
3FC0
F0F0
F0F0
FFF0
FFF0
F000
F000
F0F0
F0F0
3FC0
3FC0
0000
0000
0000
0000
0000
0000
ENDCHAR
STARTCHAR char235
ENCODING 235
SWIDTH 994 0
DWIDTH 14 0
BBX 14 26 0 -6
BITMAP
0000
0000
F0F0
F0F0
0000
0000
0000
0000
3FC0
3FC0
F0F0
F0F0
FFF0
FFF0
F000
F000
F0F0
F0F0
3FC0
3FC0
0000
0000
0000
0000
0000
0000
ENDCHAR
STARTCHAR char236
ENCODING 236
SWIDTH 994 0
DWIDTH 14 0
BBX 14 26 0 -6
BITMAP
0000
0000
3C00
3C00
0F00
0F00
0000
0000
3F00
3F00
0F00
0F00
0F00
0F00
0F00
0F00
0F00
0F00
3FC0
3FC0
0000
0000
0000
0000
0000
0000
ENDCHAR
STARTCHAR char237
ENCODING 237
SWIDTH 994 0
DWIDTH 14 0
BBX 14 26 0 -6
BITMAP
0000
0000
03C0
03C0
0F00
0F00
0000
0000
3F00
3F00
0F00
0F00
0F00
0F00
0F00
0F00
0F00
0F00
3FC0
3FC0
0000
0000
0000
0000
0000
0000
ENDCHAR
STARTCHAR char238
ENCODING 238
SWIDTH 994 0
DWIDTH 14 0
BBX 14 26 0 -6
BITMAP
0000
0000
0FC0
0FC0
3CF0
3CF0
0000
0000
3F00
3F00
0F00
0F00
0F00
0F00
0F00
0F00
0F00
0F00
3FC0
3FC0
0000
0000
0000
0000
0000
0000
ENDCHAR
STARTCHAR char239
ENCODING 239
SWIDTH 994 0
DWIDTH 14 0
BBX 14 26 0 -6
BITMAP
0000
0000
F0F0
F0F0
0000
0000
0000
0000
3F00
3F00
0F00
0F00
0F00
0F00
0F00
0F00
0F00
0F00
3FC0
3FC0
0000
0000
0000
0000
0000
0000
ENDCHAR
STARTCHAR char240
ENCODING 240
SWIDTH 994 0
DWIDTH 14 0
BBX 14 26 0 -6
BITMAP
0000
0000
3F30
3F30
03C0
03C0
0CF0
0CF0
00F0
00F0
3FF0
3FF0
F0F0
F0F0
F0F0
F0F0
F0F0
F0F0
3FC0
3FC0
0000
0000
0000
0000
0000
0000
ENDCHAR
STARTCHAR char241
ENCODING 241
SWIDTH 994 0
DWIDTH 14 0
BBX 14 26 0 -6
BITMAP
0000
0000
0F30
0F30
33C0
33C0
0000
0000
FFC0
FFC0
F0F0
F0F0
F0F0
F0F0
F0F0
F0F0
F0F0
F0F0
F0F0
F0F0
0000
0000
0000
0000
0000
0000
ENDCHAR
STARTCHAR char242
ENCODING 242
SWIDTH 994 0
DWIDTH 14 0
BBX 14 26 0 -6
BITMAP
0000
0000
3C00
3C00
0F00
0F00
0000
0000
3FC0
3FC0
F0F0
F0F0
F0F0
F0F0
F0F0
F0F0
F0F0
F0F0
3FC0
3FC0
0000
0000
0000
0000
0000
0000
ENDCHAR
STARTCHAR char243
ENCODING 243
SWIDTH 994 0
DWIDTH 14 0
BBX 14 26 0 -6
BITMAP
0000
0000
03C0
03C0
0F00
0F00
0000
0000
3FC0
3FC0
F0F0
F0F0
F0F0
F0F0
F0F0
F0F0
F0F0
F0F0
3FC0
3FC0
0000
0000
0000
0000
0000
0000
ENDCHAR
STARTCHAR char244
ENCODING 244
SWIDTH 994 0
DWIDTH 14 0
BBX 14 26 0 -6
BITMAP
0000
0000
0FC0
0FC0
3CF0
3CF0
0000
0000
3FC0
3FC0
F0F0
F0F0
F0F0
F0F0
F0F0
F0F0
F0F0
F0F0
3FC0
3FC0
0000
0000
0000
0000
0000
0000
ENDCHAR
STARTCHAR char245
ENCODING 245
SWIDTH 994 0
DWIDTH 14 0
BBX 14 26 0 -6
BITMAP
0000
0000
0F30
0F30
33C0
33C0
0000
0000
3FC0
3FC0
F0F0
F0F0
F0F0
F0F0
F0F0
F0F0
F0F0
F0F0
3FC0
3FC0
0000
0000
0000
0000
0000
0000
ENDCHAR
STARTCHAR char246
ENCODING 246
SWIDTH 994 0
DWIDTH 14 0
BBX 14 26 0 -6
BITMAP
0000
0000
F0F0
F0F0
0000
0000
0000
0000
3FC0
3FC0
F0F0
F0F0
F0F0
F0F0
F0F0
F0F0
F0F0
F0F0
3FC0
3FC0
0000
0000
0000
0000
0000
0000
ENDCHAR
STARTCHAR char247
ENCODING 247
SWIDTH 994 0
DWIDTH 14 0
BBX 14 26 0 -6
BITMAP
0000
0000
0000
0000
0000
0000
0000
0000
0F00
0F00
0000
0000
FFF0
FFF0
0000
0000
0F00
0F00
0000
0000
0000
0000
0000
0000
0000
0000
ENDCHAR
STARTCHAR char248
ENCODING 248
SWIDTH 994 0
DWIDTH 14 0
BBX 14 26 0 -6
BITMAP
0000
0000
0000
0000
0000
0000
00F0
00F0
3FC0
3FC0
F0F0
F0F0
F3F0
F3F0
FCF0
FCF0
F0F0
F0F0
3FC0
3FC0
F000
F000
0000
0000
0000
0000
ENDCHAR
STARTCHAR char249
ENCODING 249
SWIDTH 994 0
DWIDTH 14 0
BBX 14 26 0 -6
BITMAP
0000
0000
3C00
3C00
0F00
0F00
0000
0000
F0F0
F0F0
F0F0
F0F0
F0F0
F0F0
F0F0
F0F0
F0F0
F0F0
3FF0
3FF0
0000
0000
0000
0000
0000
0000
ENDCHAR
STARTCHAR char250
ENCODING 250
SWIDTH 994 0
DWIDTH 14 0
BBX 14 26 0 -6
BITMAP
0000
0000
03C0
03C0
0F00
0F00
0000
0000
F0F0
F0F0
F0F0
F0F0
F0F0
F0F0
F0F0
F0F0
F0F0
F0F0
3FF0
3FF0
0000
0000
0000
0000
0000
0000
ENDCHAR
STARTCHAR char251
ENCODING 251
SWIDTH 994 0
DWIDTH 14 0
BBX 14 26 0 -6
BITMAP
0000
0000
0FC0
0FC0
3CF0
3CF0
0000
0000
F0F0
F0F0
F0F0
F0F0
F0F0
F0F0
F0F0
F0F0
F0F0
F0F0
3FF0
3FF0
0000
0000
0000
0000
0000
0000
ENDCHAR
STARTCHAR char252
ENCODING 252
SWIDTH 994 0
DWIDTH 14 0
BBX 14 26 0 -6
BITMAP
0000
0000
F0F0
F0F0
0000
0000
0000
0000
F0F0
F0F0
F0F0
F0F0
F0F0
F0F0
F0F0
F0F0
F0F0
F0F0
3FF0
3FF0
0000
0000
0000
0000
0000
0000
ENDCHAR
STARTCHAR char253
ENCODING 253
SWIDTH 994 0
DWIDTH 14 0
BBX 14 26 0 -6
BITMAP
0000
0000
03C0
03C0
0F00
0F00
0000
0000
F0F0
F0F0
F0F0
F0F0
F0F0
F0F0
F0F0
F0F0
F0F0
F0F0
3FF0
3FF0
00F0
00F0
00F0
00F0
3FC0
3FC0
ENDCHAR
STARTCHAR char254
ENCODING 254
SWIDTH 994 0
DWIDTH 14 0
BBX 14 26 0 -6
BITMAP
0000
0000
0000
0000
F000
F000
F000
F000
FFC0
FFC0
F0F0
F0F0
F0F0
F0F0
F0F0
F0F0
F0F0
F0F0
FFC0
FFC0
F000
F000
F000
F000
0000
0000
ENDCHAR
STARTCHAR char255
ENCODING 255
SWIDTH 994 0
DWIDTH 14 0
BBX 14 26 0 -6
BITMAP
0000
0000
F0F0
F0F0
0000
0000
0000
0000
F0F0
F0F0
F0F0
F0F0
F0F0
F0F0
F0F0
F0F0
F0F0
F0F0
3FF0
3FF0
00F0
00F0
00F0
00F0
3FC0
3FC0
ENDCHAR
STARTCHAR Amacron
ENCODING 256
SWIDTH 994 0
DWIDTH 14 0
BBX 14 26 0 -6
BITMAP
0000
0000
FFF0
FFF0
0000
0000
0F00
0F00
30C0
30C0
F0F0
F0F0
F0F0
F0F0
FFF0
FFF0
F0F0
F0F0
F0F0
F0F0
F0F0
F0F0
0000
0000
0000
0000
ENDCHAR
STARTCHAR amacron
ENCODING 257
SWIDTH 994 0
DWIDTH 14 0
BBX 14 26 0 -6
BITMAP
0000
0000
0000
0000
0000
0000
FFF0
FFF0
0000
0000
3FC0
3FC0
00F0
00F0
3FF0
3FF0
F0F0
F0F0
F0F0
F0F0
3FF0
3FF0
0000
0000
0000
0000
ENDCHAR
STARTCHAR Abreve
ENCODING 258
SWIDTH 994 0
DWIDTH 14 0
BBX 14 26 0 -6
BITMAP
0000
0000
F0F0
F0F0
3FC0
3FC0
0000
0000
0F00
0F00
3FC0
3FC0
F0F0
F0F0
F0F0
F0F0
FFF0
FFF0
F0F0
F0F0
F0F0
F0F0
0000
0000
0000
0000
ENDCHAR
STARTCHAR abreve
ENCODING 259
SWIDTH 994 0
DWIDTH 14 0
BBX 14 26 0 -6
BITMAP
0000
0000
0000
0000
F0F0
F0F0
3FC0
3FC0
0000
0000
3FC0
3FC0
00F0
00F0
3FF0
3FF0
F0F0
F0F0
F0F0
F0F0
3FF0
3FF0
0000
0000
0000
0000
ENDCHAR
STARTCHAR Aogonek
ENCODING 260
SWIDTH 994 0
DWIDTH 14 0
BBX 14 26 0 -6
BITMAP
0000
0000
0000
0000
0F00
0F00
3FC0
3FC0
F0F0
F0F0
F0F0
F0F0
F0F0
F0F0
FFF0
FFF0
F0F0
F0F0
F0F0
F0F0
F0F0
F0F0
00F0
00F0
003C
003C
ENDCHAR
STARTCHAR aogonek
ENCODING 261
SWIDTH 994 0
DWIDTH 14 0
BBX 14 26 0 -6
BITMAP
0000
0000
0000
0000
0000
0000
0000
0000
0000
0000
3FC0
3FC0
00F0
00F0
3FF0
3FF0
F0F0
F0F0
F0F0
F0F0
3FF0
3FF0
00C0
00C0
003C
003C
ENDCHAR
STARTCHAR Cacute
ENCODING 262
SWIDTH 994 0
DWIDTH 14 0
BBX 14 26 0 -6
BITMAP
0000
0000
03C0
03C0
0F00
0F00
0000
0000
3FC0
3FC0
F0F0
F0F0
F000
F000
F000
F000
F000
F000
F0F0
F0F0
3FC0
3FC0
0000
0000
0000
0000
ENDCHAR
STARTCHAR cacute
ENCODING 263
SWIDTH 994 0
DWIDTH 14 0
BBX 14 26 0 -6
BITMAP
0000
0000
0000
0000
03C0
03C0
0F00
0F00
0000
0000
3FC0
3FC0
F0F0
F0F0
F000
F000
F000
F000
F0F0
F0F0
3FC0
3FC0
0000
0000
0000
0000
ENDCHAR
STARTCHAR Ccircumflex
ENCODING 264
SWIDTH 994 0
DWIDTH 14 0
BBX 14 26 0 -6
BITMAP
0000
0000
0FC0
0FC0
3CF0
3CF0
0000
0000
3FC0
3FC0
F0F0
F0F0
F000
F000
F000
F000
F000
F000
F0F0
F0F0
3FC0
3FC0
0000
0000
0000
0000
ENDCHAR
STARTCHAR ccircumflex
ENCODING 265
SWIDTH 994 0
DWIDTH 14 0
BBX 14 26 0 -6
BITMAP
0000
0000
0000
0000
0FC0
0FC0
3CF0
3CF0
0000
0000
3FC0
3FC0
F0F0
F0F0
F000
F000
F000
F000
F0F0
F0F0
3FC0
3FC0
0000
0000
0000
0000
ENDCHAR
STARTCHAR Cdotaccent
ENCODING 266
SWIDTH 994 0
DWIDTH 14 0
BBX 14 26 0 -6
BITMAP
0000
0000
0F00
0F00
0F00
0F00
0000
0000
3FC0
3FC0
F0F0
F0F0
F000
F000
F000
F000
F000
F000
F0F0
F0F0
3FC0
3FC0
0000
0000
0000
0000
ENDCHAR
STARTCHAR cdotaccent
ENCODING 267
SWIDTH 994 0
DWIDTH 14 0
BBX 14 26 0 -6
BITMAP
0000
0000
0000
0000
0F00
0F00
0F00
0F00
0000
0000
3FC0
3FC0
F0F0
F0F0
F000
F000
F000
F000
F0F0
F0F0
3FC0
3FC0
0000
0000
0000
0000
ENDCHAR
STARTCHAR Ccaron
ENCODING 268
SWIDTH 994 0
DWIDTH 14 0
BBX 14 26 0 -6
BITMAP
0000
0000
F3C0
F3C0
3F00
3F00
0000
0000
3FC0
3FC0
F0F0
F0F0
F000
F000
F000
F000
F000
F000
F0F0
F0F0
3FC0
3FC0
0000
0000
0000
0000
ENDCHAR
STARTCHAR ccaron
ENCODING 269
SWIDTH 994 0
DWIDTH 14 0
BBX 14 26 0 -6
BITMAP
0000
0000
0000
0000
3CF0
3CF0
0FC0
0FC0
0000
0000
3FC0
3FC0
F0F0
F0F0
F000
F000
F000
F000
F0F0
F0F0
3FC0
3FC0
0000
0000
0000
0000
ENDCHAR
STARTCHAR Dcaron
ENCODING 270
SWIDTH 994 0
DWIDTH 14 0
BBX 14 26 0 -6
BITMAP
0000
0000
F3C0
F3C0
3F00
3F00
0000
0000
FFC0
FFC0
F0F0
F0F0
F0F0
F0F0
F0F0
F0F0
F0F0
F0F0
F0F0
F0F0
FFC0
FFC0
0000
0000
0000
0000
ENDCHAR
STARTCHAR dcaron
ENCODING 271
SWIDTH 994 0
DWIDTH 14 0
BBX 14 26 0 -6
BITMAP
0000
0000
F3C0
F3C0
3F00
3F00
00F0
00F0
00F0
00F0
3FF0
3FF0
F0F0
F0F0
F0F0
F0F0
F0F0
F0F0
F0F0
F0F0
3FF0
3FF0
0000
0000
0000
0000
ENDCHAR
STARTCHAR Dcroat
ENCODING 272
SWIDTH 994 0
DWIDTH 14 0
BBX 14 26 0 -6
BITMAP
0000
0000
0000
0000
FFF0
FFF0
3C3C
3C3C
3C3C
3C3C
3C3C
3C3C
FF3C
FF3C
3C3C
3C3C
3C3C
3C3C
3C3C
3C3C
FFF0
FFF0
0000
0000
0000
0000
ENDCHAR
STARTCHAR dcroat
ENCODING 273
SWIDTH 994 0
DWIDTH 14 0
BBX 14 26 0 -6
BITMAP
0000
0000
0000
0000
00F0
00F0
03FC
03FC
00F0
00F0
3FF0
3FF0
F0F0
F0F0
F0F0
F0F0
F0F0
F0F0
F0F0
F0F0
3FF0
3FF0
0000
0000
0000
0000
ENDCHAR
STARTCHAR Emacron
ENCODING 274
SWIDTH 994 0
DWIDTH 14 0
BBX 14 26 0 -6
BITMAP
0000
0000
FFF0
FFF0
0000
0000
FFF0
FFF0
F000
F000
F000
F000
FF00
FF00
F000
F000
F000
F000
F000
F000
FFF0
FFF0
0000
0000
0000
0000
ENDCHAR
STARTCHAR emacron
ENCODING 275
SWIDTH 994 0
DWIDTH 14 0
BBX 14 26 0 -6
BITMAP
0000
0000
0000
0000
0000
0000
FFF0
FFF0
0000
0000
3FC0
3FC0
F0F0
F0F0
FFF0
FFF0
F000
F000
F0F0
F0F0
3FC0
3FC0
0000
0000
0000
0000
ENDCHAR
STARTCHAR Ebreve
ENCODING 276
SWIDTH 994 0
DWIDTH 14 0
BBX 14 26 0 -6
BITMAP
0000
0000
F0F0
F0F0
3FC0
3FC0
0000
0000
FFF0
FFF0
F000
F000
F000
F000
FF00
FF00
F000
F000
F000
F000
FFF0
FFF0
0000
0000
0000
0000
ENDCHAR
STARTCHAR ebreve
ENCODING 277
SWIDTH 994 0
DWIDTH 14 0
BBX 14 26 0 -6
BITMAP
0000
0000
0000
0000
F0F0
F0F0
3FC0
3FC0
0000
0000
3FC0
3FC0
F0F0
F0F0
FFF0
FFF0
F000
F000
F0F0
F0F0
3FC0
3FC0
0000
0000
0000
0000
ENDCHAR
STARTCHAR Edotaccent
ENCODING 278
SWIDTH 994 0
DWIDTH 14 0
BBX 14 26 0 -6
BITMAP
0000
0000
0F00
0F00
0F00
0F00
0000
0000
FFF0
FFF0
F000
F000
F000
F000
FF00
FF00
F000
F000
F000
F000
FFF0
FFF0
0000
0000
0000
0000
ENDCHAR
STARTCHAR edotaccent
ENCODING 279
SWIDTH 994 0
DWIDTH 14 0
BBX 14 26 0 -6
BITMAP
0000
0000
0000
0000
0F00
0F00
0F00
0F00
0000
0000
3FC0
3FC0
F0F0
F0F0
FFF0
FFF0
F000
F000
F0F0
F0F0
3FC0
3FC0
0000
0000
0000
0000
ENDCHAR
STARTCHAR Eogonek
ENCODING 280
SWIDTH 994 0
DWIDTH 14 0
BBX 14 26 0 -6
BITMAP
0000
0000
0000
0000
FFF0
FFF0
F000
F000
F000
F000
F000
F000
FF00
FF00
F000
F000
F000
F000
F000
F000
FFF0
FFF0
3C00
3C00
0FC0
0FC0
ENDCHAR
STARTCHAR eogonek
ENCODING 281
SWIDTH 994 0
DWIDTH 14 0
BBX 14 26 0 -6
BITMAP
0000
0000
0000
0000
0000
0000
0000
0000
0000
0000
3FC0
3FC0
F0F0
F0F0
FFF0
FFF0
F000
F000
F0F0
F0F0
3FC0
3FC0
3C00
3C00
0FC0
0FC0
ENDCHAR
STARTCHAR Ecaron
ENCODING 282
SWIDTH 994 0
DWIDTH 14 0
BBX 14 26 0 -6
BITMAP
0000
0000
3CF0
3CF0
0FC0
0FC0
0000
0000
FFF0
FFF0
F000
F000
F000
F000
FF00
FF00
F000
F000
F000
F000
FFF0
FFF0
0000
0000
0000
0000
ENDCHAR
STARTCHAR ecaron
ENCODING 283
SWIDTH 994 0
DWIDTH 14 0
BBX 14 26 0 -6
BITMAP
0000
0000
0000
0000
3CF0
3CF0
0FC0
0FC0
0000
0000
3FC0
3FC0
F0F0
F0F0
FFF0
FFF0
F000
F000
F0F0
F0F0
3FC0
3FC0
0000
0000
0000
0000
ENDCHAR
STARTCHAR Gcircumflex
ENCODING 284
SWIDTH 994 0
DWIDTH 14 0
BBX 14 26 0 -6
BITMAP
0000
0000
0FC0
0FC0
3CF0
3CF0
0000
0000
3FC0
3FC0
F0F0
F0F0
F000
F000
F3F0
F3F0
F0F0
F0F0
F0F0
F0F0
3FF0
3FF0
0000
0000
0000
0000
ENDCHAR
STARTCHAR gcircumflex
ENCODING 285
SWIDTH 994 0
DWIDTH 14 0
BBX 14 26 0 -6
BITMAP
0000
0000
0000
0000
3F00
3F00
F3C0
F3C0
0000
0000
3FF0
3FF0
F3C0
F3C0
F3C0
F3C0
3F00
3F00
F000
F000
3FC0
3FC0
F0F0
F0F0
3FC0
3FC0
ENDCHAR
STARTCHAR Gbreve
ENCODING 286
SWIDTH 994 0
DWIDTH 14 0
BBX 14 26 0 -6
BITMAP
0000
0000
F0F0
F0F0
3FC0
3FC0
0000
0000
3FC0
3FC0
F0F0
F0F0
F000
F000
F3F0
F3F0
F0F0
F0F0
F0F0
F0F0
3FF0
3FF0
0000
0000
0000
0000
ENDCHAR
STARTCHAR gbreve
ENCODING 287
SWIDTH 994 0
DWIDTH 14 0
BBX 14 26 0 -6
BITMAP
0000
0000
0000
0000
F0F0
F0F0
3FC0
3FC0
0000
0000
3FF0
3FF0
F3C0
F3C0
F3C0
F3C0
3F00
3F00
F000
F000
3FC0
3FC0
F0F0
F0F0
3FC0
3FC0
ENDCHAR
STARTCHAR Gdotaccent
ENCODING 288
SWIDTH 994 0
DWIDTH 14 0
BBX 14 26 0 -6
BITMAP
0000
0000
0F00
0F00
0F00
0F00
0000
0000
3FC0
3FC0
F0F0
F0F0
F000
F000
F3F0
F3F0
F0F0
F0F0
F0F0
F0F0
3FF0
3FF0
0000
0000
0000
0000
ENDCHAR
STARTCHAR gdotaccent
ENCODING 289
SWIDTH 994 0
DWIDTH 14 0
BBX 14 26 0 -6
BITMAP
0000
0000
0000
0000
0F00
0F00
0F00
0F00
0000
0000
3FF0
3FF0
F3C0
F3C0
F3C0
F3C0
3F00
3F00
F000
F000
3FC0
3FC0
F0F0
F0F0
3FC0
3FC0
ENDCHAR
STARTCHAR Gcommaaccent
ENCODING 290
SWIDTH 994 0
DWIDTH 14 0
BBX 14 26 0 -6
BITMAP
0000
0000
0000
0000
3FC0
3FC0
F0F0
F0F0
F000
F000
F000
F000
F000
F000
F3F0
F3F0
F0F0
F0F0
F0F0
F0F0
3FF0
3FF0
03C0
03C0
0F00
0F00
ENDCHAR
STARTCHAR gcommaaccent
ENCODING 291
SWIDTH 994 0
DWIDTH 14 0
BBX 14 26 0 -6
BITMAP
0000
0000
0300
0300
0C00
0C00
0F00
0F00
0000
0000
3FF0
3FF0
F3C0
F3C0
F3C0
F3C0
3F00
3F00
F000
F000
3FC0
3FC0
F0F0
F0F0
3FC0
3FC0
ENDCHAR
STARTCHAR Hcircumflex
ENCODING 292
SWIDTH 994 0
DWIDTH 14 0
BBX 14 26 0 -6
BITMAP
0000
0000
3FC0
3FC0
F0F0
F0F0
0000
0000
F0F0
F0F0
F0F0
F0F0
F0F0
F0F0
FFF0
FFF0
F0F0
F0F0
F0F0
F0F0
F0F0
F0F0
0000
0000
0000
0000
ENDCHAR
STARTCHAR hcircumflex
ENCODING 293
SWIDTH 994 0
DWIDTH 14 0
BBX 14 26 0 -6
BITMAP
0FC0
0FC0
3CF0
3CF0
0000
0000
F000
F000
F000
F000
FFC0
FFC0
F0F0
F0F0
F0F0
F0F0
F0F0
F0F0
F0F0
F0F0
F0F0
F0F0
0000
0000
0000
0000
ENDCHAR
STARTCHAR Hbar
ENCODING 294
SWIDTH 994 0
DWIDTH 14 0
BBX 14 26 0 -6
BITMAP
0000
0000
0000
0000
3CF0
3CF0
3CF0
3CF0
FFFC
FFFC
3CF0
3CF0
3FF0
3FF0
3CF0
3CF0
3CF0
3CF0
3CF0
3CF0
3CF0
3CF0
0000
0000
0000
0000
ENDCHAR
STARTCHAR hbar
ENCODING 295
SWIDTH 994 0
DWIDTH 14 0
BBX 14 26 0 -6
BITMAP
0000
0000
0000
0000
3C00
3C00
FFC0
FFC0
3C00
3C00
3FC0
3FC0
3CF0
3CF0
3CF0
3CF0
3CF0
3CF0
3CF0
3CF0
3CF0
3CF0
0000
0000
0000
0000
ENDCHAR
STARTCHAR Itilde
ENCODING 296
SWIDTH 994 0
DWIDTH 14 0
BBX 14 26 0 -6
BITMAP
0000
0000
0F30
0F30
33C0
33C0
0000
0000
FFF0
FFF0
0F00
0F00
0F00
0F00
0F00
0F00
0F00
0F00
0F00
0F00
FFF0
FFF0
0000
0000
0000
0000
ENDCHAR
STARTCHAR itilde
ENCODING 297
SWIDTH 994 0
DWIDTH 14 0
BBX 14 26 0 -6
BITMAP
0000
0000
0000
0000
0F30
0F30
33C0
33C0
0000
0000
3F00
3F00
0F00
0F00
0F00
0F00
0F00
0F00
0F00
0F00
FFF0
FFF0
0000
0000
0000
0000
ENDCHAR
STARTCHAR Imacron
ENCODING 298
SWIDTH 994 0
DWIDTH 14 0
BBX 14 26 0 -6
BITMAP
0000
0000
0000
0000
FFF0
FFF0
0000
0000
FFF0
FFF0
0F00
0F00
0F00
0F00
0F00
0F00
0F00
0F00
0F00
0F00
FFF0
FFF0
0000
0000
0000
0000
ENDCHAR
STARTCHAR imacron
ENCODING 299
SWIDTH 994 0
DWIDTH 14 0
BBX 14 26 0 -6
BITMAP
0000
0000
0000
0000
0000
0000
FFF0
FFF0
0000
0000
3F00
3F00
0F00
0F00
0F00
0F00
0F00
0F00
0F00
0F00
FFF0
FFF0
0000
0000
0000
0000
ENDCHAR
STARTCHAR Ibreve
ENCODING 300
SWIDTH 994 0
DWIDTH 14 0
BBX 14 26 0 -6
BITMAP
0000
0000
F0F0
F0F0
3FC0
3FC0
0000
0000
FFF0
FFF0
0F00
0F00
0F00
0F00
0F00
0F00
0F00
0F00
0F00
0F00
FFF0
FFF0
0000
0000
0000
0000
ENDCHAR
STARTCHAR ibreve
ENCODING 301
SWIDTH 994 0
DWIDTH 14 0
BBX 14 26 0 -6
BITMAP
0000
0000
0000
0000
F0F0
F0F0
3FC0
3FC0
0000
0000
3F00
3F00
0F00
0F00
0F00
0F00
0F00
0F00
0F00
0F00
FFF0
FFF0
0000
0000
0000
0000
ENDCHAR
STARTCHAR Iogonek
ENCODING 302
SWIDTH 994 0
DWIDTH 14 0
BBX 14 26 0 -6
BITMAP
0000
0000
0000
0000
FFF0
FFF0
0F00
0F00
0F00
0F00
0F00
0F00
0F00
0F00
0F00
0F00
0F00
0F00
0F00
0F00
FFF0
FFF0
0F00
0F00
03C0
03C0
ENDCHAR
STARTCHAR iogonek
ENCODING 303
SWIDTH 994 0
DWIDTH 14 0
BBX 14 26 0 -6
BITMAP
0000
0000
0000
0000
0F00
0F00
0F00
0F00
0000
0000
3F00
3F00
0F00
0F00
0F00
0F00
0F00
0F00
0F00
0F00
FFF0
FFF0
0F00
0F00
03C0
03C0
ENDCHAR
STARTCHAR Idotaccent
ENCODING 304
SWIDTH 994 0
DWIDTH 14 0
BBX 14 26 0 -6
BITMAP
0000
0000
0F00
0F00
0F00
0F00
0000
0000
FFF0
FFF0
0F00
0F00
0F00
0F00
0F00
0F00
0F00
0F00
0F00
0F00
FFF0
FFF0
0000
0000
0000
0000
ENDCHAR
STARTCHAR dotlessi
ENCODING 305
SWIDTH 994 0
DWIDTH 14 0
BBX 14 26 0 -6
BITMAP
0000
0000
0000
0000
0000
0000
0000
0000
0000
0000
3F00
3F00
0F00
0F00
0F00
0F00
0F00
0F00
0F00
0F00
FFF0
FFF0
0000
0000
0000
0000
ENDCHAR
STARTCHAR IJ
ENCODING 306
SWIDTH 994 0
DWIDTH 14 0
BBX 14 26 0 -6
BITMAP
0000
0000
0000
0000
F3FC
F3FC
F0F0
F0F0
F0F0
F0F0
F0F0
F0F0
F0F0
F0F0
F0F0
F0F0
F0F0
F0F0
FCF0
FCF0
F3C0
F3C0
0000
0000
0000
0000
ENDCHAR
STARTCHAR ij
ENCODING 307
SWIDTH 994 0
DWIDTH 14 0
BBX 14 26 0 -6
BITMAP
0000
0000
0000
0000
F03C
F03C
F03C
F03C
0000
0000
F0FC
F0FC
F03C
F03C
F03C
F03C
F03C
F03C
F03C
F03C
F33C
F33C
033C
033C
00F0
00F0
ENDCHAR
STARTCHAR Jcircumflex
ENCODING 308
SWIDTH 994 0
DWIDTH 14 0
BBX 14 26 0 -6
BITMAP
0000
0000
0FC0
0FC0
3CF0
3CF0
0000
0000
0FF0
0FF0
03C0
03C0
03C0
03C0
03C0
03C0
03C0
03C0
C3C0
C3C0
3F00
3F00
0000
0000
0000
0000
ENDCHAR
STARTCHAR jcircumflex
ENCODING 309
SWIDTH 994 0
DWIDTH 14 0
BBX 14 26 0 -6
BITMAP
0000
0000
0000
0000
0FC0
0FC0
3CF0
3CF0
0000
0000
0FC0
0FC0
03C0
03C0
03C0
03C0
03C0
03C0
03C0
03C0
F3C0
F3C0
F3C0
F3C0
3F00
3F00
ENDCHAR
STARTCHAR Kcommaaccent
ENCODING 310
SWIDTH 994 0
DWIDTH 14 0
BBX 14 26 0 -6
BITMAP
0000
0000
0000
0000
F03C
F03C
F0F0
F0F0
F3C0
F3C0
FF00
FF00
FC00
FC00
FF00
FF00
F3C0
F3C0
F0F0
F0F0
F03C
F03C
3C00
3C00
F000
F000
ENDCHAR
STARTCHAR kcommaaccent
ENCODING 311
SWIDTH 994 0
DWIDTH 14 0
BBX 14 26 0 -6
BITMAP
0000
0000
0000
0000
F000
F000
F000
F000
F000
F000
F0F0
F0F0
F3C0
F3C0
FF00
FF00
F3C0
F3C0
F0F0
F0F0
F03C
F03C
3C00
3C00
F000
F000
ENDCHAR
STARTCHAR kgreenlandic
ENCODING 312
SWIDTH 994 0
DWIDTH 14 0
BBX 14 26 0 -6
BITMAP
0000
0000
0000
0000
0000
0000
0000
0000
F03C
F03C
F0F0
F0F0
F3C0
F3C0
FF00
FF00
F3C0
F3C0
F0F0
F0F0
F03C
F03C
0000
0000
0000
0000
ENDCHAR
STARTCHAR Lacute
ENCODING 313
SWIDTH 994 0
DWIDTH 14 0
BBX 14 26 0 -6
BITMAP
0000
0000
3C00
3C00
F000
F000
0000
0000
F000
F000
F000
F000
F000
F000
F000
F000
F000
F000
F000
F000
FFF0
FFF0
0000
0000
0000
0000
ENDCHAR
STARTCHAR lacute
ENCODING 314
SWIDTH 994 0
DWIDTH 14 0
BBX 14 26 0 -6
BITMAP
0000
0000
03C0
03C0
0F00
0F00
0000
0000
3F00
3F00
0F00
0F00
0F00
0F00
0F00
0F00
0F00
0F00
0F00
0F00
FFF0
FFF0
0000
0000
0000
0000
ENDCHAR
STARTCHAR Lcommaaccent
ENCODING 315
SWIDTH 994 0
DWIDTH 14 0
BBX 14 26 0 -6
BITMAP
0000
0000
0000
0000
F000
F000
F000
F000
F000
F000
F000
F000
F000
F000
F000
F000
F000
F000
F000
F000
FFF0
FFF0
0F00
0F00
3C00
3C00
ENDCHAR
STARTCHAR lcommaaccent
ENCODING 316
SWIDTH 994 0
DWIDTH 14 0
BBX 14 26 0 -6
BITMAP
0000
0000
0000
0000
3F00
3F00
0F00
0F00
0F00
0F00
0F00
0F00
0F00
0F00
0F00
0F00
0F00
0F00
0F00
0F00
FFF0
FFF0
03C0
03C0
0F00
0F00
ENDCHAR
STARTCHAR Lcaron
ENCODING 317
SWIDTH 994 0
DWIDTH 14 0
BBX 14 26 0 -6
BITMAP
0000
0000
F3C0
F3C0
3F00
3F00
0000
0000
F000
F000
F000
F000
F000
F000
F000
F000
F000
F000
F000
F000
FFF0
FFF0
0000
0000
0000
0000
ENDCHAR
STARTCHAR lcaron
ENCODING 318
SWIDTH 994 0
DWIDTH 14 0
BBX 14 26 0 -6
BITMAP
0000
0000
3CF0
3CF0
0FC0
0FC0
0000
0000
3F00
3F00
0F00
0F00
0F00
0F00
0F00
0F00
0F00
0F00
0F00
0F00
FFF0
FFF0
0000
0000
0000
0000
ENDCHAR
STARTCHAR Ldot
ENCODING 319
SWIDTH 994 0
DWIDTH 14 0
BBX 14 26 0 -6
BITMAP
0000
0000
0000
0000
F000
F000
F000
F000
F000
F000
F3C0
F3C0
F3C0
F3C0
F000
F000
F000
F000
F000
F000
FFF0
FFF0
0000
0000
0000
0000
ENDCHAR
STARTCHAR ldot
ENCODING 320
SWIDTH 994 0
DWIDTH 14 0
BBX 14 26 0 -6
BITMAP
0000
0000
0000
0000
FC00
FC00
3C00
3C00
3C00
3C00
3CF0
3CF0
3CF0
3CF0
3C00
3C00
3C00
3C00
3C00
3C00
FFC0
FFC0
0000
0000
0000
0000
ENDCHAR
STARTCHAR Lslash
ENCODING 321
SWIDTH 994 0
DWIDTH 14 0
BBX 14 26 0 -6
BITMAP
0000
0000
0000
0000
3C00
3C00
3C00
3C00
3CC0
3CC0
3F00
3F00
FC00
FC00
3C00
3C00
3C00
3C00
3C00
3C00
3FF0
3FF0
0000
0000
0000
0000
ENDCHAR
STARTCHAR lslash
ENCODING 322
SWIDTH 994 0
DWIDTH 14 0
BBX 14 26 0 -6
BITMAP
0000
0000
0000
0000
FC00
FC00
3C00
3C00
3CC0
3CC0
3F00
3F00
FC00
FC00
3C00
3C00
3C00
3C00
3C00
3C00
FFC0
FFC0
0000
0000
0000
0000
ENDCHAR
STARTCHAR Nacute
ENCODING 323
SWIDTH 994 0
DWIDTH 14 0
BBX 14 26 0 -6
BITMAP
0000
0000
03C0
03C0
0F00
0F00
0000
0000
F0F0
F0F0
F0F0
F0F0
FCF0
FCF0
F3F0
F3F0
F0F0
F0F0
F0F0
F0F0
F0F0
F0F0
0000
0000
0000
0000
ENDCHAR
STARTCHAR nacute
ENCODING 324
SWIDTH 994 0
DWIDTH 14 0
BBX 14 26 0 -6
BITMAP
0000
0000
0000
0000
03C0
03C0
0F00
0F00
0000
0000
FFC0
FFC0
F0F0
F0F0
F0F0
F0F0
F0F0
F0F0
F0F0
F0F0
F0F0
F0F0
0000
0000
0000
0000
ENDCHAR
STARTCHAR Ncommaaccent
ENCODING 325
SWIDTH 994 0
DWIDTH 14 0
BBX 14 26 0 -6
BITMAP
0000
0000
0000
0000
F0F0
F0F0
F0F0
F0F0
F0F0
F0F0
FCF0
FCF0
F3F0
F3F0
F0F0
F0F0
F0F0
F0F0
F0F0
F0F0
F0F0
F0F0
3C00
3C00
F000
F000
ENDCHAR
STARTCHAR ncommaaccent
ENCODING 326
SWIDTH 994 0
DWIDTH 14 0
BBX 14 26 0 -6
BITMAP
0000
0000
0000
0000
0000
0000
0000
0000
0000
0000
FFC0
FFC0
F0F0
F0F0
F0F0
F0F0
F0F0
F0F0
F0F0
F0F0
F0F0
F0F0
3C00
3C00
F000
F000
ENDCHAR
STARTCHAR Ncaron
ENCODING 327
SWIDTH 994 0
DWIDTH 14 0
BBX 14 26 0 -6
BITMAP
0000
0000
F3C0
F3C0
3F00
3F00
0000
0000
F0F0
F0F0
F0F0
F0F0
FCF0
FCF0
FCF0
FCF0
F3F0
F3F0
F0F0
F0F0
F0F0
F0F0
0000
0000
0000
0000
ENDCHAR
STARTCHAR ncaron
ENCODING 328
SWIDTH 994 0
DWIDTH 14 0
BBX 14 26 0 -6
BITMAP
0000
0000
0000
0000
F3C0
F3C0
3F00
3F00
0000
0000
FFC0
FFC0
F0F0
F0F0
F0F0
F0F0
F0F0
F0F0
F0F0
F0F0
F0F0
F0F0
0000
0000
0000
0000
ENDCHAR
STARTCHAR napostrophe
ENCODING 329
SWIDTH 994 0
DWIDTH 14 0
BBX 14 26 0 -6
BITMAP
0000
0000
FC00
FC00
3C00
3C00
F000
F000
0000
0000
3FC0
3FC0
3CF0
3CF0
3CF0
3CF0
3CF0
3CF0
3CF0
3CF0
3CF0
3CF0
0000
0000
0000
0000
ENDCHAR
STARTCHAR Eng
ENCODING 330
SWIDTH 994 0
DWIDTH 14 0
BBX 14 26 0 -6
BITMAP
0000
0000
0000
0000
F0F0
F0F0
F0F0
F0F0
F0F0
F0F0
FCF0
FCF0
F3F0
F3F0
F0F0
F0F0
F0F0
F0F0
F0F0
F0F0
F0F0
F0F0
00F0
00F0
0FC0
0FC0
ENDCHAR
STARTCHAR eng
ENCODING 331
SWIDTH 994 0
DWIDTH 14 0
BBX 14 26 0 -6
BITMAP
0000
0000
0000
0000
0000
0000
0000
0000
0000
0000
FFC0
FFC0
F0F0
F0F0
F0F0
F0F0
F0F0
F0F0
F0F0
F0F0
F0F0
F0F0
00F0
00F0
03C0
03C0
ENDCHAR
STARTCHAR Omacron
ENCODING 332
SWIDTH 994 0
DWIDTH 14 0
BBX 14 26 0 -6
BITMAP
0000
0000
FFF0
FFF0
0000
0000
3FC0
3FC0
F0F0
F0F0
F0F0
F0F0
F0F0
F0F0
F0F0
F0F0
F0F0
F0F0
F0F0
F0F0
3FC0
3FC0
0000
0000
0000
0000
ENDCHAR
STARTCHAR omacron
ENCODING 333
SWIDTH 994 0
DWIDTH 14 0
BBX 14 26 0 -6
BITMAP
0000
0000
0000
0000
0000
0000
FFF0
FFF0
0000
0000
3FC0
3FC0
F0F0
F0F0
F0F0
F0F0
F0F0
F0F0
F0F0
F0F0
3FC0
3FC0
0000
0000
0000
0000
ENDCHAR
STARTCHAR Obreve
ENCODING 334
SWIDTH 994 0
DWIDTH 14 0
BBX 14 26 0 -6
BITMAP
0000
0000
F0F0
F0F0
3FC0
3FC0
0000
0000
3FC0
3FC0
F0F0
F0F0
F0F0
F0F0
F0F0
F0F0
F0F0
F0F0
F0F0
F0F0
3FC0
3FC0
0000
0000
0000
0000
ENDCHAR
STARTCHAR obreve
ENCODING 335
SWIDTH 994 0
DWIDTH 14 0
BBX 14 26 0 -6
BITMAP
0000
0000
0000
0000
F0F0
F0F0
3FC0
3FC0
0000
0000
3FC0
3FC0
F0F0
F0F0
F0F0
F0F0
F0F0
F0F0
F0F0
F0F0
3FC0
3FC0
0000
0000
0000
0000
ENDCHAR
STARTCHAR Ohungarumlaut
ENCODING 336
SWIDTH 994 0
DWIDTH 14 0
BBX 14 26 0 -6
BITMAP
0000
0000
3C3C
3C3C
F0F0
F0F0
0000
0000
3FC0
3FC0
F0F0
F0F0
F0F0
F0F0
F0F0
F0F0
F0F0
F0F0
F0F0
F0F0
3FC0
3FC0
0000
0000
0000
0000
ENDCHAR
STARTCHAR ohungarumlaut
ENCODING 337
SWIDTH 994 0
DWIDTH 14 0
BBX 14 26 0 -6
BITMAP
0000
0000
0000
0000
3C3C
3C3C
F0F0
F0F0
0000
0000
3FC0
3FC0
F0F0
F0F0
F0F0
F0F0
F0F0
F0F0
F0F0
F0F0
3FC0
3FC0
0000
0000
0000
0000
ENDCHAR
STARTCHAR OE
ENCODING 338
SWIDTH 994 0
DWIDTH 14 0
BBX 14 26 0 -6
BITMAP
0000
0000
0000
0000
3FF0
3FF0
F3C0
F3C0
F3C0
F3C0
F3C0
F3C0
F3F0
F3F0
F3C0
F3C0
F3C0
F3C0
F3C0
F3C0
3FF0
3FF0
0000
0000
0000
0000
ENDCHAR
STARTCHAR oe
ENCODING 339
SWIDTH 994 0
DWIDTH 14 0
BBX 14 26 0 -6
BITMAP
0000
0000
0000
0000
0000
0000
0000
0000
0000
0000
3CF0
3CF0
F3CC
F3CC
F3FC
F3FC
F3C0
F3C0
F3CC
F3CC
3CF0
3CF0
0000
0000
0000
0000
ENDCHAR
STARTCHAR Racute
ENCODING 340
SWIDTH 994 0
DWIDTH 14 0
BBX 14 26 0 -6
BITMAP
0000
0000
03C0
03C0
0F00
0F00
0000
0000
FFC0
FFC0
F0F0
F0F0
F0F0
F0F0
FFC0
FFC0
FF00
FF00
F3C0
F3C0
F0F0
F0F0
0000
0000
0000
0000
ENDCHAR
STARTCHAR racute
ENCODING 341
SWIDTH 994 0
DWIDTH 14 0
BBX 14 26 0 -6
BITMAP
0000
0000
0000
0000
03C0
03C0
0F00
0F00
0000
0000
FFC0
FFC0
3CF0
3CF0
3C00
3C00
3C00
3C00
3C00
3C00
3C00
3C00
0000
0000
0000
0000
ENDCHAR
STARTCHAR Rcommaaccent
ENCODING 342
SWIDTH 994 0
DWIDTH 14 0
BBX 14 26 0 -6
BITMAP
0000
0000
0000
0000
FFC0
FFC0
F0F0
F0F0
F0F0
F0F0
F0F0
F0F0
FFC0
FFC0
FF00
FF00
F3C0
F3C0
F0F0
F0F0
F03C
F03C
3C00
3C00
F000
F000
ENDCHAR
STARTCHAR rcommaaccent
ENCODING 343
SWIDTH 994 0
DWIDTH 14 0
BBX 14 26 0 -6
BITMAP
0000
0000
0000
0000
0000
0000
0000
0000
0000
0000
FFC0
FFC0
3CF0
3CF0
3C00
3C00
3C00
3C00
3C00
3C00
3C00
3C00
3C00
3C00
F000
F000
ENDCHAR
STARTCHAR Rcaron
ENCODING 344
SWIDTH 994 0
DWIDTH 14 0
BBX 14 26 0 -6
BITMAP
0000
0000
F3C0
F3C0
3F00
3F00
0000
0000
FFC0
FFC0
F0F0
F0F0
F0F0
F0F0
FFC0
FFC0
F3C0
F3C0
F0F0
F0F0
F03C
F03C
0000
0000
0000
0000
ENDCHAR
STARTCHAR rcaron
ENCODING 345
SWIDTH 994 0
DWIDTH 14 0
BBX 14 26 0 -6
BITMAP
0000
0000
0000
0000
3CF0
3CF0
0FC0
0FC0
0000
0000
CFC0
CFC0
3CF0
3CF0
3C00
3C00
3C00
3C00
3C00
3C00
3C00
3C00
0000
0000
0000
0000
ENDCHAR
STARTCHAR Sacute
ENCODING 346
SWIDTH 994 0
DWIDTH 14 0
BBX 14 26 0 -6
BITMAP
0000
0000
03C0
03C0
0F00
0F00
0000
0000
3FC0
3FC0
F0F0
F0F0
F000
F000
3FC0
3FC0
00F0
00F0
F0F0
F0F0
3FC0
3FC0
0000
0000
0000
0000
ENDCHAR
STARTCHAR sacute
ENCODING 347
SWIDTH 994 0
DWIDTH 14 0
BBX 14 26 0 -6
BITMAP
0000
0000
0000
0000
03C0
03C0
0F00
0F00
0000
0000
3FC0
3FC0
F0F0
F0F0
3C00
3C00
03C0
03C0
F0F0
F0F0
3FC0
3FC0
0000
0000
0000
0000
ENDCHAR
STARTCHAR Scircumflex
ENCODING 348
SWIDTH 994 0
DWIDTH 14 0
BBX 14 26 0 -6
BITMAP
0000
0000
0FC0
0FC0
3CF0
3CF0
0000
0000
3FC0
3FC0
F0F0
F0F0
F000
F000
3FC0
3FC0
00F0
00F0
F0F0
F0F0
3FC0
3FC0
0000
0000
0000
0000
ENDCHAR
STARTCHAR scircumflex
ENCODING 349
SWIDTH 994 0
DWIDTH 14 0
BBX 14 26 0 -6
BITMAP
0000
0000
0000
0000
0FC0
0FC0
3CF0
3CF0
0000
0000
3FC0
3FC0
F0F0
F0F0
3C00
3C00
03C0
03C0
F0F0
F0F0
3FC0
3FC0
0000
0000
0000
0000
ENDCHAR
STARTCHAR Scedilla
ENCODING 350
SWIDTH 994 0
DWIDTH 14 0
BBX 14 26 0 -6
BITMAP
0000
0000
0000
0000
3FC0
3FC0
F0F0
F0F0
F000
F000
F000
F000
3FC0
3FC0
00F0
00F0
00F0
00F0
F0F0
F0F0
3FC0
3FC0
03C0
03C0
0F00
0F00
ENDCHAR
STARTCHAR scedilla
ENCODING 351
SWIDTH 994 0
DWIDTH 14 0
BBX 14 26 0 -6
BITMAP
0000
0000
0000
0000
0000
0000
0000
0000
0000
0000
3FC0
3FC0
F0F0
F0F0
3C00
3C00
03C0
03C0
F0F0
F0F0
3FC0
3FC0
0F00
0F00
3C00
3C00
ENDCHAR
STARTCHAR Scaron
ENCODING 352
SWIDTH 994 0
DWIDTH 14 0
BBX 14 26 0 -6
BITMAP
0000
0000
3CF0
3CF0
0FC0
0FC0
0000
0000
3FC0
3FC0
F0F0
F0F0
F000
F000
3FC0
3FC0
00F0
00F0
F0F0
F0F0
3FC0
3FC0
0000
0000
0000
0000
ENDCHAR
STARTCHAR scaron
ENCODING 353
SWIDTH 994 0
DWIDTH 14 0
BBX 14 26 0 -6
BITMAP
0000
0000
0000
0000
3CF0
3CF0
0FC0
0FC0
0000
0000
3FC0
3FC0
F0F0
F0F0
3C00
3C00
03C0
03C0
F0F0
F0F0
3FC0
3FC0
0000
0000
0000
0000
ENDCHAR
STARTCHAR Tcommaaccent
ENCODING 354
SWIDTH 994 0
DWIDTH 14 0
BBX 14 26 0 -6
BITMAP
0000
0000
0000
0000
FFF0
FFF0
0F00
0F00
0F00
0F00
0F00
0F00
0F00
0F00
0F00
0F00
0F00
0F00
0F00
0F00
0F00
0F00
03C0
03C0
0F00
0F00
ENDCHAR
STARTCHAR tcommaaccent
ENCODING 355
SWIDTH 994 0
DWIDTH 14 0
BBX 14 26 0 -6
BITMAP
0000
0000
0000
0000
0000
0000
3C00
3C00
3C00
3C00
FF00
FF00
3C00
3C00
3C00
3C00
3C00
3C00
3CF0
3CF0
0FC0
0FC0
03C0
03C0
0F00
0F00
ENDCHAR
STARTCHAR Tcaron
ENCODING 356
SWIDTH 994 0
DWIDTH 14 0
BBX 14 26 0 -6
BITMAP
0000
0000
3CF0
3CF0
0FC0
0FC0
0000
0000
FFF0
FFF0
0F00
0F00
0F00
0F00
0F00
0F00
0F00
0F00
0F00
0F00
0F00
0F00
0000
0000
0000
0000
ENDCHAR
STARTCHAR tcaron
ENCODING 357
SWIDTH 994 0
DWIDTH 14 0
BBX 14 26 0 -6
BITMAP
0000
0000
3CF0
3CF0
0FC0
0FC0
0000
0000
3C00
3C00
FF00
FF00
3C00
3C00
3C00
3C00
3C00
3C00
3CF0
3CF0
0FC0
0FC0
0000
0000
0000
0000
ENDCHAR
STARTCHAR Tbar
ENCODING 358
SWIDTH 994 0
DWIDTH 14 0
BBX 14 26 0 -6
BITMAP
0000
0000
0000
0000
FFF0
FFF0
0F00
0F00
0F00
0F00
0F00
0F00
FFF0
FFF0
0F00
0F00
0F00
0F00
0F00
0F00
0F00
0F00
0000
0000
0000
0000
ENDCHAR
STARTCHAR tbar
ENCODING 359
SWIDTH 994 0
DWIDTH 14 0
BBX 14 26 0 -6
BITMAP
0000
0000
0000
0000
3C00
3C00
FFC0
FFC0
3C00
3C00
3C00
3C00
FFC0
FFC0
3C00
3C00
3C00
3C00
3CF0
3CF0
0FC0
0FC0
0000
0000
0000
0000
ENDCHAR
STARTCHAR Utilde
ENCODING 360
SWIDTH 994 0
DWIDTH 14 0
BBX 14 26 0 -6
BITMAP
0000
0000
0F30
0F30
33C0
33C0
0000
0000
F0F0
F0F0
F0F0
F0F0
F0F0
F0F0
F0F0
F0F0
F0F0
F0F0
F0F0
F0F0
3FC0
3FC0
0000
0000
0000
0000
ENDCHAR
STARTCHAR utilde
ENCODING 361
SWIDTH 994 0
DWIDTH 14 0
BBX 14 26 0 -6
BITMAP
0000
0000
0000
0000
0F30
0F30
33C0
33C0
0000
0000
F0F0
F0F0
F0F0
F0F0
F0F0
F0F0
F0F0
F0F0
F0F0
F0F0
3FF0
3FF0
0000
0000
0000
0000
ENDCHAR
STARTCHAR Umacron
ENCODING 362
SWIDTH 994 0
DWIDTH 14 0
BBX 14 26 0 -6
BITMAP
0000
0000
FFF0
FFF0
0000
0000
F0F0
F0F0
F0F0
F0F0
F0F0
F0F0
F0F0
F0F0
F0F0
F0F0
F0F0
F0F0
F0F0
F0F0
3FC0
3FC0
0000
0000
0000
0000
ENDCHAR
STARTCHAR umacron
ENCODING 363
SWIDTH 994 0
DWIDTH 14 0
BBX 14 26 0 -6
BITMAP
0000
0000
0000
0000
0000
0000
FFF0
FFF0
0000
0000
F0F0
F0F0
F0F0
F0F0
F0F0
F0F0
F0F0
F0F0
F0F0
F0F0
3FF0
3FF0
0000
0000
0000
0000
ENDCHAR
STARTCHAR Ubreve
ENCODING 364
SWIDTH 994 0
DWIDTH 14 0
BBX 14 26 0 -6
BITMAP
0000
0000
F0F0
F0F0
3FC0
3FC0
0000
0000
F0F0
F0F0
F0F0
F0F0
F0F0
F0F0
F0F0
F0F0
F0F0
F0F0
F0F0
F0F0
3FC0
3FC0
0000
0000
0000
0000
ENDCHAR
STARTCHAR ubreve
ENCODING 365
SWIDTH 994 0
DWIDTH 14 0
BBX 14 26 0 -6
BITMAP
0000
0000
0000
0000
F0F0
F0F0
3FC0
3FC0
0000
0000
F0F0
F0F0
F0F0
F0F0
F0F0
F0F0
F0F0
F0F0
F0F0
F0F0
3FF0
3FF0
0000
0000
0000
0000
ENDCHAR
STARTCHAR Uring
ENCODING 366
SWIDTH 994 0
DWIDTH 14 0
BBX 14 26 0 -6
BITMAP
0000
0000
3FC0
3FC0
F0F0
F0F0
3FC0
3FC0
F0F0
F0F0
F0F0
F0F0
F0F0
F0F0
F0F0
F0F0
F0F0
F0F0
F0F0
F0F0
3FC0
3FC0
0000
0000
0000
0000
ENDCHAR
STARTCHAR uring
ENCODING 367
SWIDTH 994 0
DWIDTH 14 0
BBX 14 26 0 -6
BITMAP
0000
0000
3FC0
3FC0
F0F0
F0F0
3FC0
3FC0
0000
0000
F0F0
F0F0
F0F0
F0F0
F0F0
F0F0
F0F0
F0F0
F0F0
F0F0
3FF0
3FF0
0000
0000
0000
0000
ENDCHAR
STARTCHAR Uhungarumlaut
ENCODING 368
SWIDTH 994 0
DWIDTH 14 0
BBX 14 26 0 -6
BITMAP
0000
0000
3C3C
3C3C
F0F0
F0F0
0000
0000
F0F0
F0F0
F0F0
F0F0
F0F0
F0F0
F0F0
F0F0
F0F0
F0F0
F0F0
F0F0
3FC0
3FC0
0000
0000
0000
0000
ENDCHAR
STARTCHAR uhungarumlaut
ENCODING 369
SWIDTH 994 0
DWIDTH 14 0
BBX 14 26 0 -6
BITMAP
0000
0000
0000
0000
3C3C
3C3C
F0F0
F0F0
0000
0000
F0F0
F0F0
F0F0
F0F0
F0F0
F0F0
F0F0
F0F0
F0F0
F0F0
3FF0
3FF0
0000
0000
0000
0000
ENDCHAR
STARTCHAR Uogonek
ENCODING 370
SWIDTH 994 0
DWIDTH 14 0
BBX 14 26 0 -6
BITMAP
0000
0000
0000
0000
F0F0
F0F0
F0F0
F0F0
F0F0
F0F0
F0F0
F0F0
F0F0
F0F0
F0F0
F0F0
F0F0
F0F0
F0F0
F0F0
3FC0
3FC0
0F00
0F00
03C0
03C0
ENDCHAR
STARTCHAR uogonek
ENCODING 371
SWIDTH 994 0
DWIDTH 14 0
BBX 14 26 0 -6
BITMAP
0000
0000
0000
0000
0000
0000
0000
0000
0000
0000
F0F0
F0F0
F0F0
F0F0
F0F0
F0F0
F0F0
F0F0
F0F0
F0F0
3FF0
3FF0
0F00
0F00
03C0
03C0
ENDCHAR
STARTCHAR Wcircumflex
ENCODING 372
SWIDTH 994 0
DWIDTH 14 0
BBX 14 26 0 -6
BITMAP
0000
0000
0FC0
0FC0
3CF0
3CF0
0000
0000
F03C
F03C
F03C
F03C
F03C
F03C
F03C
F03C
F33C
F33C
F33C
F33C
FCFC
FCFC
0000
0000
0000
0000
ENDCHAR
STARTCHAR wcircumflex
ENCODING 373
SWIDTH 994 0
DWIDTH 14 0
BBX 14 26 0 -6
BITMAP
0000
0000
0000
0000
0FC0
0FC0
3CF0
3CF0
0000
0000
F03C
F03C
F03C
F03C
F33C
F33C
F33C
F33C
F33C
F33C
3CF0
3CF0
0000
0000
0000
0000
ENDCHAR
STARTCHAR Ycircumflex
ENCODING 374
SWIDTH 994 0
DWIDTH 14 0
BBX 14 26 0 -6
BITMAP
0000
0000
0FC0
0FC0
3CF0
3CF0
0000
0000
F0F0
F0F0
F0F0
F0F0
30C0
30C0
0F00
0F00
0F00
0F00
0F00
0F00
0F00
0F00
0000
0000
0000
0000
ENDCHAR
STARTCHAR ycircumflex
ENCODING 375
SWIDTH 994 0
DWIDTH 14 0
BBX 14 26 0 -6
BITMAP
0000
0000
0000
0000
0FC0
0FC0
3CF0
3CF0
0000
0000
F0F0
F0F0
F0F0
F0F0
F0F0
F0F0
F0F0
F0F0
3FF0
3FF0
00F0
00F0
F0F0
F0F0
3FC0
3FC0
ENDCHAR
STARTCHAR Ydieresis
ENCODING 376
SWIDTH 994 0
DWIDTH 14 0
BBX 14 26 0 -6
BITMAP
0000
0000
F0F0
F0F0
F0F0
F0F0
0000
0000
F0F0
F0F0
F0F0
F0F0
3FC0
3FC0
0F00
0F00
0F00
0F00
0F00
0F00
0F00
0F00
0000
0000
0000
0000
ENDCHAR
STARTCHAR Zacute
ENCODING 377
SWIDTH 994 0
DWIDTH 14 0
BBX 14 26 0 -6
BITMAP
0000
0000
03C0
03C0
0F00
0F00
0000
0000
FFF0
FFF0
00F0
00F0
03C0
03C0
0F00
0F00
3C00
3C00
F000
F000
FFF0
FFF0
0000
0000
0000
0000
ENDCHAR
STARTCHAR zacute
ENCODING 378
SWIDTH 994 0
DWIDTH 14 0
BBX 14 26 0 -6
BITMAP
0000
0000
0000
0000
03C0
03C0
0F00
0F00
0000
0000
FFF0
FFF0
00F0
00F0
03C0
03C0
0F00
0F00
3C00
3C00
FFF0
FFF0
0000
0000
0000
0000
ENDCHAR
STARTCHAR Zdotaccent
ENCODING 379
SWIDTH 994 0
DWIDTH 14 0
BBX 14 26 0 -6
BITMAP
0000
0000
0F00
0F00
0F00
0F00
0000
0000
FFF0
FFF0
00F0
00F0
03C0
03C0
0F00
0F00
3C00
3C00
F000
F000
FFF0
FFF0
0000
0000
0000
0000
ENDCHAR
STARTCHAR zdotaccent
ENCODING 380
SWIDTH 994 0
DWIDTH 14 0
BBX 14 26 0 -6
BITMAP
0000
0000
0000
0000
0F00
0F00
0F00
0F00
0000
0000
FFF0
FFF0
00F0
00F0
03C0
03C0
0F00
0F00
3C00
3C00
FFF0
FFF0
0000
0000
0000
0000
ENDCHAR
STARTCHAR Zcaron
ENCODING 381
SWIDTH 994 0
DWIDTH 14 0
BBX 14 26 0 -6
BITMAP
0000
0000
3CF0
3CF0
0FC0
0FC0
0000
0000
FFF0
FFF0
00F0
00F0
03C0
03C0
0F00
0F00
3C00
3C00
F000
F000
FFF0
FFF0
0000
0000
0000
0000
ENDCHAR
STARTCHAR zcaron
ENCODING 382
SWIDTH 994 0
DWIDTH 14 0
BBX 14 26 0 -6
BITMAP
0000
0000
0000
0000
3CF0
3CF0
0FC0
0FC0
0000
0000
FFF0
FFF0
00F0
00F0
03C0
03C0
0F00
0F00
3C00
3C00
FFF0
FFF0
0000
0000
0000
0000
ENDCHAR
STARTCHAR longs
ENCODING 383
SWIDTH 994 0
DWIDTH 14 0
BBX 14 26 0 -6
BITMAP
0000
0000
0000
0000
0FC0
0FC0
3CF0
3CF0
3C00
3C00
FC00
FC00
3C00
3C00
3C00
3C00
3C00
3C00
3C00
3C00
3C00
3C00
0000
0000
0000
0000
ENDCHAR
STARTCHAR uni018F
ENCODING 399
SWIDTH 994 0
DWIDTH 14 0
BBX 14 26 0 -6
BITMAP
0000
0000
0000
0000
3FC0
3FC0
F0F0
F0F0
00F0
00F0
00F0
00F0
FFF0
FFF0
F0F0
F0F0
F0F0
F0F0
F0F0
F0F0
3FC0
3FC0
0000
0000
0000
0000
ENDCHAR
STARTCHAR florin
ENCODING 402
SWIDTH 994 0
DWIDTH 14 0
BBX 14 26 0 -6
BITMAP
0000
0000
0000
0000
03F0
03F0
0F3C
0F3C
0F00
0F00
0F00
0F00
3FC0
3FC0
0F00
0F00
0F00
0F00
0F00
0F00
CF00
CF00
3C00
3C00
0000
0000
ENDCHAR
STARTCHAR Ohorn
ENCODING 416
SWIDTH 994 0
DWIDTH 14 0
BBX 14 26 0 -6
BITMAP
0000
0000
0000
0000
3FCC
3FCC
F0FC
F0FC
F0FC
F0FC
F0F0
F0F0
F0F0
F0F0
F0F0
F0F0
F0F0
F0F0
F0F0
F0F0
3FC0
3FC0
0000
0000
0000
0000
ENDCHAR
STARTCHAR ohorn
ENCODING 417
SWIDTH 994 0
DWIDTH 14 0
BBX 14 26 0 -6
BITMAP
0000
0000
0000
0000
0000
0000
0000
0000
0000
0000
3FCC
3FCC
F0FC
F0FC
F0FC
F0FC
F0F0
F0F0
F0F0
F0F0
3FC0
3FC0
0000
0000
0000
0000
ENDCHAR
STARTCHAR Uhorn
ENCODING 431
SWIDTH 994 0
DWIDTH 14 0
BBX 14 26 0 -6
BITMAP
0000
0000
0000
0000
F3CC
F3CC
F3CC
F3CC
F3F0
F3F0
F3C0
F3C0
F3C0
F3C0
F3C0
F3C0
F3C0
F3C0
F3C0
F3C0
3F00
3F00
0000
0000
0000
0000
ENDCHAR
STARTCHAR uhorn
ENCODING 432
SWIDTH 994 0
DWIDTH 14 0
BBX 14 26 0 -6
BITMAP
0000
0000
0000
0000
0000
0000
0000
0000
0000
0000
F3CC
F3CC
F3CC
F3CC
F3F0
F3F0
F3C0
F3C0
F3C0
F3C0
3FC0
3FC0
0000
0000
0000
0000
ENDCHAR
STARTCHAR Scommaaccent
ENCODING 536
SWIDTH 994 0
DWIDTH 14 0
BBX 14 26 0 -6
BITMAP
0000
0000
0000
0000
3FC0
3FC0
F0F0
F0F0
F000
F000
F000
F000
3FC0
3FC0
00F0
00F0
00F0
00F0
F0F0
F0F0
3FC0
3FC0
0F00
0F00
3C00
3C00
ENDCHAR
STARTCHAR scommaaccent
ENCODING 537
SWIDTH 994 0
DWIDTH 14 0
BBX 14 26 0 -6
BITMAP
0000
0000
0000
0000
0000
0000
0000
0000
0000
0000
3FC0
3FC0
F0F0
F0F0
3C00
3C00
03C0
03C0
F0F0
F0F0
3FC0
3FC0
0F00
0F00
3C00
3C00
ENDCHAR
STARTCHAR Tcommaaccent
ENCODING 538
SWIDTH 994 0
DWIDTH 14 0
BBX 14 26 0 -6
BITMAP
0000
0000
0000
0000
FFF0
FFF0
0F00
0F00
0F00
0F00
0F00
0F00
0F00
0F00
0F00
0F00
0F00
0F00
0F00
0F00
0F00
0F00
03C0
03C0
0F00
0F00
ENDCHAR
STARTCHAR tcommaaccent
ENCODING 539
SWIDTH 994 0
DWIDTH 14 0
BBX 14 26 0 -6
BITMAP
0000
0000
0000
0000
0000
0000
3C00
3C00
3C00
3C00
FF00
FF00
3C00
3C00
3C00
3C00
3C00
3C00
3CF0
3CF0
0FC0
0FC0
0F00
0F00
3C00
3C00
ENDCHAR
STARTCHAR uni0259
ENCODING 601
SWIDTH 994 0
DWIDTH 14 0
BBX 14 26 0 -6
BITMAP
0000
0000
0000
0000
0000
0000
0000
0000
0000
0000
3FC0
3FC0
F0F0
F0F0
00F0
00F0
FFF0
FFF0
F0F0
F0F0
3FC0
3FC0
0000
0000
0000
0000
ENDCHAR
STARTCHAR afii57929
ENCODING 700
SWIDTH 994 0
DWIDTH 14 0
BBX 14 26 0 -6
BITMAP
0000
0000
0000
0000
0FC0
0FC0
03C0
03C0
0F00
0F00
0000
0000
0000
0000
0000
0000
0000
0000
0000
0000
0000
0000
0000
0000
0000
0000
ENDCHAR
STARTCHAR afii64937
ENCODING 701
SWIDTH 994 0
DWIDTH 14 0
BBX 14 26 0 -6
BITMAP
0000
0000
0000
0000
0FC0
0FC0
0F00
0F00
03C0
03C0
0000
0000
0000
0000
0000
0000
0000
0000
0000
0000
0000
0000
0000
0000
0000
0000
ENDCHAR
STARTCHAR circumflex
ENCODING 710
SWIDTH 994 0
DWIDTH 14 0
BBX 14 26 0 -6
BITMAP
0000
0000
0FC0
0FC0
3CF0
3CF0
0000
0000
0000
0000
0000
0000
0000
0000
0000
0000
0000
0000
0000
0000
0000
0000
0000
0000
0000
0000
ENDCHAR
STARTCHAR caron
ENCODING 711
SWIDTH 994 0
DWIDTH 14 0
BBX 14 26 0 -6
BITMAP
0000
0000
3CF0
3CF0
0FC0
0FC0
0000
0000
0000
0000
0000
0000
0000
0000
0000
0000
0000
0000
0000
0000
0000
0000
0000
0000
0000
0000
ENDCHAR
STARTCHAR breve
ENCODING 728
SWIDTH 994 0
DWIDTH 14 0
BBX 14 26 0 -6
BITMAP
F0F0
F0F0
3FC0
3FC0
0000
0000
0000
0000
0000
0000
0000
0000
0000
0000
0000
0000
0000
0000
0000
0000
0000
0000
0000
0000
0000
0000
ENDCHAR
STARTCHAR dotaccent
ENCODING 729
SWIDTH 994 0
DWIDTH 14 0
BBX 14 26 0 -6
BITMAP
0F00
0F00
0000
0000
0000
0000
0000
0000
0000
0000
0000
0000
0000
0000
0000
0000
0000
0000
0000
0000
0000
0000
0000
0000
0000
0000
ENDCHAR
STARTCHAR ring
ENCODING 730
SWIDTH 994 0
DWIDTH 14 0
BBX 14 26 0 -6
BITMAP
0FC0
0FC0
3CF0
3CF0
0FC0
0FC0
0000
0000
0000
0000
0000
0000
0000
0000
0000
0000
0000
0000
0000
0000
0000
0000
0000
0000
0000
0000
ENDCHAR
STARTCHAR ogonek
ENCODING 731
SWIDTH 994 0
DWIDTH 14 0
BBX 14 26 0 -6
BITMAP
0000
0000
0000
0000
0000
0000
0000
0000
0000
0000
0000
0000
0000
0000
0000
0000
0000
0000
0000
0000
0000
0000
0F00
0F00
0FC0
0FC0
ENDCHAR
STARTCHAR tilde
ENCODING 732
SWIDTH 994 0
DWIDTH 14 0
BBX 14 26 0 -6
BITMAP
0000
0000
0F30
0F30
33C0
33C0
0000
0000
0000
0000
0000
0000
0000
0000
0000
0000
0000
0000
0000
0000
0000
0000
0000
0000
0000
0000
ENDCHAR
STARTCHAR hungarumlaut
ENCODING 733
SWIDTH 994 0
DWIDTH 14 0
BBX 14 26 0 -6
BITMAP
3C3C
3C3C
F0F0
F0F0
0000
0000
0000
0000
0000
0000
0000
0000
0000
0000
0000
0000
0000
0000
0000
0000
0000
0000
0000
0000
0000
0000
ENDCHAR
STARTCHAR gravecomb
ENCODING 768
SWIDTH 994 0
DWIDTH 14 0
BBX 14 26 0 -6
BITMAP
3C00
3C00
0F00
0F00
0000
0000
0000
0000
0000
0000
0000
0000
0000
0000
0000
0000
0000
0000
0000
0000
0000
0000
0000
0000
0000
0000
ENDCHAR
STARTCHAR acutecomb
ENCODING 769
SWIDTH 994 0
DWIDTH 14 0
BBX 14 26 0 -6
BITMAP
03C0
03C0
0F00
0F00
0000
0000
0000
0000
0000
0000
0000
0000
0000
0000
0000
0000
0000
0000
0000
0000
0000
0000
0000
0000
0000
0000
ENDCHAR
STARTCHAR uni0302
ENCODING 770
SWIDTH 994 0
DWIDTH 14 0
BBX 14 26 0 -6
BITMAP
0FC0
0FC0
3CF0
3CF0
0000
0000
0000
0000
0000
0000
0000
0000
0000
0000
0000
0000
0000
0000
0000
0000
0000
0000
0000
0000
0000
0000
ENDCHAR
STARTCHAR tildecomb
ENCODING 771
SWIDTH 994 0
DWIDTH 14 0
BBX 14 26 0 -6
BITMAP
0F30
0F30
33C0
33C0
0000
0000
0000
0000
0000
0000
0000
0000
0000
0000
0000
0000
0000
0000
0000
0000
0000
0000
0000
0000
0000
0000
ENDCHAR
STARTCHAR uni0304
ENCODING 772
SWIDTH 994 0
DWIDTH 14 0
BBX 14 26 0 -6
BITMAP
3FF0
3FF0
0000
0000
0000
0000
0000
0000
0000
0000
0000
0000
0000
0000
0000
0000
0000
0000
0000
0000
0000
0000
0000
0000
0000
0000
ENDCHAR
STARTCHAR uni0305
ENCODING 773
SWIDTH 994 0
DWIDTH 14 0
BBX 14 26 0 -6
BITMAP
FFFC
FFFC
0000
0000
0000
0000
0000
0000
0000
0000
0000
0000
0000
0000
0000
0000
0000
0000
0000
0000
0000
0000
0000
0000
0000
0000
ENDCHAR
STARTCHAR uni0306
ENCODING 774
SWIDTH 994 0
DWIDTH 14 0
BBX 14 26 0 -6
BITMAP
F0F0
F0F0
3FC0
3FC0
0000
0000
0000
0000
0000
0000
0000
0000
0000
0000
0000
0000
0000
0000
0000
0000
0000
0000
0000
0000
0000
0000
ENDCHAR
STARTCHAR uni0307
ENCODING 775
SWIDTH 994 0
DWIDTH 14 0
BBX 14 26 0 -6
BITMAP
0F00
0F00
0F00
0F00
0000
0000
0000
0000
0000
0000
0000
0000
0000
0000
0000
0000
0000
0000
0000
0000
0000
0000
0000
0000
0000
0000
ENDCHAR
STARTCHAR uni0308
ENCODING 776
SWIDTH 994 0
DWIDTH 14 0
BBX 14 26 0 -6
BITMAP
F0F0
F0F0
F0F0
F0F0
0000
0000
0000
0000
0000
0000
0000
0000
0000
0000
0000
0000
0000
0000
0000
0000
0000
0000
0000
0000
0000
0000
ENDCHAR
STARTCHAR hookabovecomb
ENCODING 777
SWIDTH 994 0
DWIDTH 14 0
BBX 14 26 0 -6
BITMAP
3F00
3F00
03C0
03C0
0F00
0F00
0000
0000
0000
0000
0000
0000
0000
0000
0000
0000
0000
0000
0000
0000
0000
0000
0000
0000
0000
0000
ENDCHAR
STARTCHAR uni030A
ENCODING 778
SWIDTH 994 0
DWIDTH 14 0
BBX 14 26 0 -6
BITMAP
3FC0
3FC0
30C0
30C0
3FC0
3FC0
0000
0000
0000
0000
0000
0000
0000
0000
0000
0000
0000
0000
0000
0000
0000
0000
0000
0000
0000
0000
ENDCHAR
STARTCHAR uni030B
ENCODING 779
SWIDTH 994 0
DWIDTH 14 0
BBX 14 26 0 -6
BITMAP
3C3C
3C3C
F0F0
F0F0
0000
0000
0000
0000
0000
0000
0000
0000
0000
0000
0000
0000
0000
0000
0000
0000
0000
0000
0000
0000
0000
0000
ENDCHAR
STARTCHAR uni030C
ENCODING 780
SWIDTH 994 0
DWIDTH 14 0
BBX 14 26 0 -6
BITMAP
3CF0
3CF0
0FC0
0FC0
0000
0000
0000
0000
0000
0000
0000
0000
0000
0000
0000
0000
0000
0000
0000
0000
0000
0000
0000
0000
0000
0000
ENDCHAR
STARTCHAR uni030D
ENCODING 781
SWIDTH 994 0
DWIDTH 14 0
BBX 14 26 0 -6
BITMAP
0F00
0F00
0F00
0F00
0F00
0F00
0F00
0F00
0000
0000
0000
0000
0000
0000
0000
0000
0000
0000
0000
0000
0000
0000
0000
0000
0000
0000
ENDCHAR
STARTCHAR uni030E
ENCODING 782
SWIDTH 994 0
DWIDTH 14 0
BBX 14 26 0 -6
BITMAP
F0F0
F0F0
F0F0
F0F0
F0F0
F0F0
F0F0
F0F0
0000
0000
0000
0000
0000
0000
0000
0000
0000
0000
0000
0000
0000
0000
0000
0000
0000
0000
ENDCHAR
STARTCHAR uni030F
ENCODING 783
SWIDTH 994 0
DWIDTH 14 0
BBX 14 26 0 -6
BITMAP
F0F0
F0F0
3C3C
3C3C
0000
0000
0000
0000
0000
0000
0000
0000
0000
0000
0000
0000
0000
0000
0000
0000
0000
0000
0000
0000
0000
0000
ENDCHAR
STARTCHAR uni0310
ENCODING 784
SWIDTH 994 0
DWIDTH 14 0
BBX 14 26 0 -6
BITMAP
0300
0300
3030
3030
0FC0
0FC0
0000
0000
0000
0000
0000
0000
0000
0000
0000
0000
0000
0000
0000
0000
0000
0000
0000
0000
0000
0000
ENDCHAR
STARTCHAR uni0311
ENCODING 785
SWIDTH 994 0
DWIDTH 14 0
BBX 14 26 0 -6
BITMAP
3FC0
3FC0
F0F0
F0F0
0000
0000
0000
0000
0000
0000
0000
0000
0000
0000
0000
0000
0000
0000
0000
0000
0000
0000
0000
0000
0000
0000
ENDCHAR
STARTCHAR dotbelowcomb
ENCODING 803
SWIDTH 994 0
DWIDTH 14 0
BBX 14 26 0 -6
BITMAP
0F00
0F00
0F00
0F00
0000
0000
0000
0000
0000
0000
0000
0000
0000
0000
0000
0000
0000
0000
0000
0000
0000
0000
0000
0000
0000
0000
ENDCHAR
STARTCHAR uni0324
ENCODING 804
SWIDTH 994 0
DWIDTH 14 0
BBX 14 26 0 -6
BITMAP
F0F0
F0F0
F0F0
F0F0
0000
0000
0000
0000
0000
0000
0000
0000
0000
0000
0000
0000
0000
0000
0000
0000
0000
0000
0000
0000
0000
0000
ENDCHAR
STARTCHAR uni0340
ENCODING 832
SWIDTH 994 0
DWIDTH 14 0
BBX 14 26 0 -6
BITMAP
3C00
3C00
0F00
0F00
0000
0000
0000
0000
0000
0000
0000
0000
0000
0000
0000
0000
0000
0000
0000
0000
0000
0000
0000
0000
0000
0000
ENDCHAR
STARTCHAR uni0341
ENCODING 833
SWIDTH 994 0
DWIDTH 14 0
BBX 14 26 0 -6
BITMAP
03C0
03C0
0F00
0F00
0000
0000
0000
0000
0000
0000
0000
0000
0000
0000
0000
0000
0000
0000
0000
0000
0000
0000
0000
0000
0000
0000
ENDCHAR
STARTCHAR uni0374
ENCODING 884
SWIDTH 994 0
DWIDTH 14 0
BBX 14 26 0 -6
BITMAP
0000
0000
0000
0000
03C0
03C0
0F00
0F00
0000
0000
0000
0000
0000
0000
0000
0000
0000
0000
0000
0000
0000
0000
0000
0000
0000
0000
ENDCHAR
STARTCHAR uni0375
ENCODING 885
SWIDTH 994 0
DWIDTH 14 0
BBX 14 26 0 -6
BITMAP
0000
0000
0000
0000
0000
0000
0000
0000
0000
0000
0000
0000
0000
0000
0000
0000
0000
0000
0000
0000
0000
0000
03C0
03C0
0F00
0F00
ENDCHAR
STARTCHAR uni037A
ENCODING 890
SWIDTH 994 0
DWIDTH 14 0
BBX 14 26 0 -6
BITMAP
0000
0000
0000
0000
0000
0000
0000
0000
0000
0000
0000
0000
0000
0000
0000
0000
0000
0000
0000
0000
0000
0000
0F00
0F00
0FC0
0FC0
ENDCHAR
STARTCHAR uni037E
ENCODING 894
SWIDTH 994 0
DWIDTH 14 0
BBX 14 26 0 -6
BITMAP
0000
0000
0000
0000
0000
0000
0000
0000
0F00
0F00
3FC0
3FC0
0F00
0F00
0000
0000
0FC0
0FC0
0FC0
0FC0
0F00
0F00
3C00
3C00
0000
0000
ENDCHAR
STARTCHAR tonos
ENCODING 900
SWIDTH 994 0
DWIDTH 14 0
BBX 14 26 0 -6
BITMAP
0000
0000
0000
0000
03C0
03C0
0F00
0F00
0000
0000
0000
0000
0000
0000
0000
0000
0000
0000
0000
0000
0000
0000
0000
0000
0000
0000
ENDCHAR
STARTCHAR dieresistonos
ENCODING 901
SWIDTH 994 0
DWIDTH 14 0
BBX 14 26 0 -6
BITMAP
0000
0000
03C0
03C0
CF30
CF30
C030
C030
0000
0000
0000
0000
0000
0000
0000
0000
0000
0000
0000
0000
0000
0000
0000
0000
0000
0000
ENDCHAR
STARTCHAR Alphatonos
ENCODING 902
SWIDTH 994 0
DWIDTH 14 0
BBX 14 26 0 -6
BITMAP
0000
0000
0000
0000
CFC0
CFC0
FCF0
FCF0
3CF0
3CF0
3CF0
3CF0
3FF0
3FF0
3CF0
3CF0
3CF0
3CF0
3CF0
3CF0
3CF0
3CF0
0000
0000
0000
0000
ENDCHAR
STARTCHAR anoteleia
ENCODING 903
SWIDTH 994 0
DWIDTH 14 0
BBX 14 26 0 -6
BITMAP
0000
0000
0000
0000
0000
0000
0000
0000
0000
0000
0F00
0F00
0F00
0F00
0000
0000
0000
0000
0000
0000
0000
0000
0000
0000
0000
0000
ENDCHAR
STARTCHAR Epsilontonos
ENCODING 904
SWIDTH 994 0
DWIDTH 14 0
BBX 14 26 0 -6
BITMAP
0000
0000
0000
0000
FFF0
FFF0
FC00
FC00
3C00
3C00
3C00
3C00
3FC0
3FC0
3C00
3C00
3C00
3C00
3C00
3C00
3FF0
3FF0
0000
0000
0000
0000
ENDCHAR
STARTCHAR Etatonos
ENCODING 905
SWIDTH 994 0
DWIDTH 14 0
BBX 14 26 0 -6
BITMAP
0000
0000
0000
0000
FCF0
FCF0
FCF0
FCF0
3CF0
3CF0
3CF0
3CF0
3FF0
3FF0
3CF0
3CF0
3CF0
3CF0
3CF0
3CF0
3CF0
3CF0
0000
0000
0000
0000
ENDCHAR
STARTCHAR Iotatonos
ENCODING 906
SWIDTH 994 0
DWIDTH 14 0
BBX 14 26 0 -6
BITMAP
0000
0000
0000
0000
CFF0
CFF0
C3C0
C3C0
03C0
03C0
03C0
03C0
03C0
03C0
03C0
03C0
03C0
03C0
03C0
03C0
0FF0
0FF0
0000
0000
0000
0000
ENDCHAR
STARTCHAR Omicrontonos
ENCODING 908
SWIDTH 994 0
DWIDTH 14 0
BBX 14 26 0 -6
BITMAP
0000
0000
0000
0000
CFC0
CFC0
FCF0
FCF0
3CF0
3CF0
3CF0
3CF0
3CF0
3CF0
3CF0
3CF0
3CF0
3CF0
3CF0
3CF0
0FC0
0FC0
0000
0000
0000
0000
ENDCHAR
STARTCHAR Upsilontonos
ENCODING 910
SWIDTH 994 0
DWIDTH 14 0
BBX 14 26 0 -6
BITMAP
0000
0000
0000
0000
CC30
CC30
CC30
CC30
0FF0
0FF0
0FF0
0FF0
03C0
03C0
03C0
03C0
03C0
03C0
03C0
03C0
03C0
03C0
0000
0000
0000
0000
ENDCHAR
STARTCHAR Omegatonos
ENCODING 911
SWIDTH 994 0
DWIDTH 14 0
BBX 14 26 0 -6
BITMAP
0000
0000
0000
0000
CFC0
CFC0
FCF0
FCF0
3CF0
3CF0
3CF0
3CF0
3CF0
3CF0
3CF0
3CF0
0CC0
0CC0
0CC0
0CC0
3CF0
3CF0
0000
0000
0000
0000
ENDCHAR
STARTCHAR iotadieresistonos
ENCODING 912
SWIDTH 994 0
DWIDTH 14 0
BBX 14 26 0 -6
BITMAP
0000
0000
03C0
03C0
CF30
CF30
C030
C030
0000
0000
0F00
0F00
0F00
0F00
0F00
0F00
0F00
0F00
0FF0
0FF0
03C0
03C0
0000
0000
0000
0000
ENDCHAR
STARTCHAR Alpha
ENCODING 913
SWIDTH 994 0
DWIDTH 14 0
BBX 14 26 0 -6
BITMAP
0000
0000
0000
0000
3FC0
3FC0
F0F0
F0F0
F0F0
F0F0
F0F0
F0F0
FFF0
FFF0
F0F0
F0F0
F0F0
F0F0
F0F0
F0F0
F0F0
F0F0
0000
0000
0000
0000
ENDCHAR
STARTCHAR Beta
ENCODING 914
SWIDTH 994 0
DWIDTH 14 0
BBX 14 26 0 -6
BITMAP
0000
0000
0000
0000
FFC0
FFC0
F0F0
F0F0
F0F0
F0F0
F0F0
F0F0
FFC0
FFC0
F0F0
F0F0
F0F0
F0F0
F0F0
F0F0
FFC0
FFC0
0000
0000
0000
0000
ENDCHAR
STARTCHAR Gamma
ENCODING 915
SWIDTH 994 0
DWIDTH 14 0
BBX 14 26 0 -6
BITMAP
0000
0000
0000
0000
FFF0
FFF0
F000
F000
F000
F000
F000
F000
F000
F000
F000
F000
F000
F000
F000
F000
F000
F000
0000
0000
0000
0000
ENDCHAR
STARTCHAR Delta
ENCODING 916
SWIDTH 994 0
DWIDTH 14 0
BBX 14 26 0 -6
BITMAP
0000
0000
0000
0000
0F00
0F00
0F00
0F00
0F00
0F00
3FC0
3FC0
30C0
30C0
30C0
30C0
F0F0
F0F0
F0F0
F0F0
FFF0
FFF0
0000
0000
0000
0000
ENDCHAR
STARTCHAR Epsilon
ENCODING 917
SWIDTH 994 0
DWIDTH 14 0
BBX 14 26 0 -6
BITMAP
0000
0000
0000
0000
FFF0
FFF0
F000
F000
F000
F000
F000
F000
FFC0
FFC0
F000
F000
F000
F000
F000
F000
FFF0
FFF0
0000
0000
0000
0000
ENDCHAR
STARTCHAR Zeta
ENCODING 918
SWIDTH 994 0
DWIDTH 14 0
BBX 14 26 0 -6
BITMAP
0000
0000
0000
0000
FFF0
FFF0
00F0
00F0
00F0
00F0
03C0
03C0
0F00
0F00
3C00
3C00
F000
F000
F000
F000
FFF0
FFF0
0000
0000
0000
0000
ENDCHAR
STARTCHAR Eta
ENCODING 919
SWIDTH 994 0
DWIDTH 14 0
BBX 14 26 0 -6
BITMAP
0000
0000
0000
0000
F0F0
F0F0
F0F0
F0F0
F0F0
F0F0
F0F0
F0F0
FFF0
FFF0
F0F0
F0F0
F0F0
F0F0
F0F0
F0F0
F0F0
F0F0
0000
0000
0000
0000
ENDCHAR
STARTCHAR Theta
ENCODING 920
SWIDTH 994 0
DWIDTH 14 0
BBX 14 26 0 -6
BITMAP
0000
0000
0000
0000
3FC0
3FC0
F0F0
F0F0
F0F0
F0F0
F0F0
F0F0
FFF0
FFF0
F0F0
F0F0
F0F0
F0F0
F0F0
F0F0
3FC0
3FC0
0000
0000
0000
0000
ENDCHAR
STARTCHAR Iota
ENCODING 921
SWIDTH 994 0
DWIDTH 14 0
BBX 14 26 0 -6
BITMAP
0000
0000
0000
0000
FFF0
FFF0
0F00
0F00
0F00
0F00
0F00
0F00
0F00
0F00
0F00
0F00
0F00
0F00
0F00
0F00
FFF0
FFF0
0000
0000
0000
0000
ENDCHAR
STARTCHAR Kappa
ENCODING 922
SWIDTH 994 0
DWIDTH 14 0
BBX 14 26 0 -6
BITMAP
0000
0000
0000
0000
F030
F030
F0F0
F0F0
F3C0
F3C0
FF00
FF00
FC00
FC00
FF00
FF00
F3C0
F3C0
F0F0
F0F0
F030
F030
0000
0000
0000
0000
ENDCHAR
STARTCHAR Lambda
ENCODING 923
SWIDTH 994 0
DWIDTH 14 0
BBX 14 26 0 -6
BITMAP
0000
0000
0000
0000
0F00
0F00
0F00
0F00
0F00
0F00
3FC0
3FC0
30C0
30C0
30C0
30C0
F0F0
F0F0
F0F0
F0F0
F0F0
F0F0
0000
0000
0000
0000
ENDCHAR
STARTCHAR Mu
ENCODING 924
SWIDTH 994 0
DWIDTH 14 0
BBX 14 26 0 -6
BITMAP
0000
0000
0000
0000
C030
C030
F0F0
F0F0
FFF0
FFF0
FFF0
FFF0
F0F0
F0F0
F0F0
F0F0
F0F0
F0F0
F0F0
F0F0
F0F0
F0F0
0000
0000
0000
0000
ENDCHAR
STARTCHAR Nu
ENCODING 925
SWIDTH 994 0
DWIDTH 14 0
BBX 14 26 0 -6
BITMAP
0000
0000
0000
0000
F0F0
F0F0
F0F0
F0F0
FCF0
FCF0
FCF0
FCF0
FFF0
FFF0
F3F0
F3F0
F3F0
F3F0
F0F0
F0F0
F0F0
F0F0
0000
0000
0000
0000
ENDCHAR
STARTCHAR Xi
ENCODING 926
SWIDTH 994 0
DWIDTH 14 0
BBX 14 26 0 -6
BITMAP
0000
0000
0000
0000
FFF0
FFF0
0000
0000
0000
0000
0000
0000
3FC0
3FC0
0000
0000
0000
0000
0000
0000
FFF0
FFF0
0000
0000
0000
0000
ENDCHAR
STARTCHAR Omicron
ENCODING 927
SWIDTH 994 0
DWIDTH 14 0
BBX 14 26 0 -6
BITMAP
0000
0000
0000
0000
3FC0
3FC0
F0F0
F0F0
F0F0
F0F0
F0F0
F0F0
F0F0
F0F0
F0F0
F0F0
F0F0
F0F0
F0F0
F0F0
3FC0
3FC0
0000
0000
0000
0000
ENDCHAR
STARTCHAR Pi
ENCODING 928
SWIDTH 994 0
DWIDTH 14 0
BBX 14 26 0 -6
BITMAP
0000
0000
0000
0000
FFF0
FFF0
F0F0
F0F0
F0F0
F0F0
F0F0
F0F0
F0F0
F0F0
F0F0
F0F0
F0F0
F0F0
F0F0
F0F0
F0F0
F0F0
0000
0000
0000
0000
ENDCHAR
STARTCHAR Rho
ENCODING 929
SWIDTH 994 0
DWIDTH 14 0
BBX 14 26 0 -6
BITMAP
0000
0000
0000
0000
FFC0
FFC0
F0F0
F0F0
F0F0
F0F0
F0F0
F0F0
FFC0
FFC0
F000
F000
F000
F000
F000
F000
F000
F000
0000
0000
0000
0000
ENDCHAR
STARTCHAR Sigma
ENCODING 931
SWIDTH 994 0
DWIDTH 14 0
BBX 14 26 0 -6
BITMAP
0000
0000
0000
0000
FFF0
FFF0
F000
F000
3C00
3C00
0F00
0F00
0F00
0F00
3C00
3C00
F000
F000
F000
F000
FFF0
FFF0
0000
0000
0000
0000
ENDCHAR
STARTCHAR Tau
ENCODING 932
SWIDTH 994 0
DWIDTH 14 0
BBX 14 26 0 -6
BITMAP
0000
0000
0000
0000
FFF0
FFF0
0F00
0F00
0F00
0F00
0F00
0F00
0F00
0F00
0F00
0F00
0F00
0F00
0F00
0F00
0F00
0F00
0000
0000
0000
0000
ENDCHAR
STARTCHAR Upsilon
ENCODING 933
SWIDTH 994 0
DWIDTH 14 0
BBX 14 26 0 -6
BITMAP
0000
0000
0000
0000
F0F0
F0F0
F0F0
F0F0
3FC0
3FC0
3FC0
3FC0
0F00
0F00
0F00
0F00
0F00
0F00
0F00
0F00
0F00
0F00
0000
0000
0000
0000
ENDCHAR
STARTCHAR Phi
ENCODING 934
SWIDTH 994 0
DWIDTH 14 0
BBX 14 26 0 -6
BITMAP
0000
0000
0000
0000
0F00
0F00
3FC0
3FC0
FFF0
FFF0
CF30
CF30
CF30
CF30
CF30
CF30
FFF0
FFF0
3FC0
3FC0
0F00
0F00
0000
0000
0000
0000
ENDCHAR
STARTCHAR Chi
ENCODING 935
SWIDTH 994 0
DWIDTH 14 0
BBX 14 26 0 -6
BITMAP
0000
0000
0000
0000
C030
C030
F0F0
F0F0
30C0
30C0
3FC0
3FC0
0F00
0F00
3FC0
3FC0
30C0
30C0
F0F0
F0F0
C030
C030
0000
0000
0000
0000
ENDCHAR
STARTCHAR Psi
ENCODING 936
SWIDTH 994 0
DWIDTH 14 0
BBX 14 26 0 -6
BITMAP
0000
0000
0000
0000
F0F0
F0F0
F0F0
F0F0
FFF0
FFF0
FFF0
FFF0
FFF0
FFF0
FFF0
FFF0
3FC0
3FC0
0F00
0F00
0F00
0F00
0000
0000
0000
0000
ENDCHAR
STARTCHAR Omega
ENCODING 937
SWIDTH 994 0
DWIDTH 14 0
BBX 14 26 0 -6
BITMAP
0000
0000
0000
0000
3FC0
3FC0
F0F0
F0F0
F0F0
F0F0
F0F0
F0F0
F0F0
F0F0
F0F0
F0F0
30C0
30C0
30C0
30C0
F0F0
F0F0
0000
0000
0000
0000
ENDCHAR
STARTCHAR Iotadieresis
ENCODING 938
SWIDTH 994 0
DWIDTH 14 0
BBX 14 26 0 -6
BITMAP
0000
0000
F0F0
F0F0
F0F0
F0F0
0000
0000
FFF0
FFF0
0F00
0F00
0F00
0F00
0F00
0F00
0F00
0F00
0F00
0F00
FFF0
FFF0
0000
0000
0000
0000
ENDCHAR
STARTCHAR Upsilondieresis
ENCODING 939
SWIDTH 994 0
DWIDTH 14 0
BBX 14 26 0 -6
BITMAP
0000
0000
F0F0
F0F0
F0F0
F0F0
0000
0000
F0F0
F0F0
30C0
30C0
3FC0
3FC0
0F00
0F00
0F00
0F00
0F00
0F00
0F00
0F00
0000
0000
0000
0000
ENDCHAR
STARTCHAR alphatonos
ENCODING 940
SWIDTH 994 0
DWIDTH 14 0
BBX 14 26 0 -6
BITMAP
0000
0000
0000
0000
03C0
03C0
0F00
0F00
0000
0000
3FC0
3FC0
F0F0
F0F0
F0F0
F0F0
F0F0
F0F0
F3F0
F3F0
3CF0
3CF0
0000
0000
0000
0000
ENDCHAR
STARTCHAR epsilontonos
ENCODING 941
SWIDTH 994 0
DWIDTH 14 0
BBX 14 26 0 -6
BITMAP
0000
0000
0000
0000
03C0
03C0
0F00
0F00
0000
0000
3FC0
3FC0
F0F0
F0F0
3F00
3F00
F000
F000
F0F0
F0F0
3FC0
3FC0
0000
0000
0000
0000
ENDCHAR
STARTCHAR etatonos
ENCODING 942
SWIDTH 994 0
DWIDTH 14 0
BBX 14 26 0 -6
BITMAP
0000
0000
0000
0000
03C0
03C0
0F00
0F00
0000
0000
FFC0
FFC0
F0F0
F0F0
F0F0
F0F0
F0F0
F0F0
F0F0
F0F0
F0F0
F0F0
00F0
00F0
00F0
00F0
ENDCHAR
STARTCHAR iotatonos
ENCODING 943
SWIDTH 994 0
DWIDTH 14 0
BBX 14 26 0 -6
BITMAP
0000
0000
0000
0000
0F00
0F00
3C00
3C00
0000
0000
3C00
3C00
3C00
3C00
3C00
3C00
3C00
3C00
3FC0
3FC0
0F00
0F00
0000
0000
0000
0000
ENDCHAR
STARTCHAR upsilondieresistonos
ENCODING 944
SWIDTH 994 0
DWIDTH 14 0
BBX 14 26 0 -6
BITMAP
0000
0000
03C0
03C0
CF30
CF30
C030
C030
0000
0000
F0F0
F0F0
F0F0
F0F0
F0F0
F0F0
F0F0
F0F0
F0F0
F0F0
3FC0
3FC0
0000
0000
0000
0000
ENDCHAR
STARTCHAR alpha
ENCODING 945
SWIDTH 994 0
DWIDTH 14 0
BBX 14 26 0 -6
BITMAP
0000
0000
0000
0000
0000
0000
0000
0000
0000
0000
3FC0
3FC0
F0F0
F0F0
F0F0
F0F0
F0F0
F0F0
F3F0
F3F0
3CF0
3CF0
0000
0000
0000
0000
ENDCHAR
STARTCHAR beta
ENCODING 946
SWIDTH 994 0
DWIDTH 14 0
BBX 14 26 0 -6
BITMAP
0000
0000
0000
0000
3F00
3F00
F3C0
F3C0
F3C0
F3C0
FFC0
FFC0
F0F0
F0F0
F0F0
F0F0
F0F0
F0F0
FCF0
FCF0
FFC0
FFC0
F000
F000
F000
F000
ENDCHAR
STARTCHAR gamma
ENCODING 947
SWIDTH 994 0
DWIDTH 14 0
BBX 14 26 0 -6
BITMAP
0000
0000
0000
0000
0000
0000
0000
0000
0000
0000
F0F0
F0F0
F0F0
F0F0
3FC0
3FC0
3FC0
3FC0
0F00
0F00
0F00
0F00
0F00
0F00
0F00
0F00
ENDCHAR
STARTCHAR delta
ENCODING 948
SWIDTH 994 0
DWIDTH 14 0
BBX 14 26 0 -6
BITMAP
0000
0000
0000
0000
3FC0
3FC0
F0F0
F0F0
3C00
3C00
3FC0
3FC0
F0F0
F0F0
F0F0
F0F0
F0F0
F0F0
F0F0
F0F0
3FC0
3FC0
0000
0000
0000
0000
ENDCHAR
STARTCHAR epsilon
ENCODING 949
SWIDTH 994 0
DWIDTH 14 0
BBX 14 26 0 -6
BITMAP
0000
0000
0000
0000
0000
0000
0000
0000
0000
0000
3FC0
3FC0
F0F0
F0F0
3F00
3F00
F000
F000
F0F0
F0F0
3FC0
3FC0
0000
0000
0000
0000
ENDCHAR
STARTCHAR zeta
ENCODING 950
SWIDTH 994 0
DWIDTH 14 0
BBX 14 26 0 -6
BITMAP
0000
0000
0000
0000
FFF0
FFF0
0F00
0F00
3C00
3C00
3C00
3C00
F000
F000
F000
F000
F000
F000
F000
F000
3FC0
3FC0
00F0
00F0
0FC0
0FC0
ENDCHAR
STARTCHAR eta
ENCODING 951
SWIDTH 994 0
DWIDTH 14 0
BBX 14 26 0 -6
BITMAP
0000
0000
0000
0000
0000
0000
0000
0000
0000
0000
FFC0
FFC0
F0F0
F0F0
F0F0
F0F0
F0F0
F0F0
F0F0
F0F0
F0F0
F0F0
00F0
00F0
00F0
00F0
ENDCHAR
STARTCHAR theta
ENCODING 952
SWIDTH 994 0
DWIDTH 14 0
BBX 14 26 0 -6
BITMAP
0000
0000
0000
0000
3F00
3F00
F3C0
F3C0
F3C0
F3C0
F3C0
F3C0
FFC0
FFC0
F3C0
F3C0
F3C0
F3C0
F3C0
F3C0
3F00
3F00
0000
0000
0000
0000
ENDCHAR
STARTCHAR iota
ENCODING 953
SWIDTH 994 0
DWIDTH 14 0
BBX 14 26 0 -6
BITMAP
0000
0000
0000
0000
0000
0000
0000
0000
0000
0000
3C00
3C00
3C00
3C00
3C00
3C00
3C00
3C00
3FC0
3FC0
0F00
0F00
0000
0000
0000
0000
ENDCHAR
STARTCHAR kappa
ENCODING 954
SWIDTH 994 0
DWIDTH 14 0
BBX 14 26 0 -6
BITMAP
0000
0000
0000
0000
0000
0000
0000
0000
0000
0000
F0F0
F0F0
F3C0
F3C0
FF00
FF00
FF00
FF00
F3C0
F3C0
F0F0
F0F0
0000
0000
0000
0000
ENDCHAR
STARTCHAR lambda
ENCODING 955
SWIDTH 994 0
DWIDTH 14 0
BBX 14 26 0 -6
BITMAP
0000
0000
0000
0000
3FC0
3FC0
F0F0
F0F0
00F0
00F0
3FF0
3FF0
F0F0
F0F0
F0F0
F0F0
F0F0
F0F0
F0F0
F0F0
F0F0
F0F0
0000
0000
0000
0000
ENDCHAR
STARTCHAR mu
ENCODING 956
SWIDTH 994 0
DWIDTH 14 0
BBX 14 26 0 -6
BITMAP
0000
0000
0000
0000
0000
0000
0000
0000
0000
0000
F0F0
F0F0
F0F0
F0F0
F0F0
F0F0
F0F0
F0F0
F0F0
F0F0
FFF0
FFF0
F000
F000
F000
F000
ENDCHAR
STARTCHAR nu
ENCODING 957
SWIDTH 994 0
DWIDTH 14 0
BBX 14 26 0 -6
BITMAP
0000
0000
0000
0000
0000
0000
0000
0000
0000
0000
F0F0
F0F0
F0F0
F0F0
F0F0
F0F0
3FC0
3FC0
3FC0
3FC0
0F00
0F00
0000
0000
0000
0000
ENDCHAR
STARTCHAR xi
ENCODING 958
SWIDTH 994 0
DWIDTH 14 0
BBX 14 26 0 -6
BITMAP
0000
0000
0000
0000
FFF0
FFF0
0F00
0F00
3C00
3C00
3C00
3C00
0FC0
0FC0
3C00
3C00
F000
F000
F000
F000
3FC0
3FC0
00F0
00F0
0FC0
0FC0
ENDCHAR
STARTCHAR omicron
ENCODING 959
SWIDTH 994 0
DWIDTH 14 0
BBX 14 26 0 -6
BITMAP
0000
0000
0000
0000
0000
0000
0000
0000
0000
0000
3FC0
3FC0
F0F0
F0F0
F0F0
F0F0
F0F0
F0F0
F0F0
F0F0
3FC0
3FC0
0000
0000
0000
0000
ENDCHAR
STARTCHAR pi
ENCODING 960
SWIDTH 994 0
DWIDTH 14 0
BBX 14 26 0 -6
BITMAP
0000
0000
0000
0000
0000
0000
0000
0000
0000
0000
FFF0
FFF0
F0F0
F0F0
F0F0
F0F0
F0F0
F0F0
F0F0
F0F0
F0F0
F0F0
0000
0000
0000
0000
ENDCHAR
STARTCHAR rho
ENCODING 961
SWIDTH 994 0
DWIDTH 14 0
BBX 14 26 0 -6
BITMAP
0000
0000
0000
0000
0000
0000
0000
0000
0000
0000
3FC0
3FC0
F0F0
F0F0
F0F0
F0F0
F0F0
F0F0
F0F0
F0F0
FFC0
FFC0
F000
F000
F000
F000
ENDCHAR
STARTCHAR sigma1
ENCODING 962
SWIDTH 994 0
DWIDTH 14 0
BBX 14 26 0 -6
BITMAP
0000
0000
0000
0000
0000
0000
0000
0000
0000
0000
3FC0
3FC0
F0F0
F0F0
F000
F000
F000
F000
F000
F000
3FC0
3FC0
00F0
00F0
0FC0
0FC0
ENDCHAR
STARTCHAR sigma
ENCODING 963
SWIDTH 994 0
DWIDTH 14 0
BBX 14 26 0 -6
BITMAP
0000
0000
0000
0000
0000
0000
0000
0000
0000
0000
3FF0
3FF0
F3C0
F3C0
F0F0
F0F0
F0F0
F0F0
F0F0
F0F0
3FC0
3FC0
0000
0000
0000
0000
ENDCHAR
STARTCHAR tau
ENCODING 964
SWIDTH 994 0
DWIDTH 14 0
BBX 14 26 0 -6
BITMAP
0000
0000
0000
0000
0000
0000
0000
0000
0000
0000
FFF0
FFF0
0F00
0F00
0F00
0F00
0F00
0F00
0FF0
0FF0
03C0
03C0
0000
0000
0000
0000
ENDCHAR
STARTCHAR upsilon
ENCODING 965
SWIDTH 994 0
DWIDTH 14 0
BBX 14 26 0 -6
BITMAP
0000
0000
0000
0000
0000
0000
0000
0000
0000
0000
F0F0
F0F0
F0F0
F0F0
F0F0
F0F0
F0F0
F0F0
F0F0
F0F0
3FC0
3FC0
0000
0000
0000
0000
ENDCHAR
STARTCHAR phi
ENCODING 966
SWIDTH 994 0
DWIDTH 14 0
BBX 14 26 0 -6
BITMAP
0000
0000
0000
0000
0000
0000
0000
0000
0000
0000
3FC0
3FC0
FFF0
FFF0
CF30
CF30
CF30
CF30
FFF0
FFF0
3FC0
3FC0
0F00
0F00
0F00
0F00
ENDCHAR
STARTCHAR chi
ENCODING 967
SWIDTH 994 0
DWIDTH 14 0
BBX 14 26 0 -6
BITMAP
0000
0000
0000
0000
0000
0000
0000
0000
0000
0000
F0F0
F0F0
F0F0
F0F0
3FC0
3FC0
0F00
0F00
0F00
0F00
3FC0
3FC0
F0F0
F0F0
F0F0
F0F0
ENDCHAR
STARTCHAR psi
ENCODING 968
SWIDTH 994 0
DWIDTH 14 0
BBX 14 26 0 -6
BITMAP
0000
0000
0000
0000
0000
0000
0000
0000
0000
0000
F0F0
F0F0
F0F0
F0F0
FFF0
FFF0
FFF0
FFF0
FFF0
FFF0
3FC0
3FC0
0F00
0F00
0F00
0F00
ENDCHAR
STARTCHAR omega
ENCODING 969
SWIDTH 994 0
DWIDTH 14 0
BBX 14 26 0 -6
BITMAP
0000
0000
0000
0000
0000
0000
0000
0000
0000
0000
F0F0
F0F0
F0F0
F0F0
F0F0
F0F0
FFF0
FFF0
FFF0
FFF0
30C0
30C0
0000
0000
0000
0000
ENDCHAR
STARTCHAR iotadieresis
ENCODING 970
SWIDTH 994 0
DWIDTH 14 0
BBX 14 26 0 -6
BITMAP
0000
0000
0000
0000
F0F0
F0F0
F0F0
F0F0
0000
0000
0F00
0F00
0F00
0F00
0F00
0F00
0F00
0F00
0FF0
0FF0
03C0
03C0
0000
0000
0000
0000
ENDCHAR
STARTCHAR upsilondieresis
ENCODING 971
SWIDTH 994 0
DWIDTH 14 0
BBX 14 26 0 -6
BITMAP
0000
0000
0000
0000
F0F0
F0F0
F0F0
F0F0
0000
0000
F0F0
F0F0
F0F0
F0F0
F0F0
F0F0
F0F0
F0F0
F0F0
F0F0
3FC0
3FC0
0000
0000
0000
0000
ENDCHAR
STARTCHAR omicrontonos
ENCODING 972
SWIDTH 994 0
DWIDTH 14 0
BBX 14 26 0 -6
BITMAP
0000
0000
0000
0000
03C0
03C0
0F00
0F00
0000
0000
3FC0
3FC0
F0F0
F0F0
F0F0
F0F0
F0F0
F0F0
F0F0
F0F0
3FC0
3FC0
0000
0000
0000
0000
ENDCHAR
STARTCHAR upsilontonos
ENCODING 973
SWIDTH 994 0
DWIDTH 14 0
BBX 14 26 0 -6
BITMAP
0000
0000
0000
0000
03C0
03C0
0F00
0F00
0000
0000
F0F0
F0F0
F0F0
F0F0
F0F0
F0F0
F0F0
F0F0
F0F0
F0F0
3FC0
3FC0
0000
0000
0000
0000
ENDCHAR
STARTCHAR omegatonos
ENCODING 974
SWIDTH 994 0
DWIDTH 14 0
BBX 14 26 0 -6
BITMAP
0000
0000
0000
0000
03C0
03C0
0F00
0F00
0000
0000
F0F0
F0F0
F0F0
F0F0
F0F0
F0F0
FFF0
FFF0
FFF0
FFF0
30C0
30C0
0000
0000
0000
0000
ENDCHAR
STARTCHAR uni03D0
ENCODING 976
SWIDTH 994 0
DWIDTH 14 0
BBX 14 26 0 -6
BITMAP
0000
0000
0000
0000
3F00
3F00
F3C0
F3C0
F3C0
F3C0
FFC0
FFC0
F0F0
F0F0
F0F0
F0F0
F0F0
F0F0
F0F0
F0F0
3FC0
3FC0
0000
0000
0000
0000
ENDCHAR
STARTCHAR theta1
ENCODING 977
SWIDTH 994 0
DWIDTH 14 0
BBX 14 26 0 -6
BITMAP
0000
0000
0000
0000
3F00
3F00
F3C0
F3C0
F3C0
F3C0
3FF0
3FF0
03C0
03C0
F3C0
F3C0
F3C0
F3C0
F3C0
F3C0
3F00
3F00
0000
0000
0000
0000
ENDCHAR
STARTCHAR Upsilon1
ENCODING 978
SWIDTH 994 0
DWIDTH 14 0
BBX 14 26 0 -6
BITMAP
0000
0000
0000
0000
30C0
30C0
FFF0
FFF0
CF30
CF30
0F00
0F00
0F00
0F00
0F00
0F00
0F00
0F00
0F00
0F00
0F00
0F00
0000
0000
0000
0000
ENDCHAR
STARTCHAR uni03D3
ENCODING 979
SWIDTH 994 0
DWIDTH 14 0
BBX 14 26 0 -6
BITMAP
0000
0000
0000
0000
30C0
30C0
FFF0
FFF0
CF30
CF30
0F00
0F00
CF00
CF00
CF00
CF00
0F00
0F00
0F00
0F00
0F00
0F00
0000
0000
0000
0000
ENDCHAR
STARTCHAR uni03D4
ENCODING 980
SWIDTH 994 0
DWIDTH 14 0
BBX 14 26 0 -6
BITMAP
0000
0000
F0F0
F0F0
F0F0
F0F0
0000
0000
30C0
30C0
FFF0
FFF0
CF30
CF30
0F00
0F00
0F00
0F00
0F00
0F00
0F00
0F00
0000
0000
0000
0000
ENDCHAR
STARTCHAR phi1
ENCODING 981
SWIDTH 994 0
DWIDTH 14 0
BBX 14 26 0 -6
BITMAP
0000
0000
0000
0000
0000
0000
0F00
0F00
0F00
0F00
3FC0
3FC0
FFF0
FFF0
CF30
CF30
CF30
CF30
FFF0
FFF0
3FC0
3FC0
0F00
0F00
0F00
0F00
ENDCHAR
STARTCHAR omega1
ENCODING 982
SWIDTH 994 0
DWIDTH 14 0
BBX 14 26 0 -6
BITMAP
0000
0000
0000
0000
0000
0000
0000
0000
0000
0000
FFF0
FFF0
F0F0
F0F0
F0F0
F0F0
FFF0
FFF0
FFF0
FFF0
30C0
30C0
0000
0000
0000
0000
ENDCHAR
STARTCHAR uni03D7
ENCODING 983
SWIDTH 994 0
DWIDTH 14 0
BBX 14 26 0 -6
BITMAP
0000
0000
0000
0000
03C0
03C0
0F00
0F00
0000
0000
F0F0
F0F0
F3C0
F3C0
3F00
3F00
3F30
3F30
F3F0
F3F0
F0F0
F0F0
00F0
00F0
0FC0
0FC0
ENDCHAR
STARTCHAR uni03DA
ENCODING 986
SWIDTH 994 0
DWIDTH 14 0
BBX 14 26 0 -6
BITMAP
0000
0000
0000
0000
0FC0
0FC0
3CF0
3CF0
F000
F000
F000
F000
F000
F000
F000
F000
F000
F000
3FC0
3FC0
00F0
00F0
03C0
03C0
0000
0000
ENDCHAR
STARTCHAR uni03DB
ENCODING 987
SWIDTH 994 0
DWIDTH 14 0
BBX 14 26 0 -6
BITMAP
0000
0000
0000
0000
0000
0000
0000
0000
00F0
00F0
3FC0
3FC0
F000
F000
F000
F000
F000
F000
F000
F000
3FC0
3FC0
00F0
00F0
0FC0
0FC0
ENDCHAR
STARTCHAR uni03DC
ENCODING 988
SWIDTH 994 0
DWIDTH 14 0
BBX 14 26 0 -6
BITMAP
0000
0000
0000
0000
FFF0
FFF0
F000
F000
F000
F000
F000
F000
FFC0
FFC0
F000
F000
F000
F000
F000
F000
F000
F000
0000
0000
0000
0000
ENDCHAR
STARTCHAR uni03DD
ENCODING 989
SWIDTH 994 0
DWIDTH 14 0
BBX 14 26 0 -6
BITMAP
0000
0000
0000
0000
0000
0000
0000
0000
0000
0000
FFC0
FFC0
F000
F000
F000
F000
FF00
FF00
F000
F000
F000
F000
F000
F000
F000
F000
ENDCHAR
STARTCHAR uni03DE
ENCODING 990
SWIDTH 994 0
DWIDTH 14 0
BBX 14 26 0 -6
BITMAP
0000
0000
0000
0000
F000
F000
F000
F000
F0F0
F0F0
F3F0
F3F0
FFF0
FFF0
FCF0
FCF0
F0F0
F0F0
00F0
00F0
00F0
00F0
0000
0000
0000
0000
ENDCHAR
STARTCHAR uni03DF
ENCODING 991
SWIDTH 994 0
DWIDTH 14 0
BBX 14 26 0 -6
BITMAP
0000
0000
0000
0000
0F00
0F00
0F00
0F00
3C00
3C00
3C00
3C00
F000
F000
FFF0
FFF0
00F0
00F0
03C0
03C0
03C0
03C0
0F00
0F00
0F00
0F00
ENDCHAR
STARTCHAR uni03E0
ENCODING 992
SWIDTH 994 0
DWIDTH 14 0
BBX 14 26 0 -6
BITMAP
0000
0000
0000
0000
0F00
0F00
0F00
0F00
0F00
0F00
3FC0
3FC0
30C0
30C0
33C0
33C0
F3F0
F3F0
CCF0
CCF0
CCF0
CCF0
0000
0000
0000
0000
ENDCHAR
STARTCHAR uni03E1
ENCODING 993
SWIDTH 994 0
DWIDTH 14 0
BBX 14 26 0 -6
BITMAP
0000
0000
0000
0000
FC00
FC00
0F00
0F00
03C0
03C0
0FC0
0FC0
3CF0
3CF0
F3F0
F3F0
0FF0
0FF0
3CF0
3CF0
00F0
00F0
00F0
00F0
00F0
00F0
ENDCHAR
STARTCHAR uni03F0
ENCODING 1008
SWIDTH 994 0
DWIDTH 14 0
BBX 14 26 0 -6
BITMAP
0000
0000
0000
0000
0000
0000
0000
0000
0000
0000
F0F0
F0F0
F3C0
F3C0
3F00
3F00
3F00
3F00
F3C0
F3C0
F0F0
F0F0
0000
0000
0000
0000
ENDCHAR
STARTCHAR uni03F1
ENCODING 1009
SWIDTH 994 0
DWIDTH 14 0
BBX 14 26 0 -6
BITMAP
0000
0000
0000
0000
0000
0000
0000
0000
0000
0000
3FC0
3FC0
F0F0
F0F0
F0F0
F0F0
F0F0
F0F0
F0F0
F0F0
FFC0
FFC0
F000
F000
3FC0
3FC0
ENDCHAR
STARTCHAR uni03F2
ENCODING 1010
SWIDTH 994 0
DWIDTH 14 0
BBX 14 26 0 -6
BITMAP
0000
0000
0000
0000
0000
0000
0000
0000
0000
0000
3FC0
3FC0
F030
F030
F000
F000
F000
F000
F030
F030
3FC0
3FC0
0000
0000
0000
0000
ENDCHAR
STARTCHAR uni03F3
ENCODING 1011
SWIDTH 994 0
DWIDTH 14 0
BBX 14 26 0 -6
BITMAP
0000
0000
0000
0000
00F0
00F0
00F0
00F0
0000
0000
00F0
00F0
00F0
00F0
00F0
00F0
00F0
00F0
00F0
00F0
00F0
00F0
F0F0
F0F0
3FC0
3FC0
ENDCHAR
STARTCHAR uni03F4
ENCODING 1012
SWIDTH 994 0
DWIDTH 14 0
BBX 14 26 0 -6
BITMAP
0000
0000
0000
0000
3FC0
3FC0
F0F0
F0F0
F0F0
F0F0
F0F0
F0F0
FFF0
FFF0
F0F0
F0F0
F0F0
F0F0
F0F0
F0F0
3FC0
3FC0
0000
0000
0000
0000
ENDCHAR
STARTCHAR uni03F5
ENCODING 1013
SWIDTH 994 0
DWIDTH 14 0
BBX 14 26 0 -6
BITMAP
0000
0000
0000
0000
0000
0000
0000
0000
0000
0000
0FF0
0FF0
3C00
3C00
3FC0
3FC0
3C00
3C00
3C00
3C00
0FF0
0FF0
0000
0000
0000
0000
ENDCHAR
STARTCHAR afii10023
ENCODING 1025
SWIDTH 994 0
DWIDTH 14 0
BBX 14 26 0 -6
BITMAP
0000
0000
F0F0
F0F0
F0F0
F0F0
0000
0000
FFF0
FFF0
F000
F000
F000
F000
FF00
FF00
F000
F000
F000
F000
FFF0
FFF0
0000
0000
0000
0000
ENDCHAR
STARTCHAR afii10051
ENCODING 1026
SWIDTH 994 0
DWIDTH 14 0
BBX 14 26 0 -6
BITMAP
0000
0000
0000
0000
FFC0
FFC0
3C00
3C00
3C00
3C00
3C00
3C00
3FC0
3FC0
3CF0
3CF0
3CF0
3CF0
3CF0
3CF0
3CF0
3CF0
00F0
00F0
03C0
03C0
ENDCHAR
STARTCHAR afii10052
ENCODING 1027
SWIDTH 994 0
DWIDTH 14 0
BBX 14 26 0 -6
BITMAP
03C0
03C0
0F00
0F00
0000
0000
FFF0
FFF0
F000
F000
F000
F000
F000
F000
F000
F000
F000
F000
F000
F000
F000
F000
0000
0000
0000
0000
ENDCHAR
STARTCHAR afii10053
ENCODING 1028
SWIDTH 994 0
DWIDTH 14 0
BBX 14 26 0 -6
BITMAP
0000
0000
0000
0000
0FC0
0FC0
3CF0
3CF0
F000
F000
F000
F000
FF00
FF00
F000
F000
F000
F000
3CF0
3CF0
0FC0
0FC0
0000
0000
0000
0000
ENDCHAR
STARTCHAR afii10054
ENCODING 1029
SWIDTH 994 0
DWIDTH 14 0
BBX 14 26 0 -6
BITMAP
0000
0000
0000
0000
3FC0
3FC0
F0F0
F0F0
F000
F000
F000
F000
3FC0
3FC0
00F0
00F0
00F0
00F0
F0F0
F0F0
3FC0
3FC0
0000
0000
0000
0000
ENDCHAR
STARTCHAR afii10055
ENCODING 1030
SWIDTH 994 0
DWIDTH 14 0
BBX 14 26 0 -6
BITMAP
0000
0000
0000
0000
FFF0
FFF0
0F00
0F00
0F00
0F00
0F00
0F00
0F00
0F00
0F00
0F00
0F00
0F00
0F00
0F00
FFF0
FFF0
0000
0000
0000
0000
ENDCHAR
STARTCHAR afii10056
ENCODING 1031
SWIDTH 994 0
DWIDTH 14 0
BBX 14 26 0 -6
BITMAP
0000
0000
F0F0
F0F0
F0F0
F0F0
0000
0000
FFF0
FFF0
0F00
0F00
0F00
0F00
0F00
0F00
0F00
0F00
0F00
0F00
FFF0
FFF0
0000
0000
0000
0000
ENDCHAR
STARTCHAR afii10057
ENCODING 1032
SWIDTH 994 0
DWIDTH 14 0
BBX 14 26 0 -6
BITMAP
0000
0000
0000
0000
0FF0
0FF0
03C0
03C0
03C0
03C0
03C0
03C0
03C0
03C0
03C0
03C0
03C0
03C0
F3C0
F3C0
3F00
3F00
0000
0000
0000
0000
ENDCHAR
STARTCHAR afii10058
ENCODING 1033
SWIDTH 994 0
DWIDTH 14 0
BBX 14 26 0 -6
BITMAP
0000
0000
0000
0000
FFC0
FFC0
F3C0
F3C0
F3C0
F3C0
F3C0
F3C0
F3F0
F3F0
F3CC
F3CC
F3CC
F3CC
F3CC
F3CC
F3F0
F3F0
0000
0000
0000
0000
ENDCHAR
STARTCHAR afii10059
ENCODING 1034
SWIDTH 994 0
DWIDTH 14 0
BBX 14 26 0 -6
BITMAP
0000
0000
0000
0000
F3C0
F3C0
F3C0
F3C0
F3C0
F3C0
F3C0
F3C0
FFF0
FFF0
F3CC
F3CC
F3CC
F3CC
F3CC
F3CC
F3F0
F3F0
0000
0000
0000
0000
ENDCHAR
STARTCHAR afii10060
ENCODING 1035
SWIDTH 994 0
DWIDTH 14 0
BBX 14 26 0 -6
BITMAP
0000
0000
0000
0000
FF00
FF00
3C00
3C00
3C00
3C00
3C00
3C00
3FC0
3FC0
3CF0
3CF0
3CF0
3CF0
3CF0
3CF0
3CF0
3CF0
0000
0000
0000
0000
ENDCHAR
STARTCHAR afii10061
ENCODING 1036
SWIDTH 994 0
DWIDTH 14 0
BBX 14 26 0 -6
BITMAP
03C0
03C0
0F00
0F00
0000
0000
F0F0
F0F0
F3C0
F3C0
FF00
FF00
FC00
FC00
FF00
FF00
F3C0
F3C0
F0F0
F0F0
F03C
F03C
0000
0000
0000
0000
ENDCHAR
STARTCHAR afii10062
ENCODING 1038
SWIDTH 994 0
DWIDTH 14 0
BBX 14 26 0 -6
BITMAP
3CF0
3CF0
0FC0
0FC0
0000
0000
F0F0
F0F0
F0F0
F0F0
F0F0
F0F0
3FF0
3FF0
00F0
00F0
00F0
00F0
F0F0
F0F0
3FC0
3FC0
0000
0000
0000
0000
ENDCHAR
STARTCHAR afii10145
ENCODING 1039
SWIDTH 994 0
DWIDTH 14 0
BBX 14 26 0 -6
BITMAP
0000
0000
0000
0000
F0F0
F0F0
F0F0
F0F0
F0F0
F0F0
F0F0
F0F0
F0F0
F0F0
F0F0
F0F0
F0F0
F0F0
F0F0
F0F0
FFF0
FFF0
0F00
0F00
0F00
0F00
ENDCHAR
STARTCHAR afii10017
ENCODING 1040
SWIDTH 994 0
DWIDTH 14 0
BBX 14 26 0 -6
BITMAP
0000
0000
0000
0000
0F00
0F00
3FC0
3FC0
F0F0
F0F0
F0F0
F0F0
F0F0
F0F0
FFF0
FFF0
F0F0
F0F0
F0F0
F0F0
F0F0
F0F0
0000
0000
0000
0000
ENDCHAR
STARTCHAR afii10018
ENCODING 1041
SWIDTH 994 0
DWIDTH 14 0
BBX 14 26 0 -6
BITMAP
0000
0000
0000
0000
FFC0
FFC0
F000
F000
F000
F000
F000
F000
FFC0
FFC0
F0F0
F0F0
F0F0
F0F0
F0F0
F0F0
FFC0
FFC0
0000
0000
0000
0000
ENDCHAR
STARTCHAR afii10019
ENCODING 1042
SWIDTH 994 0
DWIDTH 14 0
BBX 14 26 0 -6
BITMAP
0000
0000
0000
0000
FFC0
FFC0
F0F0
F0F0
F0F0
F0F0
F0F0
F0F0
FFC0
FFC0
F0F0
F0F0
F0F0
F0F0
F0F0
F0F0
FFC0
FFC0
0000
0000
0000
0000
ENDCHAR
STARTCHAR afii10020
ENCODING 1043
SWIDTH 994 0
DWIDTH 14 0
BBX 14 26 0 -6
BITMAP
0000
0000
0000
0000
FFF0
FFF0
F000
F000
F000
F000
F000
F000
F000
F000
F000
F000
F000
F000
F000
F000
F000
F000
0000
0000
0000
0000
ENDCHAR
STARTCHAR afii10021
ENCODING 1044
SWIDTH 994 0
DWIDTH 14 0
BBX 14 26 0 -6
BITMAP
0000
0000
0000
0000
0FFC
0FFC
0F3C
0F3C
0F3C
0F3C
3C3C
3C3C
3C3C
3C3C
3C3C
3C3C
F03C
F03C
F03C
F03C
FFFC
FFFC
F03C
F03C
0000
0000
ENDCHAR
STARTCHAR afii10022
ENCODING 1045
SWIDTH 994 0
DWIDTH 14 0
BBX 14 26 0 -6
BITMAP
0000
0000
0000
0000
FFF0
FFF0
F000
F000
F000
F000
F000
F000
FF00
FF00
F000
F000
F000
F000
F000
F000
FFF0
FFF0
0000
0000
0000
0000
ENDCHAR
STARTCHAR afii10024
ENCODING 1046
SWIDTH 994 0
DWIDTH 14 0
BBX 14 26 0 -6
BITMAP
0000
0000
0000
0000
F33C
F33C
F33C
F33C
F33C
F33C
3FF0
3FF0
0FC0
0FC0
3FF0
3FF0
F33C
F33C
F33C
F33C
F33C
F33C
0000
0000
0000
0000
ENDCHAR
STARTCHAR afii10025
ENCODING 1047
SWIDTH 994 0
DWIDTH 14 0
BBX 14 26 0 -6
BITMAP
0000
0000
0000
0000
3FC0
3FC0
F0F0
F0F0
00F0
00F0
00F0
00F0
0FC0
0FC0
00F0
00F0
00F0
00F0
F0F0
F0F0
3FC0
3FC0
0000
0000
0000
0000
ENDCHAR
STARTCHAR afii10026
ENCODING 1048
SWIDTH 994 0
DWIDTH 14 0
BBX 14 26 0 -6
BITMAP
0000
0000
0000
0000
F0F0
F0F0
F0F0
F0F0
F0F0
F0F0
F3F0
F3F0
FCF0
FCF0
F0F0
F0F0
F0F0
F0F0
F0F0
F0F0
F0F0
F0F0
0000
0000
0000
0000
ENDCHAR
STARTCHAR afii10027
ENCODING 1049
SWIDTH 994 0
DWIDTH 14 0
BBX 14 26 0 -6
BITMAP
F0F0
F0F0
3FC0
3FC0
F0F0
F0F0
F0F0
F0F0
F0F0
F0F0
F3F0
F3F0
FCF0
FCF0
F0F0
F0F0
F0F0
F0F0
F0F0
F0F0
F0F0
F0F0
0000
0000
0000
0000
ENDCHAR
STARTCHAR afii10028
ENCODING 1050
SWIDTH 994 0
DWIDTH 14 0
BBX 14 26 0 -6
BITMAP
0000
0000
0000
0000
F03C
F03C
F0F0
F0F0
F3C0
F3C0
FF00
FF00
FC00
FC00
FF00
FF00
F3C0
F3C0
F0F0
F0F0
F03C
F03C
0000
0000
0000
0000
ENDCHAR
STARTCHAR afii10029
ENCODING 1051
SWIDTH 994 0
DWIDTH 14 0
BBX 14 26 0 -6
BITMAP
0000
0000
0000
0000
3FF0
3FF0
3CF0
3CF0
3CF0
3CF0
3CF0
3CF0
F0F0
F0F0
F0F0
F0F0
F0F0
F0F0
F0F0
F0F0
F0F0
F0F0
0000
0000
0000
0000
ENDCHAR
STARTCHAR afii10030
ENCODING 1052
SWIDTH 994 0
DWIDTH 14 0
BBX 14 26 0 -6
BITMAP
0000
0000
0000
0000
C030
C030
F0F0
F0F0
FFF0
FFF0
FFF0
FFF0
F0F0
F0F0
F0F0
F0F0
F0F0
F0F0
F0F0
F0F0
F0F0
F0F0
0000
0000
0000
0000
ENDCHAR
STARTCHAR afii10031
ENCODING 1053
SWIDTH 994 0
DWIDTH 14 0
BBX 14 26 0 -6
BITMAP
0000
0000
0000
0000
F0F0
F0F0
F0F0
F0F0
F0F0
F0F0
F0F0
F0F0
FFF0
FFF0
F0F0
F0F0
F0F0
F0F0
F0F0
F0F0
F0F0
F0F0
0000
0000
0000
0000
ENDCHAR
STARTCHAR afii10032
ENCODING 1054
SWIDTH 994 0
DWIDTH 14 0
BBX 14 26 0 -6
BITMAP
0000
0000
0000
0000
3FC0
3FC0
F0F0
F0F0
F0F0
F0F0
F0F0
F0F0
F0F0
F0F0
F0F0
F0F0
F0F0
F0F0
F0F0
F0F0
3FC0
3FC0
0000
0000
0000
0000
ENDCHAR
STARTCHAR afii10033
ENCODING 1055
SWIDTH 994 0
DWIDTH 14 0
BBX 14 26 0 -6
BITMAP
0000
0000
0000
0000
FFF0
FFF0
F0F0
F0F0
F0F0
F0F0
F0F0
F0F0
F0F0
F0F0
F0F0
F0F0
F0F0
F0F0
F0F0
F0F0
F0F0
F0F0
0000
0000
0000
0000
ENDCHAR
STARTCHAR afii10034
ENCODING 1056
SWIDTH 994 0
DWIDTH 14 0
BBX 14 26 0 -6
BITMAP
0000
0000
0000
0000
FFC0
FFC0
F0F0
F0F0
F0F0
F0F0
F0F0
F0F0
FFC0
FFC0
F000
F000
F000
F000
F000
F000
F000
F000
0000
0000
0000
0000
ENDCHAR
STARTCHAR afii10035
ENCODING 1057
SWIDTH 994 0
DWIDTH 14 0
BBX 14 26 0 -6
BITMAP
0000
0000
0000
0000
3FC0
3FC0
F0F0
F0F0
F000
F000
F000
F000
F000
F000
F000
F000
F000
F000
F0F0
F0F0
3FC0
3FC0
0000
0000
0000
0000
ENDCHAR
STARTCHAR afii10036
ENCODING 1058
SWIDTH 994 0
DWIDTH 14 0
BBX 14 26 0 -6
BITMAP
0000
0000
0000
0000
FFF0
FFF0
0F00
0F00
0F00
0F00
0F00
0F00
0F00
0F00
0F00
0F00
0F00
0F00
0F00
0F00
0F00
0F00
0000
0000
0000
0000
ENDCHAR
STARTCHAR afii10037
ENCODING 1059
SWIDTH 994 0
DWIDTH 14 0
BBX 14 26 0 -6
BITMAP
0000
0000
0000
0000
F0F0
F0F0
F0F0
F0F0
F0F0
F0F0
F0F0
F0F0
3FF0
3FF0
00F0
00F0
00F0
00F0
F0F0
F0F0
3FC0
3FC0
0000
0000
0000
0000
ENDCHAR
STARTCHAR afii10038
ENCODING 1060
SWIDTH 994 0
DWIDTH 14 0
BBX 14 26 0 -6
BITMAP
0000
0000
0300
0300
3FF0
3FF0
F33C
F33C
F33C
F33C
F33C
F33C
F33C
F33C
F33C
F33C
F33C
F33C
F33C
F33C
3FF0
3FF0
0300
0300
0000
0000
ENDCHAR
STARTCHAR afii10039
ENCODING 1061
SWIDTH 994 0
DWIDTH 14 0
BBX 14 26 0 -6
BITMAP
0000
0000
0000
0000
C030
C030
F0F0
F0F0
30C0
30C0
3FC0
3FC0
0F00
0F00
3FC0
3FC0
30C0
30C0
F0F0
F0F0
C030
C030
0000
0000
0000
0000
ENDCHAR
STARTCHAR afii10040
ENCODING 1062
SWIDTH 994 0
DWIDTH 14 0
BBX 14 26 0 -6
BITMAP
0000
0000
0000
0000
F0F0
F0F0
F0F0
F0F0
F0F0
F0F0
F0F0
F0F0
F0F0
F0F0
F0F0
F0F0
F0F0
F0F0
F0F0
F0F0
FFF0
FFF0
00F0
00F0
00F0
00F0
ENDCHAR
STARTCHAR afii10041
ENCODING 1063
SWIDTH 994 0
DWIDTH 14 0
BBX 14 26 0 -6
BITMAP
0000
0000
0000
0000
F0F0
F0F0
F0F0
F0F0
F0F0
F0F0
F0F0
F0F0
3FF0
3FF0
00F0
00F0
00F0
00F0
00F0
00F0
00F0
00F0
0000
0000
0000
0000
ENDCHAR
STARTCHAR afii10042
ENCODING 1064
SWIDTH 994 0
DWIDTH 14 0
BBX 14 26 0 -6
BITMAP
0000
0000
0000
0000
F33C
F33C
F33C
F33C
F33C
F33C
F33C
F33C
F33C
F33C
F33C
F33C
F33C
F33C
F33C
F33C
FFFC
FFFC
0000
0000
0000
0000
ENDCHAR
STARTCHAR afii10043
ENCODING 1065
SWIDTH 994 0
DWIDTH 14 0
BBX 14 26 0 -6
BITMAP
0000
0000
0000
0000
F33C
F33C
F33C
F33C
F33C
F33C
F33C
F33C
F33C
F33C
F33C
F33C
F33C
F33C
F33C
F33C
FFFC
FFFC
003C
003C
003C
003C
ENDCHAR
STARTCHAR afii10044
ENCODING 1066
SWIDTH 994 0
DWIDTH 14 0
BBX 14 26 0 -6
BITMAP
0000
0000
0000
0000
FF00
FF00
0F00
0F00
0F00
0F00
0F00
0F00
0FF0
0FF0
0F3C
0F3C
0F3C
0F3C
0F3C
0F3C
0FF0
0FF0
0000
0000
0000
0000
ENDCHAR
STARTCHAR afii10045
ENCODING 1067
SWIDTH 994 0
DWIDTH 14 0
BBX 14 26 0 -6
BITMAP
0000
0000
0000
0000
F03C
F03C
F03C
F03C
F03C
F03C
F03C
F03C
FC3C
FC3C
F33C
F33C
F33C
F33C
F33C
F33C
FC3C
FC3C
0000
0000
0000
0000
ENDCHAR
STARTCHAR afii10046
ENCODING 1068
SWIDTH 994 0
DWIDTH 14 0
BBX 14 26 0 -6
BITMAP
0000
0000
0000
0000
F000
F000
F000
F000
F000
F000
F000
F000
FF00
FF00
F3C0
F3C0
F3C0
F3C0
F3C0
F3C0
FF00
FF00
0000
0000
0000
0000
ENDCHAR
STARTCHAR afii10047
ENCODING 1069
SWIDTH 994 0
DWIDTH 14 0
BBX 14 26 0 -6
BITMAP
0000
0000
0000
0000
3F00
3F00
F3C0
F3C0
00F0
00F0
00F0
00F0
0FF0
0FF0
00F0
00F0
00F0
00F0
F3C0
F3C0
3F00
3F00
0000
0000
0000
0000
ENDCHAR
STARTCHAR afii10048
ENCODING 1070
SWIDTH 994 0
DWIDTH 14 0
BBX 14 26 0 -6
BITMAP
0000
0000
0000
0000
F0F0
F0F0
F33C
F33C
F33C
F33C
F33C
F33C
FF3C
FF3C
F33C
F33C
F33C
F33C
F33C
F33C
F0F0
F0F0
0000
0000
0000
0000
ENDCHAR
STARTCHAR afii10049
ENCODING 1071
SWIDTH 994 0
DWIDTH 14 0
BBX 14 26 0 -6
BITMAP
0000
0000
0000
0000
3FF0
3FF0
F0F0
F0F0
F0F0
F0F0
F0F0
F0F0
3FF0
3FF0
03F0
03F0
0FF0
0FF0
3CF0
3CF0
F0F0
F0F0
0000
0000
0000
0000
ENDCHAR
STARTCHAR afii10065
ENCODING 1072
SWIDTH 994 0
DWIDTH 14 0
BBX 14 26 0 -6
BITMAP
0000
0000
0000
0000
0000
0000
0000
0000
0000
0000
3FC0
3FC0
00F0
00F0
3FF0
3FF0
F0F0
F0F0
F0F0
F0F0
3FF0
3FF0
0000
0000
0000
0000
ENDCHAR
STARTCHAR afii10066
ENCODING 1073
SWIDTH 994 0
DWIDTH 14 0
BBX 14 26 0 -6
BITMAP
0000
0000
0000
0000
0FC0
0FC0
3C00
3C00
F000
F000
FFC0
FFC0
F0F0
F0F0
F0F0
F0F0
F0F0
F0F0
F0F0
F0F0
FFC0
FFC0
0000
0000
0000
0000
ENDCHAR
STARTCHAR afii10067
ENCODING 1074
SWIDTH 994 0
DWIDTH 14 0
BBX 14 26 0 -6
BITMAP
0000
0000
0000
0000
0000
0000
0000
0000
0000
0000
FFC0
FFC0
F0F0
F0F0
FFC0
FFC0
F0F0
F0F0
F0F0
F0F0
FFC0
FFC0
0000
0000
0000
0000
ENDCHAR
STARTCHAR afii10068
ENCODING 1075
SWIDTH 994 0
DWIDTH 14 0
BBX 14 26 0 -6
BITMAP
0000
0000
0000
0000
0000
0000
0000
0000
0000
0000
FFC0
FFC0
F000
F000
F000
F000
F000
F000
F000
F000
F000
F000
0000
0000
0000
0000
ENDCHAR
STARTCHAR afii10069
ENCODING 1076
SWIDTH 994 0
DWIDTH 14 0
BBX 14 26 0 -6
BITMAP
0000
0000
0000
0000
0000
0000
0000
0000
0000
0000
0FF0
0FF0
0CF0
0CF0
3CF0
3CF0
3CF0
3CF0
F0F0
F0F0
FFF0
FFF0
F0F0
F0F0
0000
0000
ENDCHAR
STARTCHAR afii10070
ENCODING 1077
SWIDTH 994 0
DWIDTH 14 0
BBX 14 26 0 -6
BITMAP
0000
0000
0000
0000
0000
0000
0000
0000
0000
0000
3FC0
3FC0
F0F0
F0F0
FFF0
FFF0
F000
F000
F0F0
F0F0
3FC0
3FC0
0000
0000
0000
0000
ENDCHAR
STARTCHAR afii10072
ENCODING 1078
SWIDTH 994 0
DWIDTH 14 0
BBX 14 26 0 -6
BITMAP
0000
0000
0000
0000
0000
0000
0000
0000
0000
0000
F33C
F33C
3FF0
3FF0
0FC0
0FC0
3FF0
3FF0
F33C
F33C
F33C
F33C
0000
0000
0000
0000
ENDCHAR
STARTCHAR afii10073
ENCODING 1079
SWIDTH 994 0
DWIDTH 14 0
BBX 14 26 0 -6
BITMAP
0000
0000
0000
0000
0000
0000
0000
0000
0000
0000
3FC0
3FC0
F0F0
F0F0
03C0
03C0
00F0
00F0
F0F0
F0F0
3FC0
3FC0
0000
0000
0000
0000
ENDCHAR
STARTCHAR afii10074
ENCODING 1080
SWIDTH 994 0
DWIDTH 14 0
BBX 14 26 0 -6
BITMAP
0000
0000
0000
0000
0000
0000
0000
0000
0000
0000
F0F0
F0F0
F0F0
F0F0
F3F0
F3F0
FCF0
FCF0
F0F0
F0F0
F0F0
F0F0
0000
0000
0000
0000
ENDCHAR
STARTCHAR afii10075
ENCODING 1081
SWIDTH 994 0
DWIDTH 14 0
BBX 14 26 0 -6
BITMAP
0000
0000
0000
0000
3CF0
3CF0
0FC0
0FC0
0000
0000
F0F0
F0F0
F0F0
F0F0
F3F0
F3F0
FCF0
FCF0
F0F0
F0F0
F0F0
F0F0
0000
0000
0000
0000
ENDCHAR
STARTCHAR afii10076
ENCODING 1082
SWIDTH 994 0
DWIDTH 14 0
BBX 14 26 0 -6
BITMAP
0000
0000
0000
0000
0000
0000
0000
0000
0000
0000
F0F0
F0F0
F3C0
F3C0
FF00
FF00
F3C0
F3C0
F0F0
F0F0
F0F0
F0F0
0000
0000
0000
0000
ENDCHAR
STARTCHAR afii10077
ENCODING 1083
SWIDTH 994 0
DWIDTH 14 0
BBX 14 26 0 -6
BITMAP
0000
0000
0000
0000
0000
0000
0000
0000
0000
0000
0FF0
0FF0
0FF0
0FF0
3CF0
3CF0
3CF0
3CF0
F0F0
F0F0
F0F0
F0F0
0000
0000
0000
0000
ENDCHAR
STARTCHAR afii10078
ENCODING 1084
SWIDTH 994 0
DWIDTH 14 0
BBX 14 26 0 -6
BITMAP
0000
0000
0000
0000
0000
0000
0000
0000
0000
0000
C030
C030
F0F0
F0F0
FFF0
FFF0
F0F0
F0F0
F0F0
F0F0
F0F0
F0F0
0000
0000
0000
0000
ENDCHAR
STARTCHAR afii10079
ENCODING 1085
SWIDTH 994 0
DWIDTH 14 0
BBX 14 26 0 -6
BITMAP
0000
0000
0000
0000
0000
0000
0000
0000
0000
0000
F0F0
F0F0
F0F0
F0F0
FFF0
FFF0
F0F0
F0F0
F0F0
F0F0
F0F0
F0F0
0000
0000
0000
0000
ENDCHAR
STARTCHAR afii10080
ENCODING 1086
SWIDTH 994 0
DWIDTH 14 0
BBX 14 26 0 -6
BITMAP
0000
0000
0000
0000
0000
0000
0000
0000
0000
0000
3FC0
3FC0
F0F0
F0F0
F0F0
F0F0
F0F0
F0F0
F0F0
F0F0
3FC0
3FC0
0000
0000
0000
0000
ENDCHAR
STARTCHAR afii10081
ENCODING 1087
SWIDTH 994 0
DWIDTH 14 0
BBX 14 26 0 -6
BITMAP
0000
0000
0000
0000
0000
0000
0000
0000
0000
0000
FFF0
FFF0
F0F0
F0F0
F0F0
F0F0
F0F0
F0F0
F0F0
F0F0
F0F0
F0F0
0000
0000
0000
0000
ENDCHAR
STARTCHAR afii10082
ENCODING 1088
SWIDTH 994 0
DWIDTH 14 0
BBX 14 26 0 -6
BITMAP
0000
0000
0000
0000
0000
0000
0000
0000
0000
0000
FFC0
FFC0
F0F0
F0F0
F0F0
F0F0
F0F0
F0F0
FFC0
FFC0
F000
F000
F000
F000
F000
F000
ENDCHAR
STARTCHAR afii10083
ENCODING 1089
SWIDTH 994 0
DWIDTH 14 0
BBX 14 26 0 -6
BITMAP
0000
0000
0000
0000
0000
0000
0000
0000
0000
0000
3FC0
3FC0
F0F0
F0F0
F000
F000
F000
F000
F0F0
F0F0
3FC0
3FC0
0000
0000
0000
0000
ENDCHAR
STARTCHAR afii10084
ENCODING 1090
SWIDTH 994 0
DWIDTH 14 0
BBX 14 26 0 -6
BITMAP
0000
0000
0000
0000
0000
0000
0000
0000
0000
0000
FFF0
FFF0
0F00
0F00
0F00
0F00
0F00
0F00
0F00
0F00
0F00
0F00
0000
0000
0000
0000
ENDCHAR
STARTCHAR afii10085
ENCODING 1091
SWIDTH 994 0
DWIDTH 14 0
BBX 14 26 0 -6
BITMAP
0000
0000
0000
0000
0000
0000
0000
0000
0000
0000
F0F0
F0F0
F0F0
F0F0
F0F0
F0F0
F0F0
F0F0
3FF0
3FF0
00F0
00F0
F0F0
F0F0
3FC0
3FC0
ENDCHAR
STARTCHAR afii10086
ENCODING 1092
SWIDTH 994 0
DWIDTH 14 0
BBX 14 26 0 -6
BITMAP
0000
0000
0000
0000
0000
0000
0F00
0F00
0F00
0F00
3FC0
3FC0
CF30
CF30
CF30
CF30
CF30
CF30
CF30
CF30
3FC0
3FC0
0F00
0F00
0F00
0F00
ENDCHAR
STARTCHAR afii10087
ENCODING 1093
SWIDTH 994 0
DWIDTH 14 0
BBX 14 26 0 -6
BITMAP
0000
0000
0000
0000
0000
0000
0000
0000
0000
0000
F0F0
F0F0
F0F0
F0F0
3FC0
3FC0
3FC0
3FC0
F0F0
F0F0
F0F0
F0F0
0000
0000
0000
0000
ENDCHAR
STARTCHAR afii10088
ENCODING 1094
SWIDTH 994 0
DWIDTH 14 0
BBX 14 26 0 -6
BITMAP
0000
0000
0000
0000
0000
0000
0000
0000
0000
0000
F0F0
F0F0
F0F0
F0F0
F0F0
F0F0
F0F0
F0F0
F0F0
F0F0
FFF0
FFF0
00F0
00F0
00F0
00F0
ENDCHAR
STARTCHAR afii10089
ENCODING 1095
SWIDTH 994 0
DWIDTH 14 0
BBX 14 26 0 -6
BITMAP
0000
0000
0000
0000
0000
0000
0000
0000
0000
0000
F0F0
F0F0
F0F0
F0F0
F0F0
F0F0
3FF0
3FF0
00F0
00F0
00F0
00F0
0000
0000
0000
0000
ENDCHAR
STARTCHAR afii10090
ENCODING 1096
SWIDTH 994 0
DWIDTH 14 0
BBX 14 26 0 -6
BITMAP
0000
0000
0000
0000
0000
0000
0000
0000
0000
0000
F33C
F33C
F33C
F33C
F33C
F33C
F33C
F33C
F33C
F33C
FFFC
FFFC
0000
0000
0000
0000
ENDCHAR
STARTCHAR afii10091
ENCODING 1097
SWIDTH 994 0
DWIDTH 14 0
BBX 14 26 0 -6
BITMAP
0000
0000
0000
0000
0000
0000
0000
0000
0000
0000
F33C
F33C
F33C
F33C
F33C
F33C
F33C
F33C
F33C
F33C
FFFC
FFFC
003C
003C
003C
003C
ENDCHAR
STARTCHAR afii10092
ENCODING 1098
SWIDTH 994 0
DWIDTH 14 0
BBX 14 26 0 -6
BITMAP
0000
0000
0000
0000
0000
0000
0000
0000
0000
0000
FF00
FF00
0F00
0F00
0FF0
0FF0
0F3C
0F3C
0F3C
0F3C
0FF0
0FF0
0000
0000
0000
0000
ENDCHAR
STARTCHAR afii10093
ENCODING 1099
SWIDTH 994 0
DWIDTH 14 0
BBX 14 26 0 -6
BITMAP
0000
0000
0000
0000
0000
0000
0000
0000
0000
0000
F03C
F03C
F03C
F03C
FC3C
FC3C
F33C
F33C
F33C
F33C
FC3C
FC3C
0000
0000
0000
0000
ENDCHAR
STARTCHAR afii10094
ENCODING 1100
SWIDTH 994 0
DWIDTH 14 0
BBX 14 26 0 -6
BITMAP
0000
0000
0000
0000
0000
0000
0000
0000
0000
0000
F000
F000
F000
F000
FF00
FF00
F3C0
F3C0
F3C0
F3C0
FF00
FF00
0000
0000
0000
0000
ENDCHAR
STARTCHAR afii10095
ENCODING 1101
SWIDTH 994 0
DWIDTH 14 0
BBX 14 26 0 -6
BITMAP
0000
0000
0000
0000
0000
0000
0000
0000
0000
0000
3FC0
3FC0
F0F0
F0F0
03F0
03F0
00F0
00F0
F0F0
F0F0
3FC0
3FC0
0000
0000
0000
0000
ENDCHAR
STARTCHAR afii10096
ENCODING 1102
SWIDTH 994 0
DWIDTH 14 0
BBX 14 26 0 -6
BITMAP
0000
0000
0000
0000
0000
0000
0000
0000
0000
0000
F0F0
F0F0
F33C
F33C
FF3C
FF3C
F33C
F33C
F33C
F33C
F0F0
F0F0
0000
0000
0000
0000
ENDCHAR
STARTCHAR afii10097
ENCODING 1103
SWIDTH 994 0
DWIDTH 14 0
BBX 14 26 0 -6
BITMAP
0000
0000
0000
0000
0000
0000
0000
0000
0000
0000
3FF0
3FF0
F0F0
F0F0
3FF0
3FF0
0FF0
0FF0
3CF0
3CF0
F0F0
F0F0
0000
0000
0000
0000
ENDCHAR
STARTCHAR afii10071
ENCODING 1105
SWIDTH 994 0
DWIDTH 14 0
BBX 14 26 0 -6
BITMAP
0000
0000
0000
0000
3CF0
3CF0
3CF0
3CF0
0000
0000
3FC0
3FC0
F0F0
F0F0
FFF0
FFF0
F000
F000
F0F0
F0F0
3FC0
3FC0
0000
0000
0000
0000
ENDCHAR
STARTCHAR afii10099
ENCODING 1106
SWIDTH 994 0
DWIDTH 14 0
BBX 14 26 0 -6
BITMAP
0000
0000
0000
0000
0000
0000
3C00
3C00
3C00
3C00
FF00
FF00
3C00
3C00
3FC0
3FC0
3CF0
3CF0
3CF0
3CF0
3CF0
3CF0
00F0
00F0
03C0
03C0
ENDCHAR
STARTCHAR afii10100
ENCODING 1107
SWIDTH 994 0
DWIDTH 14 0
BBX 14 26 0 -6
BITMAP
0000
0000
0000
0000
03C0
03C0
0F00
0F00
0000
0000
FFC0
FFC0
F000
F000
F000
F000
F000
F000
F000
F000
F000
F000
0000
0000
0000
0000
ENDCHAR
STARTCHAR afii10101
ENCODING 1108
SWIDTH 994 0
DWIDTH 14 0
BBX 14 26 0 -6
BITMAP
0000
0000
0000
0000
0000
0000
0000
0000
0000
0000
3FC0
3FC0
F0F0
F0F0
FC00
FC00
F000
F000
F0F0
F0F0
3FC0
3FC0
0000
0000
0000
0000
ENDCHAR
STARTCHAR afii10102
ENCODING 1109
SWIDTH 994 0
DWIDTH 14 0
BBX 14 26 0 -6
BITMAP
0000
0000
0000
0000
0000
0000
0000
0000
0000
0000
3FC0
3FC0
F0F0
F0F0
3C00
3C00
03C0
03C0
F0F0
F0F0
3FC0
3FC0
0000
0000
0000
0000
ENDCHAR
STARTCHAR afii10103
ENCODING 1110
SWIDTH 994 0
DWIDTH 14 0
BBX 14 26 0 -6
BITMAP
0000
0000
0000
0000
0F00
0F00
0F00
0F00
0000
0000
3F00
3F00
0F00
0F00
0F00
0F00
0F00
0F00
0F00
0F00
FFF0
FFF0
0000
0000
0000
0000
ENDCHAR
STARTCHAR afii10104
ENCODING 1111
SWIDTH 994 0
DWIDTH 14 0
BBX 14 26 0 -6
BITMAP
0000
0000
0000
0000
F3C0
F3C0
F3C0
F3C0
0000
0000
3F00
3F00
0F00
0F00
0F00
0F00
0F00
0F00
0F00
0F00
FFF0
FFF0
0000
0000
0000
0000
ENDCHAR
STARTCHAR afii10105
ENCODING 1112
SWIDTH 994 0
DWIDTH 14 0
BBX 14 26 0 -6
BITMAP
0000
0000
0000
0000
00F0
00F0
00F0
00F0
0000
0000
00F0
00F0
00F0
00F0
00F0
00F0
00F0
00F0
00F0
00F0
3CF0
3CF0
3CF0
3CF0
0FC0
0FC0
ENDCHAR
STARTCHAR afii10106
ENCODING 1113
SWIDTH 994 0
DWIDTH 14 0
BBX 14 26 0 -6
BITMAP
0000
0000
0000
0000
0000
0000
0000
0000
0000
0000
FF00
FF00
F300
F300
F3F0
F3F0
F33C
F33C
F33C
F33C
F3F0
F3F0
0000
0000
0000
0000
ENDCHAR
STARTCHAR afii10107
ENCODING 1114
SWIDTH 994 0
DWIDTH 14 0
BBX 14 26 0 -6
BITMAP
0000
0000
0000
0000
0000
0000
0000
0000
0000
0000
F300
F300
F300
F300
FFF0
FFF0
F33C
F33C
F33C
F33C
F3F0
F3F0
0000
0000
0000
0000
ENDCHAR
STARTCHAR afii10108
ENCODING 1115
SWIDTH 994 0
DWIDTH 14 0
BBX 14 26 0 -6
BITMAP
0000
0000
0000
0000
0000
0000
3C00
3C00
3C00
3C00
FF00
FF00
3C00
3C00
3FC0
3FC0
3CF0
3CF0
3CF0
3CF0
3CF0
3CF0
0000
0000
0000
0000
ENDCHAR
STARTCHAR afii10109
ENCODING 1116
SWIDTH 994 0
DWIDTH 14 0
BBX 14 26 0 -6
BITMAP
0000
0000
0000
0000
03C0
03C0
0F00
0F00
0000
0000
F0F0
F0F0
F3C0
F3C0
FF00
FF00
F3C0
F3C0
F0F0
F0F0
F0F0
F0F0
0000
0000
0000
0000
ENDCHAR
STARTCHAR afii10110
ENCODING 1118
SWIDTH 994 0
DWIDTH 14 0
BBX 14 26 0 -6
BITMAP
0000
0000
0000
0000
3CF0
3CF0
0FC0
0FC0
0000
0000
F0F0
F0F0
F0F0
F0F0
F0F0
F0F0
F0F0
F0F0
3FF0
3FF0
00F0
00F0
F0F0
F0F0
3FC0
3FC0
ENDCHAR
STARTCHAR afii10193
ENCODING 1119
SWIDTH 994 0
DWIDTH 14 0
BBX 14 26 0 -6
BITMAP
0000
0000
0000
0000
0000
0000
0000
0000
0000
0000
F0F0
F0F0
F0F0
F0F0
F0F0
F0F0
F0F0
F0F0
F0F0
F0F0
FFF0
FFF0
0F00
0F00
0F00
0F00
ENDCHAR
STARTCHAR afii10050
ENCODING 1168
SWIDTH 994 0
DWIDTH 14 0
BBX 14 26 0 -6
BITMAP
00F0
00F0
00F0
00F0
FFF0
FFF0
F000
F000
F000
F000
F000
F000
F000
F000
F000
F000
F000
F000
F000
F000
F000
F000
0000
0000
0000
0000
ENDCHAR
STARTCHAR afii10098
ENCODING 1169
SWIDTH 994 0
DWIDTH 14 0
BBX 14 26 0 -6
BITMAP
0000
0000
0000
0000
0000
0000
03C0
03C0
03C0
03C0
FFC0
FFC0
F000
F000
F000
F000
F000
F000
F000
F000
F000
F000
0000
0000
0000
0000
ENDCHAR
STARTCHAR afii57664
ENCODING 1488
SWIDTH 994 0
DWIDTH 14 0
BBX 14 26 0 -6
BITMAP
0000
0000
0000
0000
0000
0000
0000
0000
0000
0000
F3C0
F3C0
3CF0
3CF0
3CF0
3CF0
F3C0
F3C0
F3C0
F3C0
F3C0
F3C0
0000
0000
0000
0000
ENDCHAR
STARTCHAR afii57665
ENCODING 1489
SWIDTH 994 0
DWIDTH 14 0
BBX 14 26 0 -6
BITMAP
0000
0000
0000
0000
0000
0000
0000
0000
0000
0000
3FC0
3FC0
03C0
03C0
03C0
03C0
03C0
03C0
03C0
03C0
3FF0
3FF0
0000
0000
0000
0000
ENDCHAR
STARTCHAR afii57666
ENCODING 1490
SWIDTH 994 0
DWIDTH 14 0
BBX 14 26 0 -6
BITMAP
0000
0000
0000
0000
0000
0000
0000
0000
0000
0000
3C00
3C00
0F00
0F00
03C0
03C0
03C0
03C0
0FF0
0FF0
3CF0
3CF0
0000
0000
0000
0000
ENDCHAR
STARTCHAR afii57667
ENCODING 1491
SWIDTH 994 0
DWIDTH 14 0
BBX 14 26 0 -6
BITMAP
0000
0000
0000
0000
0000
0000
0000
0000
0000
0000
3FF0
3FF0
03C0
03C0
03C0
03C0
03C0
03C0
03C0
03C0
03C0
03C0
0000
0000
0000
0000
ENDCHAR
STARTCHAR afii57668
ENCODING 1492
SWIDTH 994 0
DWIDTH 14 0
BBX 14 26 0 -6
BITMAP
0000
0000
0000
0000
0000
0000
0000
0000
0000
0000
3FF0
3FF0
00F0
00F0
00F0
00F0
3CF0
3CF0
3CF0
3CF0
3CF0
3CF0
0000
0000
0000
0000
ENDCHAR
STARTCHAR afii57669
ENCODING 1493
SWIDTH 994 0
DWIDTH 14 0
BBX 14 26 0 -6
BITMAP
0000
0000
0000
0000
0000
0000
0000
0000
0000
0000
3F00
3F00
0F00
0F00
0F00
0F00
0F00
0F00
0F00
0F00
0F00
0F00
0000
0000
0000
0000
ENDCHAR
STARTCHAR afii57670
ENCODING 1494
SWIDTH 994 0
DWIDTH 14 0
BBX 14 26 0 -6
BITMAP
0000
0000
0000
0000
0000
0000
0000
0000
0000
0000
3FF0
3FF0
0F00
0F00
0F00
0F00
03C0
03C0
03C0
03C0
03C0
03C0
0000
0000
0000
0000
ENDCHAR
STARTCHAR afii57671
ENCODING 1495
SWIDTH 994 0
DWIDTH 14 0
BBX 14 26 0 -6
BITMAP
0000
0000
0000
0000
0000
0000
0000
0000
0000
0000
FFF0
FFF0
3CF0
3CF0
3CF0
3CF0
3CF0
3CF0
3CF0
3CF0
3CF0
3CF0
0000
0000
0000
0000
ENDCHAR
STARTCHAR afii57672
ENCODING 1496
SWIDTH 994 0
DWIDTH 14 0
BBX 14 26 0 -6
BITMAP
0000
0000
0000
0000
0000
0000
0000
0000
0000
0000
F0F0
F0F0
F3F0
F3F0
F3F0
F3F0
F0F0
F0F0
F0F0
F0F0
FFF0
FFF0
0000
0000
0000
0000
ENDCHAR
STARTCHAR afii57673
ENCODING 1497
SWIDTH 994 0
DWIDTH 14 0
BBX 14 26 0 -6
BITMAP
0000
0000
0000
0000
0000
0000
0000
0000
0000
0000
3F00
3F00
0F00
0F00
0F00
0F00
0000
0000
0000
0000
0000
0000
0000
0000
0000
0000
ENDCHAR
STARTCHAR afii57674
ENCODING 1498
SWIDTH 994 0
DWIDTH 14 0
BBX 14 26 0 -6
BITMAP
0000
0000
0000
0000
0000
0000
0000
0000
0000
0000
3FF0
3FF0
00F0
00F0
00F0
00F0
00F0
00F0
00F0
00F0
00F0
00F0
00F0
00F0
00F0
00F0
ENDCHAR
STARTCHAR afii57675
ENCODING 1499
SWIDTH 994 0
DWIDTH 14 0
BBX 14 26 0 -6
BITMAP
0000
0000
0000
0000
0000
0000
0000
0000
0000
0000
3FF0
3FF0
00F0
00F0
00F0
00F0
00F0
00F0
00F0
00F0
3FC0
3FC0
0000
0000
0000
0000
ENDCHAR
STARTCHAR afii57676
ENCODING 1500
SWIDTH 994 0
DWIDTH 14 0
BBX 14 26 0 -6
BITMAP
0000
0000
0000
0000
3C00
3C00
3C00
3C00
3C00
3C00
3FF0
3FF0
00F0
00F0
00F0
00F0
00F0
00F0
03C0
03C0
0F00
0F00
0000
0000
0000
0000
ENDCHAR
STARTCHAR afii57677
ENCODING 1501
SWIDTH 994 0
DWIDTH 14 0
BBX 14 26 0 -6
BITMAP
0000
0000
0000
0000
0000
0000
0000
0000
0000
0000
FFF0
FFF0
3CF0
3CF0
3CF0
3CF0
3CF0
3CF0
3CF0
3CF0
3FF0
3FF0
0000
0000
0000
0000
ENDCHAR
STARTCHAR afii57678
ENCODING 1502
SWIDTH 994 0
DWIDTH 14 0
BBX 14 26 0 -6
BITMAP
0000
0000
0000
0000
0000
0000
0000
0000
0000
0000
F3C0
F3C0
FFF0
FFF0
3CF0
3CF0
F0F0
F0F0
F0F0
F0F0
F3F0
F3F0
0000
0000
0000
0000
ENDCHAR
STARTCHAR afii57679
ENCODING 1503
SWIDTH 994 0
DWIDTH 14 0
BBX 14 26 0 -6
BITMAP
0000
0000
0000
0000
0000
0000
0000
0000
0000
0000
3F00
3F00
0F00
0F00
0F00
0F00
0F00
0F00
0F00
0F00
0F00
0F00
0F00
0F00
0F00
0F00
ENDCHAR
STARTCHAR afii57680
ENCODING 1504
SWIDTH 994 0
DWIDTH 14 0
BBX 14 26 0 -6
BITMAP
0000
0000
0000
0000
0000
0000
0000
0000
0000
0000
0FC0
0FC0
03C0
03C0
03C0
03C0
03C0
03C0
03C0
03C0
3FC0
3FC0
0000
0000
0000
0000
ENDCHAR
STARTCHAR afii57681
ENCODING 1505
SWIDTH 994 0
DWIDTH 14 0
BBX 14 26 0 -6
BITMAP
0000
0000
0000
0000
0000
0000
0000
0000
0000
0000
FFF0
FFF0
3CF0
3CF0
3CF0
3CF0
3CC0
3CC0
3F00
3F00
3C00
3C00
0000
0000
0000
0000
ENDCHAR
STARTCHAR afii57682
ENCODING 1506
SWIDTH 994 0
DWIDTH 14 0
BBX 14 26 0 -6
BITMAP
0000
0000
0000
0000
0000
0000
0000
0000
0000
0000
FCF0
FCF0
3CF0
3CF0
3CF0
3CF0
3CF0
3CF0
3CC0
3CC0
FF00
FF00
0000
0000
0000
0000
ENDCHAR
STARTCHAR afii57683
ENCODING 1507
SWIDTH 994 0
DWIDTH 14 0
BBX 14 26 0 -6
BITMAP
0000
0000
0000
0000
0000
0000
0000
0000
0000
0000
FFF0
FFF0
F0F0
F0F0
F0F0
F0F0
FCF0
FCF0
00F0
00F0
00F0
00F0
00F0
00F0
00F0
00F0
ENDCHAR
STARTCHAR afii57684
ENCODING 1508
SWIDTH 994 0
DWIDTH 14 0
BBX 14 26 0 -6
BITMAP
0000
0000
0000
0000
0000
0000
0000
0000
0000
0000
FFFC
FFFC
3C3C
3C3C
3F3C
3F3C
003C
003C
003C
003C
FFF0
FFF0
0000
0000
0000
0000
ENDCHAR
STARTCHAR afii57685
ENCODING 1509
SWIDTH 994 0
DWIDTH 14 0
BBX 14 26 0 -6
BITMAP
0000
0000
0000
0000
0000
0000
0000
0000
0000
0000
F3C0
F3C0
3CF0
3CF0
3CF0
3CF0
3FC0
3FC0
3C00
3C00
3C00
3C00
3C00
3C00
3C00
3C00
ENDCHAR
STARTCHAR afii57686
ENCODING 1510
SWIDTH 994 0
DWIDTH 14 0
BBX 14 26 0 -6
BITMAP
0000
0000
0000
0000
0000
0000
0000
0000
0000
0000
F3C0
F3C0
3CF0
3CF0
0FF0
0FF0
03C0
03C0
00F0
00F0
FFF0
FFF0
0000
0000
0000
0000
ENDCHAR
STARTCHAR afii57687
ENCODING 1511
SWIDTH 994 0
DWIDTH 14 0
BBX 14 26 0 -6
BITMAP
0000
0000
0000
0000
0000
0000
0000
0000
0000
0000
FFFC
FFFC
003C
003C
F03C
F03C
F03C
F03C
F03C
F03C
F3F0
F3F0
F000
F000
F000
F000
ENDCHAR
STARTCHAR afii57688
ENCODING 1512
SWIDTH 994 0
DWIDTH 14 0
BBX 14 26 0 -6
BITMAP
0000
0000
0000
0000
0000
0000
0000
0000
0000
0000
3FC0
3FC0
00F0
00F0
00F0
00F0
00F0
00F0
00F0
00F0
00F0
00F0
0000
0000
0000
0000
ENDCHAR
STARTCHAR afii57689
ENCODING 1513
SWIDTH 994 0
DWIDTH 14 0
BBX 14 26 0 -6
BITMAP
0000
0000
0000
0000
0000
0000
0000
0000
0000
0000
F33C
F33C
F33C
F33C
F33C
F33C
FF3C
FF3C
F03C
F03C
FFF0
FFF0
0000
0000
0000
0000
ENDCHAR
STARTCHAR afii57690
ENCODING 1514
SWIDTH 994 0
DWIDTH 14 0
BBX 14 26 0 -6
BITMAP
0000
0000
0000
0000
0000
0000
0000
0000
0000
0000
FFF0
FFF0
3CF0
3CF0
3CF0
3CF0
3CF0
3CF0
3CF0
3CF0
FCF0
FCF0
0000
0000
0000
0000
ENDCHAR
STARTCHAR uni0E01
ENCODING 3585
SWIDTH 994 0
DWIDTH 14 0
BBX 14 26 0 -6
BITMAP
0000
0000
0000
0000
0000
0000
0000
0000
0000
0000
FFC0
FFC0
30F0
30F0
F0F0
F0F0
F0F0
F0F0
F0F0
F0F0
F0F0
F0F0
0000
0000
0000
0000
ENDCHAR
STARTCHAR uni0E02
ENCODING 3586
SWIDTH 994 0
DWIDTH 14 0
BBX 14 26 0 -6
BITMAP
0000
0000
0000
0000
0000
0000
0000
0000
0000
0000
3FF0
3FF0
0FF0
0FF0
0FF0
0FF0
3CF0
3CF0
3CF0
3CF0
0FC0
0FC0
0000
0000
0000
0000
ENDCHAR
STARTCHAR uni0E03
ENCODING 3587
SWIDTH 994 0
DWIDTH 14 0
BBX 14 26 0 -6
BITMAP
0000
0000
0000
0000
0000
0000
0000
0000
0000
0000
CFF0
CFF0
FFF0
FFF0
0FF0
0FF0
3CF0
3CF0
3CF0
3CF0
0FC0
0FC0
0000
0000
0000
0000
ENDCHAR
STARTCHAR uni0E04
ENCODING 3588
SWIDTH 994 0
DWIDTH 14 0
BBX 14 26 0 -6
BITMAP
0000
0000
0000
0000
0000
0000
0000
0000
0000
0000
3FC0
3FC0
F0F0
F0F0
F0F0
F0F0
FCF0
FCF0
F0F0
F0F0
F0F0
F0F0
0000
0000
0000
0000
ENDCHAR
STARTCHAR uni0E05
ENCODING 3589
SWIDTH 994 0
DWIDTH 14 0
BBX 14 26 0 -6
BITMAP
0000
0000
0000
0000
0000
0000
0000
0000
0000
0000
30C0
30C0
FFF0
FFF0
F0F0
F0F0
FCF0
FCF0
F0F0
F0F0
F0F0
F0F0
0000
0000
0000
0000
ENDCHAR
STARTCHAR uni0E06
ENCODING 3590
SWIDTH 994 0
DWIDTH 14 0
BBX 14 26 0 -6
BITMAP
0000
0000
0000
0000
0000
0000
0000
0000
0000
0000
CCF0
CCF0
FCF0
FCF0
0CF0
0CF0
3CF0
3CF0
FCF0
FCF0
F3C0
F3C0
0000
0000
0000
0000
ENDCHAR
STARTCHAR uni0E07
ENCODING 3591
SWIDTH 994 0
DWIDTH 14 0
BBX 14 26 0 -6
BITMAP
0000
0000
0000
0000
0000
0000
0000
0000
0000
0000
0FC0
0FC0
03C0
03C0
03C0
03C0
F3C0
F3C0
3FC0
3FC0
0FC0
0FC0
0000
0000
0000
0000
ENDCHAR
STARTCHAR uni0E08
ENCODING 3592
SWIDTH 994 0
DWIDTH 14 0
BBX 14 26 0 -6
BITMAP
0000
0000
0000
0000
0000
0000
0000
0000
0000
0000
3FC0
3FC0
F0F0
F0F0
00F0
00F0
0FF0
0FF0
00F0
00F0
00F0
00F0
0000
0000
0000
0000
ENDCHAR
STARTCHAR uni0E09
ENCODING 3593
SWIDTH 994 0
DWIDTH 14 0
BBX 14 26 0 -6
BITMAP
0000
0000
0000
0000
0000
0000
0000
0000
0000
0000
3FC0
3FC0
F0F0
F0F0
00F0
00F0
FCF0
FCF0
3FFC
3FFC
3CF0
3CF0
0000
0000
0000
0000
ENDCHAR
STARTCHAR uni0E0A
ENCODING 3594
SWIDTH 994 0
DWIDTH 14 0
BBX 14 26 0 -6
BITMAP
0000
0000
0000
0000
0000
0000
0000
0000
00F0
00F0
FCF0
FCF0
3FC0
3FC0
3CF0
3CF0
F0F0
F0F0
F0F0
F0F0
3FC0
3FC0
0000
0000
0000
0000
ENDCHAR
STARTCHAR uni0E0B
ENCODING 3595
SWIDTH 994 0
DWIDTH 14 0
BBX 14 26 0 -6
BITMAP
0000
0000
0000
0000
0000
0000
0000
0000
00F0
00F0
CCF0
CCF0
FFC0
FFC0
0CF0
0CF0
3CF0
3CF0
3CF0
3CF0
0FC0
0FC0
0000
0000
0000
0000
ENDCHAR
STARTCHAR uni0E0C
ENCODING 3596
SWIDTH 994 0
DWIDTH 14 0
BBX 14 26 0 -6
BITMAP
0000
0000
0000
0000
0000
0000
0000
0000
0000
0000
3CF0
3CF0
CCF0
CCF0
3CF0
3CF0
CCF0
CCF0
FFF0
FFF0
FCF0
FCF0
0000
0000
0000
0000
ENDCHAR
STARTCHAR uni0E0D
ENCODING 3597
SWIDTH 994 0
DWIDTH 14 0
BBX 14 26 0 -6
BITMAP
0000
0000
0000
0000
0000
0000
0000
0000
0000
0000
3CF0
3CF0
CCF0
CCF0
3CF0
3CF0
CFF0
CFF0
FF00
FF00
FFF0
FFF0
0000
0000
0000
0000
ENDCHAR
STARTCHAR uni0E0E
ENCODING 3598
SWIDTH 994 0
DWIDTH 14 0
BBX 14 26 0 -6
BITMAP
0000
0000
0000
0000
0000
0000
0000
0000
0000
0000
3FC0
3FC0
F0F0
F0F0
3CF0
3CF0
3CF0
3CF0
FCF0
FCF0
FCF0
FCF0
0FF0
0FF0
30F0
30F0
ENDCHAR
STARTCHAR uni0E0F
ENCODING 3599
SWIDTH 994 0
DWIDTH 14 0
BBX 14 26 0 -6
BITMAP
0000
0000
0000
0000
0000
0000
0000
0000
0000
0000
3FC0
3FC0
F0F0
F0F0
3CF0
3CF0
3CF0
3CF0
FCF0
FCF0
FCF0
FCF0
0CF0
0CF0
F3F0
F3F0
ENDCHAR
STARTCHAR uni0E10
ENCODING 3600
SWIDTH 994 0
DWIDTH 14 0
BBX 14 26 0 -6
BITMAP
0000
0000
0000
0000
0000
0000
0000
0000
0000
0000
3FF0
3FF0
F000
F000
3FC0
3FC0
00F0
00F0
3CF0
3CF0
03F0
03F0
CCF0
CCF0
33F0
33F0
ENDCHAR
STARTCHAR uni0E11
ENCODING 3601
SWIDTH 994 0
DWIDTH 14 0
BBX 14 26 0 -6
BITMAP
0000
0000
0000
0000
0000
0000
0000
0000
0000
0000
CCF0
CCF0
FFF0
FFF0
0CF0
0CF0
3CF0
3CF0
3CF0
3CF0
3CF0
3CF0
0000
0000
0000
0000
ENDCHAR
STARTCHAR uni0E12
ENCODING 3602
SWIDTH 994 0
DWIDTH 14 0
BBX 14 26 0 -6
BITMAP
0000
0000
0000
0000
0000
0000
0000
0000
0000
0000
CCF0
CCF0
FCF0
FCF0
CCF0
CCF0
CCF0
CCF0
FFF0
FFF0
FCF0
FCF0
0000
0000
0000
0000
ENDCHAR
STARTCHAR uni0E13
ENCODING 3603
SWIDTH 994 0
DWIDTH 14 0
BBX 14 26 0 -6
BITMAP
0000
0000
0000
0000
0000
0000
0000
0000
0000
0000
3CF0
3CF0
CCF0
CCF0
3CF0
3CF0
CCC0
CCC0
CFF0
CFF0
FCF0
FCF0
0000
0000
0000
0000
ENDCHAR
STARTCHAR uni0E14
ENCODING 3604
SWIDTH 994 0
DWIDTH 14 0
BBX 14 26 0 -6
BITMAP
0000
0000
0000
0000
0000
0000
0000
0000
0000
0000
3FC0
3FC0
F0F0
F0F0
F0F0
F0F0
F0F0
F0F0
F0F0
F0F0
3CF0
3CF0
0000
0000
0000
0000
ENDCHAR
STARTCHAR uni0E15
ENCODING 3605
SWIDTH 994 0
DWIDTH 14 0
BBX 14 26 0 -6
BITMAP
0000
0000
0000
0000
0000
0000
0000
0000
0000
0000
30C0
30C0
FFF0
FFF0
F0F0
F0F0
F0F0
F0F0
F0F0
F0F0
3CF0
3CF0
0000
0000
0000
0000
ENDCHAR
STARTCHAR uni0E16
ENCODING 3606
SWIDTH 994 0
DWIDTH 14 0
BBX 14 26 0 -6
BITMAP
0000
0000
0000
0000
0000
0000
0000
0000
0000
0000
FFC0
FFC0
30F0
30F0
F0F0
F0F0
F0F0
F0F0
F0F0
F0F0
3CF0
3CF0
0000
0000
0000
0000
ENDCHAR
STARTCHAR uni0E17
ENCODING 3607
SWIDTH 994 0
DWIDTH 14 0
BBX 14 26 0 -6
BITMAP
0000
0000
0000
0000
0000
0000
0000
0000
0000
0000
F3C0
F3C0
3CF0
3CF0
3CF0
3CF0
3CF0
3CF0
3CF0
3CF0
3CF0
3CF0
0000
0000
0000
0000
ENDCHAR
STARTCHAR uni0E18
ENCODING 3608
SWIDTH 994 0
DWIDTH 14 0
BBX 14 26 0 -6
BITMAP
0000
0000
0000
0000
0000
0000
0000
0000
0000
0000
3FF0
3FF0
F000
F000
FFC0
FFC0
3CF0
3CF0
3CF0
3CF0
0FC0
0FC0
0000
0000
0000
0000
ENDCHAR
STARTCHAR uni0E19
ENCODING 3609
SWIDTH 994 0
DWIDTH 14 0
BBX 14 26 0 -6
BITMAP
0000
0000
0000
0000
0000
0000
0000
0000
0000
0000
F3C0
F3C0
33C0
33C0
F3C0
F3C0
F3C0
F3C0
FFF0
FFF0
F3C0
F3C0
0000
0000
0000
0000
ENDCHAR
STARTCHAR uni0E1A
ENCODING 3610
SWIDTH 994 0
DWIDTH 14 0
BBX 14 26 0 -6
BITMAP
0000
0000
0000
0000
0000
0000
0000
0000
0000
0000
FCF0
FCF0
3CF0
3CF0
3CF0
3CF0
3CF0
3CF0
3CF0
3CF0
0FC0
0FC0
0000
0000
0000
0000
ENDCHAR
STARTCHAR uni0E1B
ENCODING 3611
SWIDTH 994 0
DWIDTH 14 0
BBX 14 26 0 -6
BITMAP
0000
0000
0000
0000
0000
0000
00F0
00F0
00F0
00F0
FCF0
FCF0
3CF0
3CF0
3CF0
3CF0
3CF0
3CF0
3CF0
3CF0
0FC0
0FC0
0000
0000
0000
0000
ENDCHAR
STARTCHAR uni0E1C
ENCODING 3612
SWIDTH 994 0
DWIDTH 14 0
BBX 14 26 0 -6
BITMAP
0000
0000
0000
0000
0000
0000
0000
0000
0000
0000
FCF0
FCF0
F0F0
F0F0
F0F0
F0F0
F0F0
F0F0
FFF0
FFF0
30C0
30C0
0000
0000
0000
0000
ENDCHAR
STARTCHAR uni0E1D
ENCODING 3613
SWIDTH 994 0
DWIDTH 14 0
BBX 14 26 0 -6
BITMAP
0000
0000
0000
0000
0000
0000
00F0
00F0
00F0
00F0
FCF0
FCF0
F0F0
F0F0
F0F0
F0F0
F0F0
F0F0
FFF0
FFF0
30C0
30C0
0000
0000
0000
0000
ENDCHAR
STARTCHAR uni0E1E
ENCODING 3614
SWIDTH 994 0
DWIDTH 14 0
BBX 14 26 0 -6
BITMAP
0000
0000
0000
0000
0000
0000
0000
0000
0000
0000
FC3C
FC3C
3C3C
3C3C
F03C
F03C
F33C
F33C
F33C
F33C
3CF0
3CF0
0000
0000
0000
0000
ENDCHAR
STARTCHAR uni0E1F
ENCODING 3615
SWIDTH 994 0
DWIDTH 14 0
BBX 14 26 0 -6
BITMAP
0000
0000
0000
0000
0000
0000
003C
003C
003C
003C
FC3C
FC3C
3C3C
3C3C
F03C
F03C
F33C
F33C
F33C
F33C
3CF0
3CF0
0000
0000
0000
0000
ENDCHAR
STARTCHAR uni0E20
ENCODING 3616
SWIDTH 994 0
DWIDTH 14 0
BBX 14 26 0 -6
BITMAP
0000
0000
0000
0000
0000
0000
0000
0000
0000
0000
3FC0
3FC0
F0F0
F0F0
3CF0
3CF0
3CF0
3CF0
3CF0
3CF0
FCF0
FCF0
0000
0000
0000
0000
ENDCHAR
STARTCHAR uni0E21
ENCODING 3617
SWIDTH 994 0
DWIDTH 14 0
BBX 14 26 0 -6
BITMAP
0000
0000
0000
0000
0000
0000
0000
0000
0000
0000
FCF0
FCF0
3CF0
3CF0
3CF0
3CF0
3CF0
3CF0
FCF0
FCF0
F3C0
F3C0
0000
0000
0000
0000
ENDCHAR
STARTCHAR uni0E22
ENCODING 3618
SWIDTH 994 0
DWIDTH 14 0
BBX 14 26 0 -6
BITMAP
0000
0000
0000
0000
0000
0000
0000
0000
0000
0000
FCF0
FCF0
F0F0
F0F0
3CF0
3CF0
F0F0
F0F0
F0F0
F0F0
3FC0
3FC0
0000
0000
0000
0000
ENDCHAR
STARTCHAR uni0E23
ENCODING 3619
SWIDTH 994 0
DWIDTH 14 0
BBX 14 26 0 -6
BITMAP
0000
0000
0000
0000
0000
0000
0000
0000
0000
0000
3FC0
3FC0
F0F0
F0F0
FF00
FF00
03C0
03C0
03C0
03C0
0FC0
0FC0
0000
0000
0000
0000
ENDCHAR
STARTCHAR uni0E24
ENCODING 3620
SWIDTH 994 0
DWIDTH 14 0
BBX 14 26 0 -6
BITMAP
0000
0000
0000
0000
0000
0000
0000
0000
0000
0000
FFC0
FFC0
30F0
30F0
F0F0
F0F0
F0F0
F0F0
F0F0
F0F0
3CF0
3CF0
00F0
00F0
00F0
00F0
ENDCHAR
STARTCHAR uni0E25
ENCODING 3621
SWIDTH 994 0
DWIDTH 14 0
BBX 14 26 0 -6
BITMAP
0000
0000
0000
0000
0000
0000
0000
0000
0000
0000
3FC0
3FC0
F0F0
F0F0
3CF0
3CF0
F3F0
F3F0
F0F0
F0F0
FCF0
FCF0
0000
0000
0000
0000
ENDCHAR
STARTCHAR uni0E26
ENCODING 3622
SWIDTH 994 0
DWIDTH 14 0
BBX 14 26 0 -6
BITMAP
0000
0000
0000
0000
0000
0000
0000
0000
0000
0000
3FC0
3FC0
F0F0
F0F0
3CF0
3CF0
3CF0
3CF0
3CF0
3CF0
FCF0
FCF0
00F0
00F0
00F0
00F0
ENDCHAR
STARTCHAR uni0E27
ENCODING 3623
SWIDTH 994 0
DWIDTH 14 0
BBX 14 26 0 -6
BITMAP
0000
0000
0000
0000
0000
0000
0000
0000
0000
0000
3FC0
3FC0
F0F0
F0F0
00F0
00F0
00F0
00F0
00F0
00F0
03F0
03F0
0000
0000
0000
0000
ENDCHAR
STARTCHAR uni0E28
ENCODING 3624
SWIDTH 994 0
DWIDTH 14 0
BBX 14 26 0 -6
BITMAP
0000
0000
0000
0000
0000
0000
00F0
00F0
00F0
00F0
3FC0
3FC0
F0F0
F0F0
F0F0
F0F0
FCF0
FCF0
F0F0
F0F0
F0F0
F0F0
0000
0000
0000
0000
ENDCHAR
STARTCHAR uni0E29
ENCODING 3625
SWIDTH 994 0
DWIDTH 14 0
BBX 14 26 0 -6
BITMAP
0000
0000
0000
0000
0000
0000
0000
0000
0000
0000
FCF0
FCF0
3CF0
3CF0
FCF0
FCF0
F3F0
F3F0
F0F0
F0F0
3FF0
3FF0
0000
0000
0000
0000
ENDCHAR
STARTCHAR uni0E2A
ENCODING 3626
SWIDTH 994 0
DWIDTH 14 0
BBX 14 26 0 -6
BITMAP
0000
0000
0000
0000
0000
0000
00F0
00F0
00F0
00F0
3FC0
3FC0
F0F0
F0F0
3CF0
3CF0
F3F0
F3F0
F0F0
F0F0
FCF0
FCF0
0000
0000
0000
0000
ENDCHAR
STARTCHAR uni0E2B
ENCODING 3627
SWIDTH 994 0
DWIDTH 14 0
BBX 14 26 0 -6
BITMAP
0000
0000
0000
0000
0000
0000
0000
0000
0000
0000
FCF0
FCF0
3CF0
3CF0
3FC0
3FC0
3CF0
3CF0
3CF0
3CF0
3CF0
3CF0
0000
0000
0000
0000
ENDCHAR
STARTCHAR uni0E2C
ENCODING 3628
SWIDTH 994 0
DWIDTH 14 0
BBX 14 26 0 -6
BITMAP
0000
0000
0000
0000
0000
0000
003C
003C
003C
003C
FCF0
FCF0
3C3C
3C3C
F03C
F03C
F33C
F33C
F33C
F33C
3CF0
3CF0
0000
0000
0000
0000
ENDCHAR
STARTCHAR uni0E2D
ENCODING 3629
SWIDTH 994 0
DWIDTH 14 0
BBX 14 26 0 -6
BITMAP
0000
0000
0000
0000
0000
0000
0000
0000
0000
0000
FFC0
FFC0
00F0
00F0
FCF0
FCF0
F0F0
F0F0
F0F0
F0F0
3FC0
3FC0
0000
0000
0000
0000
ENDCHAR
STARTCHAR uni0E2E
ENCODING 3630
SWIDTH 994 0
DWIDTH 14 0
BBX 14 26 0 -6
BITMAP
0000
0000
0000
0000
0000
0000
00F0
00F0
00F0
00F0
FFC0
FFC0
00F0
00F0
FCF0
FCF0
F0F0
F0F0
F0F0
F0F0
3FC0
3FC0
0000
0000
0000
0000
ENDCHAR
STARTCHAR uni0E2F
ENCODING 3631
SWIDTH 994 0
DWIDTH 14 0
BBX 14 26 0 -6
BITMAP
0000
0000
0000
0000
0000
0000
0000
0000
0000
0000
F3F0
F3F0
FCF0
FCF0
00F0
00F0
00F0
00F0
00F0
00F0
03C0
03C0
0000
0000
0000
0000
ENDCHAR
STARTCHAR uni0E30
ENCODING 3632
SWIDTH 994 0
DWIDTH 14 0
BBX 14 26 0 -6
BITMAP
0000
0000
0000
0000
0000
0000
0000
0000
0000
0000
0000
0000
3CF0
3CF0
3FC0
3FC0
0000
0000
3CF0
3CF0
3FC0
3FC0
0000
0000
0000
0000
ENDCHAR
STARTCHAR uni0E31
ENCODING 3633
SWIDTH 994 0
DWIDTH 14 0
BBX 14 26 0 -6
BITMAP
0000
0000
0000
0000
3C00
3C00
3FF0
3FF0
0000
0000
0000
0000
0000
0000
0000
0000
0000
0000
0000
0000
0000
0000
0000
0000
0000
0000
ENDCHAR
STARTCHAR uni0E32
ENCODING 3634
SWIDTH 994 0
DWIDTH 14 0
BBX 14 26 0 -6
BITMAP
0000
0000
0000
0000
0000
0000
0000
0000
0000
0000
3FC0
3FC0
F0F0
F0F0
00F0
00F0
00F0
00F0
00F0
00F0
00F0
00F0
0000
0000
0000
0000
ENDCHAR
STARTCHAR uni0E33
ENCODING 3635
SWIDTH 994 0
DWIDTH 14 0
BBX 14 26 0 -6
BITMAP
0000
0000
0000
0000
0000
0000
F000
F000
F000
F000
0FC0
0FC0
3CF0
3CF0
00F0
00F0
00F0
00F0
00F0
00F0
00F0
00F0
0000
0000
0000
0000
ENDCHAR
STARTCHAR uni0E34
ENCODING 3636
SWIDTH 994 0
DWIDTH 14 0
BBX 14 26 0 -6
BITMAP
0000
0000
0000
0000
0000
0000
3FF0
3FF0
0000
0000
0000
0000
0000
0000
0000
0000
0000
0000
0000
0000
0000
0000
0000
0000
0000
0000
ENDCHAR
STARTCHAR uni0E35
ENCODING 3637
SWIDTH 994 0
DWIDTH 14 0
BBX 14 26 0 -6
BITMAP
0000
0000
0000
0000
0030
0030
3FF0
3FF0
0000
0000
0000
0000
0000
0000
0000
0000
0000
0000
0000
0000
0000
0000
0000
0000
0000
0000
ENDCHAR
STARTCHAR uni0E36
ENCODING 3638
SWIDTH 994 0
DWIDTH 14 0
BBX 14 26 0 -6
BITMAP
0000
0000
0000
0000
00F0
00F0
3FF0
3FF0
0000
0000
0000
0000
0000
0000
0000
0000
0000
0000
0000
0000
0000
0000
0000
0000
0000
0000
ENDCHAR
STARTCHAR uni0E37
ENCODING 3639
SWIDTH 994 0
DWIDTH 14 0
BBX 14 26 0 -6
BITMAP
0000
0000
0000
0000
0330
0330
3FF0
3FF0
0000
0000
0000
0000
0000
0000
0000
0000
0000
0000
0000
0000
0000
0000
0000
0000
0000
0000
ENDCHAR
STARTCHAR uni0E38
ENCODING 3640
SWIDTH 994 0
DWIDTH 14 0
BBX 14 26 0 -6
BITMAP
0000
0000
0000
0000
0000
0000
0000
0000
0000
0000
0000
0000
0000
0000
0000
0000
0000
0000
0000
0000
0000
0000
03F0
03F0
00F0
00F0
ENDCHAR
STARTCHAR uni0E39
ENCODING 3641
SWIDTH 994 0
DWIDTH 14 0
BBX 14 26 0 -6
BITMAP
0000
0000
0000
0000
0000
0000
0000
0000
0000
0000
0000
0000
0000
0000
0000
0000
0000
0000
0000
0000
0000
0000
0F30
0F30
03F0
03F0
ENDCHAR
STARTCHAR uni0E3A
ENCODING 3642
SWIDTH 994 0
DWIDTH 14 0
BBX 14 26 0 -6
BITMAP
0000
0000
0000
0000
0000
0000
0000
0000
0000
0000
0000
0000
0000
0000
0000
0000
0000
0000
0000
0000
0000
0000
00F0
00F0
00F0
00F0
ENDCHAR
STARTCHAR uni0E3F
ENCODING 3647
SWIDTH 994 0
DWIDTH 14 0
BBX 14 26 0 -6
BITMAP
0000
0000
0000
0000
0000
0000
0C00
0C00
FFC0
FFC0
CCF0
CCF0
CCF0
CCF0
FFC0
FFC0
CCF0
CCF0
CCF0
CCF0
FFC0
FFC0
0C00
0C00
0000
0000
ENDCHAR
STARTCHAR uni0E40
ENCODING 3648
SWIDTH 994 0
DWIDTH 14 0
BBX 14 26 0 -6
BITMAP
0000
0000
0000
0000
0000
0000
0000
0000
0000
0000
3C00
3C00
3C00
3C00
3C00
3C00
3C00
3C00
3C00
3C00
3F00
3F00
0000
0000
0000
0000
ENDCHAR
STARTCHAR uni0E41
ENCODING 3649
SWIDTH 994 0
DWIDTH 14 0
BBX 14 26 0 -6
BITMAP
0000
0000
0000
0000
0000
0000
0000
0000
0000
0000
F3C0
F3C0
F3C0
F3C0
F3C0
F3C0
F3C0
F3C0
F3C0
F3C0
F3C0
F3C0
0000
0000
0000
0000
ENDCHAR
STARTCHAR uni0E42
ENCODING 3650
SWIDTH 994 0
DWIDTH 14 0
BBX 14 26 0 -6
BITMAP
0000
0000
0000
0000
0000
0000
3FF0
3FF0
F000
F000
FFC0
FFC0
03C0
03C0
03C0
03C0
03C0
03C0
03C0
03C0
03F0
03F0
0000
0000
0000
0000
ENDCHAR
STARTCHAR uni0E43
ENCODING 3651
SWIDTH 994 0
DWIDTH 14 0
BBX 14 26 0 -6
BITMAP
0000
0000
0000
0000
0000
0000
3F00
3F00
F3C0
F3C0
F3C0
F3C0
3FC0
3FC0
03C0
03C0
03C0
03C0
03C0
03C0
03F0
03F0
0000
0000
0000
0000
ENDCHAR
STARTCHAR uni0E44
ENCODING 3652
SWIDTH 994 0
DWIDTH 14 0
BBX 14 26 0 -6
BITMAP
0000
0000
0000
0000
0000
0000
CFC0
CFC0
33C0
33C0
03C0
03C0
03C0
03C0
03C0
03C0
03C0
03C0
03C0
03C0
03F0
03F0
0000
0000
0000
0000
ENDCHAR
STARTCHAR uni0E45
ENCODING 3653
SWIDTH 994 0
DWIDTH 14 0
BBX 14 26 0 -6
BITMAP
0000
0000
0000
0000
0000
0000
0000
0000
0000
0000
3FC0
3FC0
F0F0
F0F0
00F0
00F0
00F0
00F0
00F0
00F0
00F0
00F0
00F0
00F0
00F0
00F0
ENDCHAR
STARTCHAR uni0E46
ENCODING 3654
SWIDTH 994 0
DWIDTH 14 0
BBX 14 26 0 -6
BITMAP
0000
0000
0000
0000
0000
0000
0000
0000
0000
0000
FCF0
FCF0
F3F0
F3F0
00F0
00F0
00F0
00F0
00F0
00F0
00F0
00F0
03C0
03C0
0F00
0F00
ENDCHAR
STARTCHAR uni0E47
ENCODING 3655
SWIDTH 994 0
DWIDTH 14 0
BBX 14 26 0 -6
BITMAP
0000
0000
3FC0
3FC0
3C00
3C00
33C0
33C0
0000
0000
0000
0000
0000
0000
0000
0000
0000
0000
0000
0000
0000
0000
0000
0000
0000
0000
ENDCHAR
STARTCHAR uni0E48
ENCODING 3656
SWIDTH 994 0
DWIDTH 14 0
BBX 14 26 0 -6
BITMAP
00F0
00F0
00F0
00F0
0000
0000
0000
0000
0000
0000
0000
0000
0000
0000
0000
0000
0000
0000
0000
0000
0000
0000
0000
0000
0000
0000
ENDCHAR
STARTCHAR uni0E49
ENCODING 3657
SWIDTH 994 0
DWIDTH 14 0
BBX 14 26 0 -6
BITMAP
0F30
0F30
03C0
03C0
0000
0000
0000
0000
0000
0000
0000
0000
0000
0000
0000
0000
0000
0000
0000
0000
0000
0000
0000
0000
0000
0000
ENDCHAR
STARTCHAR uni0E4A
ENCODING 3658
SWIDTH 994 0
DWIDTH 14 0
BBX 14 26 0 -6
BITMAP
0CCC
0CCC
0FF0
0FF0
0000
0000
0000
0000
0000
0000
0000
0000
0000
0000
0000
0000
0000
0000
0000
0000
0000
0000
0000
0000
0000
0000
ENDCHAR
STARTCHAR uni0E4B
ENCODING 3659
SWIDTH 994 0
DWIDTH 14 0
BBX 14 26 0 -6
BITMAP
00C0
00C0
03F0
03F0
00C0
00C0
0000
0000
0000
0000
0000
0000
0000
0000
0000
0000
0000
0000
0000
0000
0000
0000
0000
0000
0000
0000
ENDCHAR
STARTCHAR uni0E4C
ENCODING 3660
SWIDTH 994 0
DWIDTH 14 0
BBX 14 26 0 -6
BITMAP
03F0
03F0
03C0
03C0
0000
0000
0000
0000
0000
0000
0000
0000
0000
0000
0000
0000
0000
0000
0000
0000
0000
0000
0000
0000
0000
0000
ENDCHAR
STARTCHAR uni0E4D
ENCODING 3661
SWIDTH 994 0
DWIDTH 14 0
BBX 14 26 0 -6
BITMAP
0000
0000
0000
0000
03F0
03F0
03F0
03F0
0000
0000
0000
0000
0000
0000
0000
0000
0000
0000
0000
0000
0000
0000
0000
0000
0000
0000
ENDCHAR
STARTCHAR uni0E4E
ENCODING 3662
SWIDTH 994 0
DWIDTH 14 0
BBX 14 26 0 -6
BITMAP
0000
0000
00F0
00F0
03F0
03F0
03C0
03C0
0000
0000
0000
0000
0000
0000
0000
0000
0000
0000
0000
0000
0000
0000
0000
0000
0000
0000
ENDCHAR
STARTCHAR uni0E4F
ENCODING 3663
SWIDTH 994 0
DWIDTH 14 0
BBX 14 26 0 -6
BITMAP
0000
0000
0000
0000
0000
0000
0000
0000
0000
0000
0000
0000
3FF0
3FF0
F03C
F03C
F33C
F33C
F03C
F03C
3FF0
3FF0
0000
0000
0000
0000
ENDCHAR
STARTCHAR uni0E50
ENCODING 3664
SWIDTH 994 0
DWIDTH 14 0
BBX 14 26 0 -6
BITMAP
0000
0000
0000
0000
0000
0000
0000
0000
0000
0000
0000
0000
3FF0
3FF0
F03C
F03C
F03C
F03C
F03C
F03C
3FF0
3FF0
0000
0000
0000
0000
ENDCHAR
STARTCHAR uni0E51
ENCODING 3665
SWIDTH 994 0
DWIDTH 14 0
BBX 14 26 0 -6
BITMAP
0000
0000
0000
0000
0000
0000
0000
0000
0000
0000
0000
0000
3FF0
3FF0
F03C
F03C
FF3C
FF3C
003C
003C
3FF0
3FF0
0000
0000
0000
0000
ENDCHAR
STARTCHAR uni0E52
ENCODING 3666
SWIDTH 994 0
DWIDTH 14 0
BBX 14 26 0 -6
BITMAP
0000
0000
0000
0000
0000
0000
0000
0000
F000
F000
F000
F000
F33C
F33C
F3FC
F3FC
F33C
F33C
F03C
F03C
3FF0
3FF0
0000
0000
0000
0000
ENDCHAR
STARTCHAR uni0E53
ENCODING 3667
SWIDTH 994 0
DWIDTH 14 0
BBX 14 26 0 -6
BITMAP
0000
0000
0000
0000
0000
0000
0000
0000
0000
0000
0000
0000
3CF0
3CF0
F33C
F33C
F03C
F03C
FC3C
FC3C
FC3C
FC3C
0000
0000
0000
0000
ENDCHAR
STARTCHAR uni0E54
ENCODING 3668
SWIDTH 994 0
DWIDTH 14 0
BBX 14 26 0 -6
BITMAP
0000
0000
0000
0000
0000
0000
0000
0000
003C
003C
003C
003C
3FF0
3FF0
F000
F000
F3C0
F3C0
F3C0
F3C0
3FFC
3FFC
0000
0000
0000
0000
ENDCHAR
STARTCHAR uni0E55
ENCODING 3669
SWIDTH 994 0
DWIDTH 14 0
BBX 14 26 0 -6
BITMAP
0000
0000
0000
0000
0000
0000
0000
0000
003C
003C
0F3C
0F3C
3FF0
3FF0
F000
F000
F3C0
F3C0
F3C0
F3C0
3FFC
3FFC
0000
0000
0000
0000
ENDCHAR
STARTCHAR uni0E56
ENCODING 3670
SWIDTH 994 0
DWIDTH 14 0
BBX 14 26 0 -6
BITMAP
0000
0000
0000
0000
0000
0000
0000
0000
0000
0000
F000
F000
3CF0
3CF0
0F3C
0F3C
003C
003C
0F3C
0F3C
0FF0
0FF0
0000
0000
0000
0000
ENDCHAR
STARTCHAR uni0E57
ENCODING 3671
SWIDTH 994 0
DWIDTH 14 0
BBX 14 26 0 -6
BITMAP
0000
0000
0000
0000
0000
0000
0000
0000
000C
000C
000C
000C
F3CC
F3CC
FFCC
FFCC
F3CC
F3CC
F3CC
F3CC
FCF0
FCF0
0000
0000
0000
0000
ENDCHAR
STARTCHAR uni0E58
ENCODING 3672
SWIDTH 994 0
DWIDTH 14 0
BBX 14 26 0 -6
BITMAP
0000
0000
0000
0000
0000
0000
0000
0000
0000
0000
003C
003C
3FF0
3FF0
F000
F000
F0FC
F0FC
F33C
F33C
3CF0
3CF0
0000
0000
0000
0000
ENDCHAR
STARTCHAR uni0E59
ENCODING 3673
SWIDTH 994 0
DWIDTH 14 0
BBX 14 26 0 -6
BITMAP
0000
0000
0000
0000
0000
0000
0000
0000
003C
003C
003C
003C
03F0
03F0
3F00
3F00
F3C0
F3C0
FCF0
FCF0
FC3C
FC3C
0000
0000
0000
0000
ENDCHAR
STARTCHAR uni0E5A
ENCODING 3674
SWIDTH 994 0
DWIDTH 14 0
BBX 14 26 0 -6
BITMAP
0000
0000
0000
0000
0000
0000
0000
0000
0000
0000
CF3C
CF3C
FF3C
FF3C
0F3C
0F3C
0F3C
0F3C
0F3C
0F3C
0F3C
0F3C
0000
0000
0000
0000
ENDCHAR
STARTCHAR uni0E5B
ENCODING 3675
SWIDTH 994 0
DWIDTH 14 0
BBX 14 26 0 -6
BITMAP
0000
0000
0000
0000
0000
0000
0000
0000
0000
0000
3C00
3C00
FC00
FC00
F33C
F33C
F3F0
F3F0
F3C0
F3C0
3F00
3F00
0000
0000
0000
0000
ENDCHAR
STARTCHAR uni1E02
ENCODING 7682
SWIDTH 994 0
DWIDTH 14 0
BBX 14 26 0 -6
BITMAP
0000
0000
0F00
0F00
0000
0000
FFC0
FFC0
F0F0
F0F0
F0F0
F0F0
FFC0
FFC0
F0F0
F0F0
F0F0
F0F0
F0F0
F0F0
FFC0
FFC0
0000
0000
0000
0000
ENDCHAR
STARTCHAR uni1E03
ENCODING 7683
SWIDTH 994 0
DWIDTH 14 0
BBX 14 26 0 -6
BITMAP
0000
0000
03C0
03C0
F000
F000
F000
F000
F000
F000
FFC0
FFC0
F0F0
F0F0
F0F0
F0F0
F0F0
F0F0
F0F0
F0F0
FFC0
FFC0
0000
0000
0000
0000
ENDCHAR
STARTCHAR uni1E0A
ENCODING 7690
SWIDTH 994 0
DWIDTH 14 0
BBX 14 26 0 -6
BITMAP
0000
0000
0F00
0F00
0000
0000
FFC0
FFC0
F0F0
F0F0
F0F0
F0F0
F0F0
F0F0
F0F0
F0F0
F0F0
F0F0
F0F0
F0F0
FFC0
FFC0
0000
0000
0000
0000
ENDCHAR
STARTCHAR uni1E0B
ENCODING 7691
SWIDTH 994 0
DWIDTH 14 0
BBX 14 26 0 -6
BITMAP
0000
0000
3C00
3C00
00F0
00F0
00F0
00F0
00F0
00F0
3FF0
3FF0
F0F0
F0F0
F0F0
F0F0
F0F0
F0F0
F0F0
F0F0
3FF0
3FF0
0000
0000
0000
0000
ENDCHAR
STARTCHAR uni1E1E
ENCODING 7710
SWIDTH 994 0
DWIDTH 14 0
BBX 14 26 0 -6
BITMAP
0000
0000
0F00
0F00
0000
0000
FFF0
FFF0
F000
F000
F000
F000
FF00
FF00
F000
F000
F000
F000
F000
F000
F000
F000
0000
0000
0000
0000
ENDCHAR
STARTCHAR uni1E1F
ENCODING 7711
SWIDTH 994 0
DWIDTH 14 0
BBX 14 26 0 -6
BITMAP
0000
0000
0300
0300
0000
0000
0FC0
0FC0
3CF0
3CF0
3C00
3C00
3C00
3C00
FF00
FF00
3C00
3C00
3C00
3C00
3C00
3C00
0000
0000
0000
0000
ENDCHAR
STARTCHAR uni1E40
ENCODING 7744
SWIDTH 994 0
DWIDTH 14 0
BBX 14 26 0 -6
BITMAP
0000
0000
0F00
0F00
C030
C030
F0F0
F0F0
FFF0
FFF0
FFF0
FFF0
F0F0
F0F0
F0F0
F0F0
F0F0
F0F0
F0F0
F0F0
F0F0
F0F0
0000
0000
0000
0000
ENDCHAR
STARTCHAR uni1E41
ENCODING 7745
SWIDTH 994 0
DWIDTH 14 0
BBX 14 26 0 -6
BITMAP
0000
0000
0000
0000
0000
0000
0F00
0F00
0000
0000
F3C0
F3C0
FFF0
FFF0
FFF0
FFF0
F0F0
F0F0
F0F0
F0F0
F0F0
F0F0
0000
0000
0000
0000
ENDCHAR
STARTCHAR uni1E56
ENCODING 7766
SWIDTH 994 0
DWIDTH 14 0
BBX 14 26 0 -6
BITMAP
0000
0000
0F00
0F00
0000
0000
FFC0
FFC0
F0F0
F0F0
F0F0
F0F0
F0F0
F0F0
FFC0
FFC0
F000
F000
F000
F000
F000
F000
0000
0000
0000
0000
ENDCHAR
STARTCHAR uni1E57
ENCODING 7767
SWIDTH 994 0
DWIDTH 14 0
BBX 14 26 0 -6
BITMAP
0000
0000
0000
0000
0000
0000
0F00
0F00
0000
0000
FFC0
FFC0
F0F0
F0F0
F0F0
F0F0
F0F0
F0F0
FFC0
FFC0
F000
F000
F000
F000
F000
F000
ENDCHAR
STARTCHAR uni1E60
ENCODING 7776
SWIDTH 994 0
DWIDTH 14 0
BBX 14 26 0 -6
BITMAP
0000
0000
0F00
0F00
0000
0000
3FC0
3FC0
F0F0
F0F0
F000
F000
3FC0
3FC0
00F0
00F0
00F0
00F0
F0F0
F0F0
3FC0
3FC0
0000
0000
0000
0000
ENDCHAR
STARTCHAR uni1E61
ENCODING 7777
SWIDTH 994 0
DWIDTH 14 0
BBX 14 26 0 -6
BITMAP
0000
0000
0000
0000
0000
0000
0F00
0F00
0000
0000
3FC0
3FC0
F0F0
F0F0
3C00
3C00
03C0
03C0
F0F0
F0F0
3FC0
3FC0
0000
0000
0000
0000
ENDCHAR
STARTCHAR uni1E6A
ENCODING 7786
SWIDTH 994 0
DWIDTH 14 0
BBX 14 26 0 -6
BITMAP
0000
0000
0F00
0F00
0000
0000
FFF0
FFF0
0F00
0F00
0F00
0F00
0F00
0F00
0F00
0F00
0F00
0F00
0F00
0F00
0F00
0F00
0000
0000
0000
0000
ENDCHAR
STARTCHAR uni1E6B
ENCODING 7787
SWIDTH 994 0
DWIDTH 14 0
BBX 14 26 0 -6
BITMAP
0000
0000
3C00
3C00
0000
0000
3C00
3C00
3C00
3C00
FF00
FF00
3C00
3C00
3C00
3C00
3C00
3C00
3CF0
3CF0
0FC0
0FC0
0000
0000
0000
0000
ENDCHAR
STARTCHAR uni1E6C
ENCODING 7788
SWIDTH 994 0
DWIDTH 14 0
BBX 14 26 0 -6
BITMAP
0000
0000
0000
0000
0000
0000
FFF0
FFF0
0F00
0F00
0F00
0F00
0F00
0F00
0F00
0F00
0F00
0F00
0F00
0F00
0F00
0F00
0000
0000
0F00
0F00
ENDCHAR
STARTCHAR uni1E6D
ENCODING 7789
SWIDTH 994 0
DWIDTH 14 0
BBX 14 26 0 -6
BITMAP
0000
0000
0000
0000
0000
0000
3C00
3C00
3C00
3C00
FF00
FF00
3C00
3C00
3C00
3C00
3C00
3C00
3CF0
3CF0
0FC0
0FC0
0000
0000
0F00
0F00
ENDCHAR
STARTCHAR uni1E6E
ENCODING 7790
SWIDTH 994 0
DWIDTH 14 0
BBX 14 26 0 -6
BITMAP
0000
0000
0000
0000
0000
0000
FFF0
FFF0
0F00
0F00
0F00
0F00
0F00
0F00
0F00
0F00
0F00
0F00
0F00
0F00
0F00
0F00
0000
0000
3FC0
3FC0
ENDCHAR
STARTCHAR uni1E6F
ENCODING 7791
SWIDTH 994 0
DWIDTH 14 0
BBX 14 26 0 -6
BITMAP
0000
0000
0000
0000
0000
0000
3C00
3C00
3C00
3C00
FF00
FF00
3C00
3C00
3C00
3C00
3C00
3C00
3CF0
3CF0
0FC0
0FC0
0000
0000
3FC0
3FC0
ENDCHAR
STARTCHAR Wgrave
ENCODING 7808
SWIDTH 994 0
DWIDTH 14 0
BBX 14 26 0 -6
BITMAP
3C00
3C00
0F00
0F00
0000
0000
F0F0
F0F0
F0F0
F0F0
F0F0
F0F0
F0F0
F0F0
FFF0
FFF0
FFF0
FFF0
F0F0
F0F0
C030
C030
0000
0000
0000
0000
ENDCHAR
STARTCHAR wgrave
ENCODING 7809
SWIDTH 994 0
DWIDTH 14 0
BBX 14 26 0 -6
BITMAP
0000
0000
0000
0000
3C00
3C00
0F00
0F00
0000
0000
F0F0
F0F0
F0F0
F0F0
F0F0
F0F0
FFF0
FFF0
FFF0
FFF0
30C0
30C0
0000
0000
0000
0000
ENDCHAR
STARTCHAR Wacute
ENCODING 7810
SWIDTH 994 0
DWIDTH 14 0
BBX 14 26 0 -6
BITMAP
03C0
03C0
0F00
0F00
0000
0000
F0F0
F0F0
F0F0
F0F0
F0F0
F0F0
F0F0
F0F0
FFF0
FFF0
FFF0
FFF0
F0F0
F0F0
C030
C030
0000
0000
0000
0000
ENDCHAR
STARTCHAR wacute
ENCODING 7811
SWIDTH 994 0
DWIDTH 14 0
BBX 14 26 0 -6
BITMAP
0000
0000
0000
0000
03C0
03C0
0F00
0F00
0000
0000
F0F0
F0F0
F0F0
F0F0
F0F0
F0F0
FFF0
FFF0
FFF0
FFF0
30C0
30C0
0000
0000
0000
0000
ENDCHAR
STARTCHAR Wdieresis
ENCODING 7812
SWIDTH 994 0
DWIDTH 14 0
BBX 14 26 0 -6
BITMAP
F0F0
F0F0
F0F0
F0F0
0000
0000
F0F0
F0F0
F0F0
F0F0
F0F0
F0F0
F0F0
F0F0
FFF0
FFF0
FFF0
FFF0
F0F0
F0F0
C030
C030
0000
0000
0000
0000
ENDCHAR
STARTCHAR wdieresis
ENCODING 7813
SWIDTH 994 0
DWIDTH 14 0
BBX 14 26 0 -6
BITMAP
0000
0000
0000
0000
F0F0
F0F0
F0F0
F0F0
0000
0000
F0F0
F0F0
F0F0
F0F0
F0F0
F0F0
FFF0
FFF0
FFF0
FFF0
30C0
30C0
0000
0000
0000
0000
ENDCHAR
STARTCHAR Ygrave
ENCODING 7922
SWIDTH 994 0
DWIDTH 14 0
BBX 14 26 0 -6
BITMAP
0000
0000
3C00
3C00
0F00
0F00
0000
0000
F0F0
F0F0
F0F0
F0F0
30C0
30C0
0F00
0F00
0F00
0F00
0F00
0F00
0F00
0F00
0000
0000
0000
0000
ENDCHAR
STARTCHAR ygrave
ENCODING 7923
SWIDTH 994 0
DWIDTH 14 0
BBX 14 26 0 -6
BITMAP
0000
0000
0000
0000
3C00
3C00
0F00
0F00
0000
0000
F0F0
F0F0
F0F0
F0F0
F0F0
F0F0
F0F0
F0F0
3FF0
3FF0
00F0
00F0
F0F0
F0F0
3FC0
3FC0
ENDCHAR
STARTCHAR uni1F00
ENCODING 7936
SWIDTH 994 0
DWIDTH 14 0
BBX 14 26 0 -6
BITMAP
0000
0000
0FC0
0FC0
03C0
03C0
0F00
0F00
0000
0000
3FC0
3FC0
F0F0
F0F0
F0F0
F0F0
F0F0
F0F0
F3F0
F3F0
3CF0
3CF0
0000
0000
0000
0000
ENDCHAR
STARTCHAR uni1F01
ENCODING 7937
SWIDTH 994 0
DWIDTH 14 0
BBX 14 26 0 -6
BITMAP
0000
0000
0FC0
0FC0
0F00
0F00
03C0
03C0
0000
0000
3FC0
3FC0
F0F0
F0F0
F0F0
F0F0
F0F0
F0F0
F3F0
F3F0
3CF0
3CF0
0000
0000
0000
0000
ENDCHAR
STARTCHAR uni1F02
ENCODING 7938
SWIDTH 994 0
DWIDTH 14 0
BBX 14 26 0 -6
BITMAP
0000
0000
FFC0
FFC0
3CF0
3CF0
F000
F000
0000
0000
3FC0
3FC0
F0F0
F0F0
F0F0
F0F0
F0F0
F0F0
F3F0
F3F0
3CF0
3CF0
0000
0000
0000
0000
ENDCHAR
STARTCHAR uni1F03
ENCODING 7939
SWIDTH 994 0
DWIDTH 14 0
BBX 14 26 0 -6
BITMAP
0000
0000
FFC0
FFC0
F0F0
F0F0
3C00
3C00
0000
0000
3FC0
3FC0
F0F0
F0F0
F0F0
F0F0
F0F0
F0F0
F3F0
F3F0
3CF0
3CF0
0000
0000
0000
0000
ENDCHAR
STARTCHAR uni1F04
ENCODING 7940
SWIDTH 994 0
DWIDTH 14 0
BBX 14 26 0 -6
BITMAP
0000
0000
FCF0
FCF0
3FC0
3FC0
F000
F000
0000
0000
3FC0
3FC0
F0F0
F0F0
F0F0
F0F0
F0F0
F0F0
F3F0
F3F0
3CF0
3CF0
0000
0000
0000
0000
ENDCHAR
STARTCHAR uni1F05
ENCODING 7941
SWIDTH 994 0
DWIDTH 14 0
BBX 14 26 0 -6
BITMAP
0000
0000
FCF0
FCF0
F3C0
F3C0
3C00
3C00
0000
0000
3FC0
3FC0
F0F0
F0F0
F0F0
F0F0
F0F0
F0F0
F3F0
F3F0
3CF0
3CF0
0000
0000
0000
0000
ENDCHAR
STARTCHAR uni1F06
ENCODING 7942
SWIDTH 994 0
DWIDTH 14 0
BBX 14 26 0 -6
BITMAP
3C30
3C30
CFC0
CFC0
03C0
03C0
0F00
0F00
0000
0000
3FC0
3FC0
F0F0
F0F0
F0F0
F0F0
F0F0
F0F0
F3F0
F3F0
3CF0
3CF0
0000
0000
0000
0000
ENDCHAR
STARTCHAR uni1F07
ENCODING 7943
SWIDTH 994 0
DWIDTH 14 0
BBX 14 26 0 -6
BITMAP
3C30
3C30
CFC0
CFC0
0F00
0F00
03C0
03C0
0000
0000
3FC0
3FC0
F0F0
F0F0
F0F0
F0F0
F0F0
F0F0
F3F0
F3F0
3CF0
3CF0
0000
0000
0000
0000
ENDCHAR
STARTCHAR uni1F08
ENCODING 7944
SWIDTH 994 0
DWIDTH 14 0
BBX 14 26 0 -6
BITMAP
0000
0000
0000
0000
CFC0
CFC0
FCF0
FCF0
3CF0
3CF0
3CF0
3CF0
3FF0
3FF0
3CF0
3CF0
3CF0
3CF0
3CF0
3CF0
3CF0
3CF0
0000
0000
0000
0000
ENDCHAR
STARTCHAR uni1F09
ENCODING 7945
SWIDTH 994 0
DWIDTH 14 0
BBX 14 26 0 -6
BITMAP
0000
0000
0000
0000
CFC0
CFC0
FCF0
FCF0
3CF0
3CF0
3CF0
3CF0
3FF0
3FF0
3CF0
3CF0
3CF0
3CF0
3CF0
3CF0
3CF0
3CF0
0000
0000
0000
0000
ENDCHAR
STARTCHAR uni1F0A
ENCODING 7946
SWIDTH 994 0
DWIDTH 14 0
BBX 14 26 0 -6
BITMAP
0000
0000
0000
0000
CFC0
CFC0
FCF0
FCF0
3CF0
3CF0
3CF0
3CF0
3FF0
3FF0
3CF0
3CF0
3CF0
3CF0
3CF0
3CF0
3CF0
3CF0
0000
0000
0000
0000
ENDCHAR
STARTCHAR uni1F0B
ENCODING 7947
SWIDTH 994 0
DWIDTH 14 0
BBX 14 26 0 -6
BITMAP
0000
0000
0000
0000
CFC0
CFC0
FCF0
FCF0
3CF0
3CF0
3CF0
3CF0
3FF0
3FF0
3CF0
3CF0
3CF0
3CF0
3CF0
3CF0
3CF0
3CF0
0000
0000
0000
0000
ENDCHAR
STARTCHAR uni1F0C
ENCODING 7948
SWIDTH 994 0
DWIDTH 14 0
BBX 14 26 0 -6
BITMAP
0000
0000
0000
0000
CFC0
CFC0
FCF0
FCF0
3CF0
3CF0
3CF0
3CF0
3FF0
3FF0
3CF0
3CF0
3CF0
3CF0
3CF0
3CF0
3CF0
3CF0
0000
0000
0000
0000
ENDCHAR
STARTCHAR uni1F0D
ENCODING 7949
SWIDTH 994 0
DWIDTH 14 0
BBX 14 26 0 -6
BITMAP
0000
0000
0000
0000
CFC0
CFC0
FCF0
FCF0
3CF0
3CF0
3CF0
3CF0
3FF0
3FF0
3CF0
3CF0
3CF0
3CF0
3CF0
3CF0
3CF0
3CF0
0000
0000
0000
0000
ENDCHAR
STARTCHAR uni1F0E
ENCODING 7950
SWIDTH 994 0
DWIDTH 14 0
BBX 14 26 0 -6
BITMAP
0000
0000
0000
0000
CFC0
CFC0
FCF0
FCF0
3CF0
3CF0
3CF0
3CF0
3FF0
3FF0
3CF0
3CF0
3CF0
3CF0
3CF0
3CF0
3CF0
3CF0
0000
0000
0000
0000
ENDCHAR
STARTCHAR uni1F0F
ENCODING 7951
SWIDTH 994 0
DWIDTH 14 0
BBX 14 26 0 -6
BITMAP
0000
0000
0000
0000
CFC0
CFC0
FCF0
FCF0
3CF0
3CF0
3CF0
3CF0
3FF0
3FF0
3CF0
3CF0
3CF0
3CF0
3CF0
3CF0
3CF0
3CF0
0000
0000
0000
0000
ENDCHAR
STARTCHAR uni1F10
ENCODING 7952
SWIDTH 994 0
DWIDTH 14 0
BBX 14 26 0 -6
BITMAP
0000
0000
0FC0
0FC0
03C0
03C0
0F00
0F00
0000
0000
3FC0
3FC0
F0F0
F0F0
3F00
3F00
F000
F000
F0F0
F0F0
3FC0
3FC0
0000
0000
0000
0000
ENDCHAR
STARTCHAR uni1F11
ENCODING 7953
SWIDTH 994 0
DWIDTH 14 0
BBX 14 26 0 -6
BITMAP
0000
0000
0FC0
0FC0
0F00
0F00
03C0
03C0
0000
0000
3FC0
3FC0
F0F0
F0F0
3F00
3F00
F000
F000
F0F0
F0F0
3FC0
3FC0
0000
0000
0000
0000
ENDCHAR
STARTCHAR uni1F12
ENCODING 7954
SWIDTH 994 0
DWIDTH 14 0
BBX 14 26 0 -6
BITMAP
0000
0000
FFC0
FFC0
3CF0
3CF0
F000
F000
0000
0000
3FC0
3FC0
F0F0
F0F0
3F00
3F00
F000
F000
F0F0
F0F0
3FC0
3FC0
0000
0000
0000
0000
ENDCHAR
STARTCHAR uni1F13
ENCODING 7955
SWIDTH 994 0
DWIDTH 14 0
BBX 14 26 0 -6
BITMAP
0000
0000
FFC0
FFC0
F0F0
F0F0
3C00
3C00
0000
0000
3FC0
3FC0
F0F0
F0F0
3F00
3F00
F000
F000
F0F0
F0F0
3FC0
3FC0
0000
0000
0000
0000
ENDCHAR
STARTCHAR uni1F14
ENCODING 7956
SWIDTH 994 0
DWIDTH 14 0
BBX 14 26 0 -6
BITMAP
0000
0000
FCF0
FCF0
3FC0
3FC0
F000
F000
0000
0000
3FC0
3FC0
F0F0
F0F0
3F00
3F00
F000
F000
F0F0
F0F0
3FC0
3FC0
0000
0000
0000
0000
ENDCHAR
STARTCHAR uni1F15
ENCODING 7957
SWIDTH 994 0
DWIDTH 14 0
BBX 14 26 0 -6
BITMAP
0000
0000
FCF0
FCF0
F3C0
F3C0
3C00
3C00
0000
0000
3FC0
3FC0
F0F0
F0F0
3F00
3F00
F000
F000
F0F0
F0F0
3FC0
3FC0
0000
0000
0000
0000
ENDCHAR
STARTCHAR uni1F18
ENCODING 7960
SWIDTH 994 0
DWIDTH 14 0
BBX 14 26 0 -6
BITMAP
0000
0000
0000
0000
FFF0
FFF0
FC00
FC00
3C00
3C00
3C00
3C00
3FC0
3FC0
3C00
3C00
3C00
3C00
3C00
3C00
3FF0
3FF0
0000
0000
0000
0000
ENDCHAR
STARTCHAR uni1F19
ENCODING 7961
SWIDTH 994 0
DWIDTH 14 0
BBX 14 26 0 -6
BITMAP
0000
0000
0000
0000
FFF0
FFF0
FC00
FC00
3C00
3C00
3C00
3C00
3FC0
3FC0
3C00
3C00
3C00
3C00
3C00
3C00
3FF0
3FF0
0000
0000
0000
0000
ENDCHAR
STARTCHAR uni1F1A
ENCODING 7962
SWIDTH 994 0
DWIDTH 14 0
BBX 14 26 0 -6
BITMAP
0000
0000
0000
0000
FFF0
FFF0
FC00
FC00
3C00
3C00
3C00
3C00
3FC0
3FC0
3C00
3C00
3C00
3C00
3C00
3C00
3FF0
3FF0
0000
0000
0000
0000
ENDCHAR
STARTCHAR uni1F1B
ENCODING 7963
SWIDTH 994 0
DWIDTH 14 0
BBX 14 26 0 -6
BITMAP
0000
0000
0000
0000
FFF0
FFF0
FC00
FC00
3C00
3C00
3C00
3C00
3FC0
3FC0
3C00
3C00
3C00
3C00
3C00
3C00
3FF0
3FF0
0000
0000
0000
0000
ENDCHAR
STARTCHAR uni1F1C
ENCODING 7964
SWIDTH 994 0
DWIDTH 14 0
BBX 14 26 0 -6
BITMAP
0000
0000
0000
0000
FFF0
FFF0
FC00
FC00
3C00
3C00
3C00
3C00
3FC0
3FC0
3C00
3C00
3C00
3C00
3C00
3C00
3FF0
3FF0
0000
0000
0000
0000
ENDCHAR
STARTCHAR uni1F1D
ENCODING 7965
SWIDTH 994 0
DWIDTH 14 0
BBX 14 26 0 -6
BITMAP
0000
0000
0000
0000
FFF0
FFF0
FC00
FC00
3C00
3C00
3C00
3C00
3FC0
3FC0
3C00
3C00
3C00
3C00
3C00
3C00
3FF0
3FF0
0000
0000
0000
0000
ENDCHAR
STARTCHAR uni1F20
ENCODING 7968
SWIDTH 994 0
DWIDTH 14 0
BBX 14 26 0 -6
BITMAP
0000
0000
0FC0
0FC0
03C0
03C0
0F00
0F00
0000
0000
FFC0
FFC0
F0F0
F0F0
F0F0
F0F0
F0F0
F0F0
F0F0
F0F0
F0F0
F0F0
00F0
00F0
00F0
00F0
ENDCHAR
STARTCHAR uni1F21
ENCODING 7969
SWIDTH 994 0
DWIDTH 14 0
BBX 14 26 0 -6
BITMAP
0000
0000
0FC0
0FC0
0F00
0F00
03C0
03C0
0000
0000
FFC0
FFC0
F0F0
F0F0
F0F0
F0F0
F0F0
F0F0
F0F0
F0F0
F0F0
F0F0
00F0
00F0
00F0
00F0
ENDCHAR
STARTCHAR uni1F22
ENCODING 7970
SWIDTH 994 0
DWIDTH 14 0
BBX 14 26 0 -6
BITMAP
0000
0000
FFC0
FFC0
3CF0
3CF0
F000
F000
0000
0000
FFC0
FFC0
F0F0
F0F0
F0F0
F0F0
F0F0
F0F0
F0F0
F0F0
F0F0
F0F0
00F0
00F0
00F0
00F0
ENDCHAR
STARTCHAR uni1F23
ENCODING 7971
SWIDTH 994 0
DWIDTH 14 0
BBX 14 26 0 -6
BITMAP
0000
0000
FFC0
FFC0
F0F0
F0F0
3C00
3C00
0000
0000
FFC0
FFC0
F0F0
F0F0
F0F0
F0F0
F0F0
F0F0
F0F0
F0F0
F0F0
F0F0
00F0
00F0
00F0
00F0
ENDCHAR
STARTCHAR uni1F24
ENCODING 7972
SWIDTH 994 0
DWIDTH 14 0
BBX 14 26 0 -6
BITMAP
0000
0000
FCF0
FCF0
3FC0
3FC0
F000
F000
0000
0000
FFC0
FFC0
F0F0
F0F0
F0F0
F0F0
F0F0
F0F0
F0F0
F0F0
F0F0
F0F0
00F0
00F0
00F0
00F0
ENDCHAR
STARTCHAR uni1F25
ENCODING 7973
SWIDTH 994 0
DWIDTH 14 0
BBX 14 26 0 -6
BITMAP
0000
0000
FCF0
FCF0
F3C0
F3C0
3C00
3C00
0000
0000
FFC0
FFC0
F0F0
F0F0
F0F0
F0F0
F0F0
F0F0
F0F0
F0F0
F0F0
F0F0
00F0
00F0
00F0
00F0
ENDCHAR
STARTCHAR uni1F26
ENCODING 7974
SWIDTH 994 0
DWIDTH 14 0
BBX 14 26 0 -6
BITMAP
3C30
3C30
CFC0
CFC0
03C0
03C0
0F00
0F00
0000
0000
FFC0
FFC0
F0F0
F0F0
F0F0
F0F0
F0F0
F0F0
F0F0
F0F0
F0F0
F0F0
00F0
00F0
00F0
00F0
ENDCHAR
STARTCHAR uni1F27
ENCODING 7975
SWIDTH 994 0
DWIDTH 14 0
BBX 14 26 0 -6
BITMAP
3C30
3C30
CFC0
CFC0
0F00
0F00
03C0
03C0
0000
0000
FFC0
FFC0
F0F0
F0F0
F0F0
F0F0
F0F0
F0F0
F0F0
F0F0
F0F0
F0F0
00F0
00F0
00F0
00F0
ENDCHAR
STARTCHAR uni1F28
ENCODING 7976
SWIDTH 994 0
DWIDTH 14 0
BBX 14 26 0 -6
BITMAP
0000
0000
0000
0000
FCF0
FCF0
FCF0
FCF0
3CF0
3CF0
3CF0
3CF0
3FF0
3FF0
3CF0
3CF0
3CF0
3CF0
3CF0
3CF0
3CF0
3CF0
0000
0000
0000
0000
ENDCHAR
STARTCHAR uni1F29
ENCODING 7977
SWIDTH 994 0
DWIDTH 14 0
BBX 14 26 0 -6
BITMAP
0000
0000
0000
0000
FCF0
FCF0
FCF0
FCF0
3CF0
3CF0
3CF0
3CF0
3FF0
3FF0
3CF0
3CF0
3CF0
3CF0
3CF0
3CF0
3CF0
3CF0
0000
0000
0000
0000
ENDCHAR
STARTCHAR uni1F2A
ENCODING 7978
SWIDTH 994 0
DWIDTH 14 0
BBX 14 26 0 -6
BITMAP
0000
0000
0000
0000
FCF0
FCF0
FCF0
FCF0
3CF0
3CF0
3CF0
3CF0
3FF0
3FF0
3CF0
3CF0
3CF0
3CF0
3CF0
3CF0
3CF0
3CF0
0000
0000
0000
0000
ENDCHAR
STARTCHAR uni1F2B
ENCODING 7979
SWIDTH 994 0
DWIDTH 14 0
BBX 14 26 0 -6
BITMAP
0000
0000
0000
0000
FCF0
FCF0
FCF0
FCF0
3CF0
3CF0
3CF0
3CF0
3FF0
3FF0
3CF0
3CF0
3CF0
3CF0
3CF0
3CF0
3CF0
3CF0
0000
0000
0000
0000
ENDCHAR
STARTCHAR uni1F2C
ENCODING 7980
SWIDTH 994 0
DWIDTH 14 0
BBX 14 26 0 -6
BITMAP
0000
0000
0000
0000
FCF0
FCF0
FCF0
FCF0
3CF0
3CF0
3CF0
3CF0
3FF0
3FF0
3CF0
3CF0
3CF0
3CF0
3CF0
3CF0
3CF0
3CF0
0000
0000
0000
0000
ENDCHAR
STARTCHAR uni1F2D
ENCODING 7981
SWIDTH 994 0
DWIDTH 14 0
BBX 14 26 0 -6
BITMAP
0000
0000
0000
0000
FCF0
FCF0
FCF0
FCF0
3CF0
3CF0
3CF0
3CF0
3FF0
3FF0
3CF0
3CF0
3CF0
3CF0
3CF0
3CF0
3CF0
3CF0
0000
0000
0000
0000
ENDCHAR
STARTCHAR uni1F2E
ENCODING 7982
SWIDTH 994 0
DWIDTH 14 0
BBX 14 26 0 -6
BITMAP
0000
0000
0000
0000
FCF0
FCF0
FCF0
FCF0
3CF0
3CF0
3CF0
3CF0
3FF0
3FF0
3CF0
3CF0
3CF0
3CF0
3CF0
3CF0
3CF0
3CF0
0000
0000
0000
0000
ENDCHAR
STARTCHAR uni1F2F
ENCODING 7983
SWIDTH 994 0
DWIDTH 14 0
BBX 14 26 0 -6
BITMAP
0000
0000
0000
0000
FCF0
FCF0
FCF0
FCF0
3CF0
3CF0
3CF0
3CF0
3FF0
3FF0
3CF0
3CF0
3CF0
3CF0
3CF0
3CF0
3CF0
3CF0
0000
0000
0000
0000
ENDCHAR
STARTCHAR uni1F30
ENCODING 7984
SWIDTH 994 0
DWIDTH 14 0
BBX 14 26 0 -6
BITMAP
0000
0000
3F00
3F00
0F00
0F00
3C00
3C00
0000
0000
3C00
3C00
3C00
3C00
3C00
3C00
3C00
3C00
3FC0
3FC0
0F00
0F00
0000
0000
0000
0000
ENDCHAR
STARTCHAR uni1F31
ENCODING 7985
SWIDTH 994 0
DWIDTH 14 0
BBX 14 26 0 -6
BITMAP
0000
0000
3F00
3F00
3C00
3C00
0F00
0F00
0000
0000
3C00
3C00
3C00
3C00
3C00
3C00
3C00
3C00
3FC0
3FC0
0F00
0F00
0000
0000
0000
0000
ENDCHAR
STARTCHAR uni1F32
ENCODING 7986
SWIDTH 994 0
DWIDTH 14 0
BBX 14 26 0 -6
BITMAP
0000
0000
FFC0
FFC0
3CF0
3CF0
F000
F000
0000
0000
0F00
0F00
0F00
0F00
0F00
0F00
0F00
0F00
0FF0
0FF0
03C0
03C0
0000
0000
0000
0000
ENDCHAR
STARTCHAR uni1F33
ENCODING 7987
SWIDTH 994 0
DWIDTH 14 0
BBX 14 26 0 -6
BITMAP
0000
0000
FFC0
FFC0
F0F0
F0F0
3C00
3C00
0000
0000
0F00
0F00
0F00
0F00
0F00
0F00
0F00
0F00
0FF0
0FF0
03C0
03C0
0000
0000
0000
0000
ENDCHAR
STARTCHAR uni1F34
ENCODING 7988
SWIDTH 994 0
DWIDTH 14 0
BBX 14 26 0 -6
BITMAP
0000
0000
FCF0
FCF0
3FC0
3FC0
F000
F000
0000
0000
0F00
0F00
0F00
0F00
0F00
0F00
0F00
0F00
0FF0
0FF0
03C0
03C0
0000
0000
0000
0000
ENDCHAR
STARTCHAR uni1F35
ENCODING 7989
SWIDTH 994 0
DWIDTH 14 0
BBX 14 26 0 -6
BITMAP
0000
0000
FCF0
FCF0
F3C0
F3C0
3C00
3C00
0000
0000
0F00
0F00
0F00
0F00
0F00
0F00
0F00
0F00
0FF0
0FF0
03C0
03C0
0000
0000
0000
0000
ENDCHAR
STARTCHAR uni1F36
ENCODING 7990
SWIDTH 994 0
DWIDTH 14 0
BBX 14 26 0 -6
BITMAP
3C30
3C30
CFC0
CFC0
03C0
03C0
0F00
0F00
0000
0000
0F00
0F00
0F00
0F00
0F00
0F00
0F00
0F00
0FF0
0FF0
03C0
03C0
0000
0000
0000
0000
ENDCHAR
STARTCHAR uni1F37
ENCODING 7991
SWIDTH 994 0
DWIDTH 14 0
BBX 14 26 0 -6
BITMAP
3C30
3C30
CFC0
CFC0
0F00
0F00
03C0
03C0
0000
0000
0F00
0F00
0F00
0F00
0F00
0F00
0F00
0F00
0FF0
0FF0
03C0
03C0
0000
0000
0000
0000
ENDCHAR
STARTCHAR uni1F38
ENCODING 7992
SWIDTH 994 0
DWIDTH 14 0
BBX 14 26 0 -6
BITMAP
0000
0000
0000
0000
CFF0
CFF0
C3C0
C3C0
03C0
03C0
03C0
03C0
03C0
03C0
03C0
03C0
03C0
03C0
03C0
03C0
0FF0
0FF0
0000
0000
0000
0000
ENDCHAR
STARTCHAR uni1F39
ENCODING 7993
SWIDTH 994 0
DWIDTH 14 0
BBX 14 26 0 -6
BITMAP
0000
0000
0000
0000
CFF0
CFF0
C3C0
C3C0
03C0
03C0
03C0
03C0
03C0
03C0
03C0
03C0
03C0
03C0
03C0
03C0
0FF0
0FF0
0000
0000
0000
0000
ENDCHAR
STARTCHAR uni1F3A
ENCODING 7994
SWIDTH 994 0
DWIDTH 14 0
BBX 14 26 0 -6
BITMAP
0000
0000
0000
0000
CFF0
CFF0
C3C0
C3C0
03C0
03C0
03C0
03C0
03C0
03C0
03C0
03C0
03C0
03C0
03C0
03C0
0FF0
0FF0
0000
0000
0000
0000
ENDCHAR
STARTCHAR uni1F3B
ENCODING 7995
SWIDTH 994 0
DWIDTH 14 0
BBX 14 26 0 -6
BITMAP
0000
0000
0000
0000
CFF0
CFF0
C3C0
C3C0
03C0
03C0
03C0
03C0
03C0
03C0
03C0
03C0
03C0
03C0
03C0
03C0
0FF0
0FF0
0000
0000
0000
0000
ENDCHAR
STARTCHAR uni1F3C
ENCODING 7996
SWIDTH 994 0
DWIDTH 14 0
BBX 14 26 0 -6
BITMAP
0000
0000
0000
0000
CFF0
CFF0
C3C0
C3C0
03C0
03C0
03C0
03C0
03C0
03C0
03C0
03C0
03C0
03C0
03C0
03C0
0FF0
0FF0
0000
0000
0000
0000
ENDCHAR
STARTCHAR uni1F3D
ENCODING 7997
SWIDTH 994 0
DWIDTH 14 0
BBX 14 26 0 -6
BITMAP
0000
0000
0000
0000
CFF0
CFF0
C3C0
C3C0
03C0
03C0
03C0
03C0
03C0
03C0
03C0
03C0
03C0
03C0
03C0
03C0
0FF0
0FF0
0000
0000
0000
0000
ENDCHAR
STARTCHAR uni1F3E
ENCODING 7998
SWIDTH 994 0
DWIDTH 14 0
BBX 14 26 0 -6
BITMAP
0000
0000
0000
0000
CFF0
CFF0
C3C0
C3C0
03C0
03C0
03C0
03C0
03C0
03C0
03C0
03C0
03C0
03C0
03C0
03C0
0FF0
0FF0
0000
0000
0000
0000
ENDCHAR
STARTCHAR uni1F3F
ENCODING 7999
SWIDTH 994 0
DWIDTH 14 0
BBX 14 26 0 -6
BITMAP
0000
0000
0000
0000
CFF0
CFF0
C3C0
C3C0
03C0
03C0
03C0
03C0
03C0
03C0
03C0
03C0
03C0
03C0
03C0
03C0
0FF0
0FF0
0000
0000
0000
0000
ENDCHAR
STARTCHAR uni1F40
ENCODING 8000
SWIDTH 994 0
DWIDTH 14 0
BBX 14 26 0 -6
BITMAP
0000
0000
0FC0
0FC0
03C0
03C0
0F00
0F00
0000
0000
3FC0
3FC0
F0F0
F0F0
F0F0
F0F0
F0F0
F0F0
F0F0
F0F0
3FC0
3FC0
0000
0000
0000
0000
ENDCHAR
STARTCHAR uni1F41
ENCODING 8001
SWIDTH 994 0
DWIDTH 14 0
BBX 14 26 0 -6
BITMAP
0000
0000
0FC0
0FC0
0F00
0F00
03C0
03C0
0000
0000
3FC0
3FC0
F0F0
F0F0
F0F0
F0F0
F0F0
F0F0
F0F0
F0F0
3FC0
3FC0
0000
0000
0000
0000
ENDCHAR
STARTCHAR uni1F42
ENCODING 8002
SWIDTH 994 0
DWIDTH 14 0
BBX 14 26 0 -6
BITMAP
0000
0000
FFC0
FFC0
3CF0
3CF0
F000
F000
0000
0000
3FC0
3FC0
F0F0
F0F0
F0F0
F0F0
F0F0
F0F0
F0F0
F0F0
3FC0
3FC0
0000
0000
0000
0000
ENDCHAR
STARTCHAR uni1F43
ENCODING 8003
SWIDTH 994 0
DWIDTH 14 0
BBX 14 26 0 -6
BITMAP
0000
0000
FFC0
FFC0
F0F0
F0F0
3C00
3C00
0000
0000
3FC0
3FC0
F0F0
F0F0
F0F0
F0F0
F0F0
F0F0
F0F0
F0F0
3FC0
3FC0
0000
0000
0000
0000
ENDCHAR
STARTCHAR uni1F44
ENCODING 8004
SWIDTH 994 0
DWIDTH 14 0
BBX 14 26 0 -6
BITMAP
0000
0000
FCF0
FCF0
3FC0
3FC0
F000
F000
0000
0000
3FC0
3FC0
F0F0
F0F0
F0F0
F0F0
F0F0
F0F0
F0F0
F0F0
3FC0
3FC0
0000
0000
0000
0000
ENDCHAR
STARTCHAR uni1F45
ENCODING 8005
SWIDTH 994 0
DWIDTH 14 0
BBX 14 26 0 -6
BITMAP
0000
0000
FCF0
FCF0
F3C0
F3C0
3C00
3C00
0000
0000
3FC0
3FC0
F0F0
F0F0
F0F0
F0F0
F0F0
F0F0
F0F0
F0F0
3FC0
3FC0
0000
0000
0000
0000
ENDCHAR
STARTCHAR uni1F48
ENCODING 8008
SWIDTH 994 0
DWIDTH 14 0
BBX 14 26 0 -6
BITMAP
0000
0000
0000
0000
CFC0
CFC0
FCF0
FCF0
3CF0
3CF0
3CF0
3CF0
3CF0
3CF0
3CF0
3CF0
3CF0
3CF0
3CF0
3CF0
0FC0
0FC0
0000
0000
0000
0000
ENDCHAR
STARTCHAR uni1F49
ENCODING 8009
SWIDTH 994 0
DWIDTH 14 0
BBX 14 26 0 -6
BITMAP
0000
0000
0000
0000
CFC0
CFC0
FCF0
FCF0
3CF0
3CF0
3CF0
3CF0
3CF0
3CF0
3CF0
3CF0
3CF0
3CF0
3CF0
3CF0
0FC0
0FC0
0000
0000
0000
0000
ENDCHAR
STARTCHAR uni1F4A
ENCODING 8010
SWIDTH 994 0
DWIDTH 14 0
BBX 14 26 0 -6
BITMAP
0000
0000
0000
0000
CFC0
CFC0
FCF0
FCF0
3CF0
3CF0
3CF0
3CF0
3CF0
3CF0
3CF0
3CF0
3CF0
3CF0
3CF0
3CF0
0FC0
0FC0
0000
0000
0000
0000
ENDCHAR
STARTCHAR uni1F4B
ENCODING 8011
SWIDTH 994 0
DWIDTH 14 0
BBX 14 26 0 -6
BITMAP
0000
0000
0000
0000
CFC0
CFC0
FCF0
FCF0
3CF0
3CF0
3CF0
3CF0
3CF0
3CF0
3CF0
3CF0
3CF0
3CF0
3CF0
3CF0
0FC0
0FC0
0000
0000
0000
0000
ENDCHAR
STARTCHAR uni1F4C
ENCODING 8012
SWIDTH 994 0
DWIDTH 14 0
BBX 14 26 0 -6
BITMAP
0000
0000
0000
0000
CFC0
CFC0
FCF0
FCF0
3CF0
3CF0
3CF0
3CF0
3CF0
3CF0
3CF0
3CF0
3CF0
3CF0
3CF0
3CF0
0FC0
0FC0
0000
0000
0000
0000
ENDCHAR
STARTCHAR uni1F4D
ENCODING 8013
SWIDTH 994 0
DWIDTH 14 0
BBX 14 26 0 -6
BITMAP
0000
0000
0000
0000
CFC0
CFC0
FCF0
FCF0
3CF0
3CF0
3CF0
3CF0
3CF0
3CF0
3CF0
3CF0
3CF0
3CF0
3CF0
3CF0
0FC0
0FC0
0000
0000
0000
0000
ENDCHAR
STARTCHAR uni1F50
ENCODING 8016
SWIDTH 994 0
DWIDTH 14 0
BBX 14 26 0 -6
BITMAP
0000
0000
0FC0
0FC0
03C0
03C0
0F00
0F00
0000
0000
F0F0
F0F0
F0F0
F0F0
F0F0
F0F0
F0F0
F0F0
F0F0
F0F0
3FC0
3FC0
0000
0000
0000
0000
ENDCHAR
STARTCHAR uni1F51
ENCODING 8017
SWIDTH 994 0
DWIDTH 14 0
BBX 14 26 0 -6
BITMAP
0000
0000
0FC0
0FC0
0F00
0F00
03C0
03C0
0000
0000
F0F0
F0F0
F0F0
F0F0
F0F0
F0F0
F0F0
F0F0
F0F0
F0F0
3FC0
3FC0
0000
0000
0000
0000
ENDCHAR
STARTCHAR uni1F52
ENCODING 8018
SWIDTH 994 0
DWIDTH 14 0
BBX 14 26 0 -6
BITMAP
0000
0000
FFC0
FFC0
3CF0
3CF0
F000
F000
0000
0000
F0F0
F0F0
F0F0
F0F0
F0F0
F0F0
F0F0
F0F0
F0F0
F0F0
3FC0
3FC0
0000
0000
0000
0000
ENDCHAR
STARTCHAR uni1F53
ENCODING 8019
SWIDTH 994 0
DWIDTH 14 0
BBX 14 26 0 -6
BITMAP
0000
0000
FFC0
FFC0
F0F0
F0F0
3C00
3C00
0000
0000
F0F0
F0F0
F0F0
F0F0
F0F0
F0F0
F0F0
F0F0
F0F0
F0F0
3FC0
3FC0
0000
0000
0000
0000
ENDCHAR
STARTCHAR uni1F54
ENCODING 8020
SWIDTH 994 0
DWIDTH 14 0
BBX 14 26 0 -6
BITMAP
0000
0000
FCF0
FCF0
3FC0
3FC0
F000
F000
0000
0000
F0F0
F0F0
F0F0
F0F0
F0F0
F0F0
F0F0
F0F0
F0F0
F0F0
3FC0
3FC0
0000
0000
0000
0000
ENDCHAR
STARTCHAR uni1F55
ENCODING 8021
SWIDTH 994 0
DWIDTH 14 0
BBX 14 26 0 -6
BITMAP
0000
0000
FCF0
FCF0
F3C0
F3C0
3C00
3C00
0000
0000
F0F0
F0F0
F0F0
F0F0
F0F0
F0F0
F0F0
F0F0
F0F0
F0F0
3FC0
3FC0
0000
0000
0000
0000
ENDCHAR
STARTCHAR uni1F56
ENCODING 8022
SWIDTH 994 0
DWIDTH 14 0
BBX 14 26 0 -6
BITMAP
3C30
3C30
CFC0
CFC0
03C0
03C0
0F00
0F00
0000
0000
F0F0
F0F0
F0F0
F0F0
F0F0
F0F0
F0F0
F0F0
F0F0
F0F0
3FC0
3FC0
0000
0000
0000
0000
ENDCHAR
STARTCHAR uni1F57
ENCODING 8023
SWIDTH 994 0
DWIDTH 14 0
BBX 14 26 0 -6
BITMAP
3C30
3C30
CFC0
CFC0
0F00
0F00
03C0
03C0
0000
0000
F0F0
F0F0
F0F0
F0F0
F0F0
F0F0
F0F0
F0F0
F0F0
F0F0
3FC0
3FC0
0000
0000
0000
0000
ENDCHAR
STARTCHAR uni1F59
ENCODING 8025
SWIDTH 994 0
DWIDTH 14 0
BBX 14 26 0 -6
BITMAP
0000
0000
0000
0000
CC30
CC30
CC30
CC30
0FF0
0FF0
0FF0
0FF0
03C0
03C0
03C0
03C0
03C0
03C0
03C0
03C0
03C0
03C0
0000
0000
0000
0000
ENDCHAR
STARTCHAR uni1F5B
ENCODING 8027
SWIDTH 994 0
DWIDTH 14 0
BBX 14 26 0 -6
BITMAP
0000
0000
0000
0000
CC30
CC30
CC30
CC30
0FF0
0FF0
0FF0
0FF0
03C0
03C0
03C0
03C0
03C0
03C0
03C0
03C0
03C0
03C0
0000
0000
0000
0000
ENDCHAR
STARTCHAR uni1F5D
ENCODING 8029
SWIDTH 994 0
DWIDTH 14 0
BBX 14 26 0 -6
BITMAP
0000
0000
0000
0000
CC30
CC30
CC30
CC30
0FF0
0FF0
0FF0
0FF0
03C0
03C0
03C0
03C0
03C0
03C0
03C0
03C0
03C0
03C0
0000
0000
0000
0000
ENDCHAR
STARTCHAR uni1F5F
ENCODING 8031
SWIDTH 994 0
DWIDTH 14 0
BBX 14 26 0 -6
BITMAP
0000
0000
0000
0000
CC30
CC30
CC30
CC30
0FF0
0FF0
0FF0
0FF0
03C0
03C0
03C0
03C0
03C0
03C0
03C0
03C0
03C0
03C0
0000
0000
0000
0000
ENDCHAR
STARTCHAR uni1F60
ENCODING 8032
SWIDTH 994 0
DWIDTH 14 0
BBX 14 26 0 -6
BITMAP
0000
0000
0FC0
0FC0
03C0
03C0
0F00
0F00
0000
0000
F0F0
F0F0
F0F0
F0F0
F0F0
F0F0
FFF0
FFF0
FFF0
FFF0
30C0
30C0
0000
0000
0000
0000
ENDCHAR
STARTCHAR uni1F61
ENCODING 8033
SWIDTH 994 0
DWIDTH 14 0
BBX 14 26 0 -6
BITMAP
0000
0000
0FC0
0FC0
0F00
0F00
03C0
03C0
0000
0000
F0F0
F0F0
F0F0
F0F0
F0F0
F0F0
FFF0
FFF0
FFF0
FFF0
30C0
30C0
0000
0000
0000
0000
ENDCHAR
STARTCHAR uni1F62
ENCODING 8034
SWIDTH 994 0
DWIDTH 14 0
BBX 14 26 0 -6
BITMAP
0000
0000
FFC0
FFC0
3CF0
3CF0
F000
F000
0000
0000
F0F0
F0F0
F0F0
F0F0
F0F0
F0F0
FFF0
FFF0
FFF0
FFF0
30C0
30C0
0000
0000
0000
0000
ENDCHAR
STARTCHAR uni1F63
ENCODING 8035
SWIDTH 994 0
DWIDTH 14 0
BBX 14 26 0 -6
BITMAP
0000
0000
FFC0
FFC0
F0F0
F0F0
3C00
3C00
0000
0000
F0F0
F0F0
F0F0
F0F0
F0F0
F0F0
FFF0
FFF0
FFF0
FFF0
30C0
30C0
0000
0000
0000
0000
ENDCHAR
STARTCHAR uni1F64
ENCODING 8036
SWIDTH 994 0
DWIDTH 14 0
BBX 14 26 0 -6
BITMAP
0000
0000
FCF0
FCF0
3FC0
3FC0
F000
F000
0000
0000
F0F0
F0F0
F0F0
F0F0
F0F0
F0F0
FFF0
FFF0
FFF0
FFF0
30C0
30C0
0000
0000
0000
0000
ENDCHAR
STARTCHAR uni1F65
ENCODING 8037
SWIDTH 994 0
DWIDTH 14 0
BBX 14 26 0 -6
BITMAP
0000
0000
FCF0
FCF0
F3C0
F3C0
3C00
3C00
0000
0000
F0F0
F0F0
F0F0
F0F0
F0F0
F0F0
FFF0
FFF0
FFF0
FFF0
30C0
30C0
0000
0000
0000
0000
ENDCHAR
STARTCHAR uni1F66
ENCODING 8038
SWIDTH 994 0
DWIDTH 14 0
BBX 14 26 0 -6
BITMAP
0000
0000
0FC0
0FC0
03C0
03C0
0F00
0F00
0000
0000
F0F0
F0F0
F0F0
F0F0
F0F0
F0F0
FFF0
FFF0
FFF0
FFF0
30C0
30C0
0000
0000
0000
0000
ENDCHAR
STARTCHAR uni1F67
ENCODING 8039
SWIDTH 994 0
DWIDTH 14 0
BBX 14 26 0 -6
BITMAP
0000
0000
0FC0
0FC0
0F00
0F00
03C0
03C0
0000
0000
F0F0
F0F0
F0F0
F0F0
F0F0
F0F0
FFF0
FFF0
FFF0
FFF0
30C0
30C0
0000
0000
0000
0000
ENDCHAR
STARTCHAR uni1F68
ENCODING 8040
SWIDTH 994 0
DWIDTH 14 0
BBX 14 26 0 -6
BITMAP
0000
0000
0000
0000
CFC0
CFC0
FCF0
FCF0
3CF0
3CF0
3CF0
3CF0
3CF0
3CF0
3CF0
3CF0
0CC0
0CC0
0CC0
0CC0
3CF0
3CF0
0000
0000
0000
0000
ENDCHAR
STARTCHAR uni1F69
ENCODING 8041
SWIDTH 994 0
DWIDTH 14 0
BBX 14 26 0 -6
BITMAP
0000
0000
0000
0000
CFC0
CFC0
FCF0
FCF0
3CF0
3CF0
3CF0
3CF0
3CF0
3CF0
3CF0
3CF0
0CC0
0CC0
0CC0
0CC0
3CF0
3CF0
0000
0000
0000
0000
ENDCHAR
STARTCHAR uni1F6A
ENCODING 8042
SWIDTH 994 0
DWIDTH 14 0
BBX 14 26 0 -6
BITMAP
0000
0000
0000
0000
CFC0
CFC0
FCF0
FCF0
3CF0
3CF0
3CF0
3CF0
3CF0
3CF0
3CF0
3CF0
0CC0
0CC0
0CC0
0CC0
3CF0
3CF0
0000
0000
0000
0000
ENDCHAR
STARTCHAR uni1F6B
ENCODING 8043
SWIDTH 994 0
DWIDTH 14 0
BBX 14 26 0 -6
BITMAP
0000
0000
0000
0000
CFC0
CFC0
FCF0
FCF0
3CF0
3CF0
3CF0
3CF0
3CF0
3CF0
3CF0
3CF0
0CC0
0CC0
0CC0
0CC0
3CF0
3CF0
0000
0000
0000
0000
ENDCHAR
STARTCHAR uni1F6C
ENCODING 8044
SWIDTH 994 0
DWIDTH 14 0
BBX 14 26 0 -6
BITMAP
0000
0000
0000
0000
CFC0
CFC0
FCF0
FCF0
3CF0
3CF0
3CF0
3CF0
3CF0
3CF0
3CF0
3CF0
0CC0
0CC0
0CC0
0CC0
3CF0
3CF0
0000
0000
0000
0000
ENDCHAR
STARTCHAR uni1F6D
ENCODING 8045
SWIDTH 994 0
DWIDTH 14 0
BBX 14 26 0 -6
BITMAP
0000
0000
0000
0000
CFC0
CFC0
FCF0
FCF0
3CF0
3CF0
3CF0
3CF0
3CF0
3CF0
3CF0
3CF0
0CC0
0CC0
0CC0
0CC0
3CF0
3CF0
0000
0000
0000
0000
ENDCHAR
STARTCHAR uni1F6E
ENCODING 8046
SWIDTH 994 0
DWIDTH 14 0
BBX 14 26 0 -6
BITMAP
0000
0000
0000
0000
CFC0
CFC0
FCF0
FCF0
3CF0
3CF0
3CF0
3CF0
3CF0
3CF0
3CF0
3CF0
0CC0
0CC0
0CC0
0CC0
3CF0
3CF0
0000
0000
0000
0000
ENDCHAR
STARTCHAR uni1F6F
ENCODING 8047
SWIDTH 994 0
DWIDTH 14 0
BBX 14 26 0 -6
BITMAP
0000
0000
0000
0000
CFC0
CFC0
FCF0
FCF0
3CF0
3CF0
3CF0
3CF0
3CF0
3CF0
3CF0
3CF0
0CC0
0CC0
0CC0
0CC0
3CF0
3CF0
0000
0000
0000
0000
ENDCHAR
STARTCHAR uni1F70
ENCODING 8048
SWIDTH 994 0
DWIDTH 14 0
BBX 14 26 0 -6
BITMAP
0000
0000
0000
0000
3C00
3C00
0F00
0F00
0000
0000
3FC0
3FC0
F0F0
F0F0
F0F0
F0F0
F0F0
F0F0
F3F0
F3F0
3CF0
3CF0
0000
0000
0000
0000
ENDCHAR
STARTCHAR uni1F71
ENCODING 8049
SWIDTH 994 0
DWIDTH 14 0
BBX 14 26 0 -6
BITMAP
0000
0000
0000
0000
03C0
03C0
0F00
0F00
0000
0000
3FC0
3FC0
F0F0
F0F0
F0F0
F0F0
F0F0
F0F0
F3F0
F3F0
3CF0
3CF0
0000
0000
0000
0000
ENDCHAR
STARTCHAR uni1F72
ENCODING 8050
SWIDTH 994 0
DWIDTH 14 0
BBX 14 26 0 -6
BITMAP
0000
0000
0000
0000
3C00
3C00
0F00
0F00
0000
0000
3FC0
3FC0
F0F0
F0F0
3F00
3F00
F000
F000
F0F0
F0F0
3FC0
3FC0
0000
0000
0000
0000
ENDCHAR
STARTCHAR uni1F73
ENCODING 8051
SWIDTH 994 0
DWIDTH 14 0
BBX 14 26 0 -6
BITMAP
0000
0000
0000
0000
03C0
03C0
0F00
0F00
0000
0000
3FC0
3FC0
F0F0
F0F0
3F00
3F00
F000
F000
F0F0
F0F0
3FC0
3FC0
0000
0000
0000
0000
ENDCHAR
STARTCHAR uni1F74
ENCODING 8052
SWIDTH 994 0
DWIDTH 14 0
BBX 14 26 0 -6
BITMAP
0000
0000
0000
0000
3C00
3C00
0F00
0F00
0000
0000
FFC0
FFC0
F0F0
F0F0
F0F0
F0F0
F0F0
F0F0
F0F0
F0F0
F0F0
F0F0
00F0
00F0
00F0
00F0
ENDCHAR
STARTCHAR uni1F75
ENCODING 8053
SWIDTH 994 0
DWIDTH 14 0
BBX 14 26 0 -6
BITMAP
0000
0000
0000
0000
03C0
03C0
0F00
0F00
0000
0000
FFC0
FFC0
F0F0
F0F0
F0F0
F0F0
F0F0
F0F0
F0F0
F0F0
F0F0
F0F0
00F0
00F0
00F0
00F0
ENDCHAR
STARTCHAR uni1F76
ENCODING 8054
SWIDTH 994 0
DWIDTH 14 0
BBX 14 26 0 -6
BITMAP
0000
0000
0000
0000
F000
F000
3C00
3C00
0000
0000
3C00
3C00
3C00
3C00
3C00
3C00
3C00
3C00
3FC0
3FC0
0F00
0F00
0000
0000
0000
0000
ENDCHAR
STARTCHAR uni1F77
ENCODING 8055
SWIDTH 994 0
DWIDTH 14 0
BBX 14 26 0 -6
BITMAP
0000
0000
0000
0000
0F00
0F00
3C00
3C00
0000
0000
3C00
3C00
3C00
3C00
3C00
3C00
3C00
3C00
3FC0
3FC0
0F00
0F00
0000
0000
0000
0000
ENDCHAR
STARTCHAR uni1F78
ENCODING 8056
SWIDTH 994 0
DWIDTH 14 0
BBX 14 26 0 -6
BITMAP
0000
0000
0000
0000
3C00
3C00
0F00
0F00
0000
0000
3FC0
3FC0
F0F0
F0F0
F0F0
F0F0
F0F0
F0F0
F0F0
F0F0
3FC0
3FC0
0000
0000
0000
0000
ENDCHAR
STARTCHAR uni1F79
ENCODING 8057
SWIDTH 994 0
DWIDTH 14 0
BBX 14 26 0 -6
BITMAP
0000
0000
0000
0000
03C0
03C0
0F00
0F00
0000
0000
3FC0
3FC0
F0F0
F0F0
F0F0
F0F0
F0F0
F0F0
F0F0
F0F0
3FC0
3FC0
0000
0000
0000
0000
ENDCHAR
STARTCHAR uni1F7A
ENCODING 8058
SWIDTH 994 0
DWIDTH 14 0
BBX 14 26 0 -6
BITMAP
0000
0000
0000
0000
3C00
3C00
0F00
0F00
0000
0000
F0F0
F0F0
F0F0
F0F0
F0F0
F0F0
F0F0
F0F0
F0F0
F0F0
3FC0
3FC0
0000
0000
0000
0000
ENDCHAR
STARTCHAR uni1F7B
ENCODING 8059
SWIDTH 994 0
DWIDTH 14 0
BBX 14 26 0 -6
BITMAP
0000
0000
0000
0000
03C0
03C0
0F00
0F00
0000
0000
F0F0
F0F0
F0F0
F0F0
F0F0
F0F0
F0F0
F0F0
F0F0
F0F0
3FC0
3FC0
0000
0000
0000
0000
ENDCHAR
STARTCHAR uni1F7C
ENCODING 8060
SWIDTH 994 0
DWIDTH 14 0
BBX 14 26 0 -6
BITMAP
0000
0000
0000
0000
3C00
3C00
0F00
0F00
0000
0000
F0F0
F0F0
F0F0
F0F0
F0F0
F0F0
FFF0
FFF0
FFF0
FFF0
30C0
30C0
0000
0000
0000
0000
ENDCHAR
STARTCHAR uni1F7D
ENCODING 8061
SWIDTH 994 0
DWIDTH 14 0
BBX 14 26 0 -6
BITMAP
0000
0000
0000
0000
03C0
03C0
0F00
0F00
0000
0000
F0F0
F0F0
F0F0
F0F0
F0F0
F0F0
FFF0
FFF0
FFF0
FFF0
30C0
30C0
0000
0000
0000
0000
ENDCHAR
STARTCHAR uni1F80
ENCODING 8064
SWIDTH 994 0
DWIDTH 14 0
BBX 14 26 0 -6
BITMAP
0000
0000
0FC0
0FC0
03C0
03C0
0F00
0F00
0000
0000
3FC0
3FC0
F0F0
F0F0
F0F0
F0F0
F0F0
F0F0
F3F0
F3F0
3CF0
3CF0
0000
0000
0F00
0F00
ENDCHAR
STARTCHAR uni1F81
ENCODING 8065
SWIDTH 994 0
DWIDTH 14 0
BBX 14 26 0 -6
BITMAP
0000
0000
0FC0
0FC0
0F00
0F00
03C0
03C0
0000
0000
3FC0
3FC0
F0F0
F0F0
F0F0
F0F0
F0F0
F0F0
F3F0
F3F0
3CF0
3CF0
0000
0000
0F00
0F00
ENDCHAR
STARTCHAR uni1F82
ENCODING 8066
SWIDTH 994 0
DWIDTH 14 0
BBX 14 26 0 -6
BITMAP
0000
0000
FFC0
FFC0
3CF0
3CF0
F000
F000
0000
0000
3FC0
3FC0
F0F0
F0F0
F0F0
F0F0
F0F0
F0F0
F3F0
F3F0
3CF0
3CF0
0000
0000
0F00
0F00
ENDCHAR
STARTCHAR uni1F83
ENCODING 8067
SWIDTH 994 0
DWIDTH 14 0
BBX 14 26 0 -6
BITMAP
0000
0000
FFC0
FFC0
F0F0
F0F0
3C00
3C00
0000
0000
3FC0
3FC0
F0F0
F0F0
F0F0
F0F0
F0F0
F0F0
F3F0
F3F0
3CF0
3CF0
0000
0000
0F00
0F00
ENDCHAR
STARTCHAR uni1F84
ENCODING 8068
SWIDTH 994 0
DWIDTH 14 0
BBX 14 26 0 -6
BITMAP
0000
0000
FCF0
FCF0
3FC0
3FC0
F000
F000
0000
0000
3FC0
3FC0
F0F0
F0F0
F0F0
F0F0
F0F0
F0F0
F3F0
F3F0
3CF0
3CF0
0000
0000
0F00
0F00
ENDCHAR
STARTCHAR uni1F85
ENCODING 8069
SWIDTH 994 0
DWIDTH 14 0
BBX 14 26 0 -6
BITMAP
0000
0000
FCF0
FCF0
F3C0
F3C0
3C00
3C00
0000
0000
3FC0
3FC0
F0F0
F0F0
F0F0
F0F0
F0F0
F0F0
F3F0
F3F0
3CF0
3CF0
0000
0000
0F00
0F00
ENDCHAR
STARTCHAR uni1F86
ENCODING 8070
SWIDTH 994 0
DWIDTH 14 0
BBX 14 26 0 -6
BITMAP
3C30
3C30
CFC0
CFC0
03C0
03C0
0F00
0F00
0000
0000
3FC0
3FC0
F0F0
F0F0
F0F0
F0F0
F0F0
F0F0
F3F0
F3F0
3CF0
3CF0
0000
0000
0F00
0F00
ENDCHAR
STARTCHAR uni1F87
ENCODING 8071
SWIDTH 994 0
DWIDTH 14 0
BBX 14 26 0 -6
BITMAP
3C30
3C30
CFC0
CFC0
0F00
0F00
03C0
03C0
0000
0000
3FC0
3FC0
F0F0
F0F0
F0F0
F0F0
F0F0
F0F0
F3F0
F3F0
3CF0
3CF0
0000
0000
0F00
0F00
ENDCHAR
STARTCHAR uni1F88
ENCODING 8072
SWIDTH 994 0
DWIDTH 14 0
BBX 14 26 0 -6
BITMAP
0000
0000
0000
0000
CFC0
CFC0
FCF0
FCF0
3CF0
3CF0
3CF0
3CF0
3FF0
3FF0
3CF0
3CF0
3CF0
3CF0
3CF0
3CF0
3CF0
3CF0
0000
0000
03C0
03C0
ENDCHAR
STARTCHAR uni1F89
ENCODING 8073
SWIDTH 994 0
DWIDTH 14 0
BBX 14 26 0 -6
BITMAP
0000
0000
0000
0000
CFC0
CFC0
FCF0
FCF0
3CF0
3CF0
3CF0
3CF0
3FF0
3FF0
3CF0
3CF0
3CF0
3CF0
3CF0
3CF0
3CF0
3CF0
0000
0000
03C0
03C0
ENDCHAR
STARTCHAR uni1F8A
ENCODING 8074
SWIDTH 994 0
DWIDTH 14 0
BBX 14 26 0 -6
BITMAP
0000
0000
0000
0000
CFC0
CFC0
FCF0
FCF0
3CF0
3CF0
3CF0
3CF0
3FF0
3FF0
3CF0
3CF0
3CF0
3CF0
3CF0
3CF0
3CF0
3CF0
0000
0000
03C0
03C0
ENDCHAR
STARTCHAR uni1F8B
ENCODING 8075
SWIDTH 994 0
DWIDTH 14 0
BBX 14 26 0 -6
BITMAP
0000
0000
0000
0000
CFC0
CFC0
FCF0
FCF0
3CF0
3CF0
3CF0
3CF0
3FF0
3FF0
3CF0
3CF0
3CF0
3CF0
3CF0
3CF0
3CF0
3CF0
0000
0000
03C0
03C0
ENDCHAR
STARTCHAR uni1F8C
ENCODING 8076
SWIDTH 994 0
DWIDTH 14 0
BBX 14 26 0 -6
BITMAP
0000
0000
0000
0000
CFC0
CFC0
FCF0
FCF0
3CF0
3CF0
3CF0
3CF0
3FF0
3FF0
3CF0
3CF0
3CF0
3CF0
3CF0
3CF0
3CF0
3CF0
0000
0000
03C0
03C0
ENDCHAR
STARTCHAR uni1F8D
ENCODING 8077
SWIDTH 994 0
DWIDTH 14 0
BBX 14 26 0 -6
BITMAP
0000
0000
0000
0000
CFC0
CFC0
FCF0
FCF0
3CF0
3CF0
3CF0
3CF0
3FF0
3FF0
3CF0
3CF0
3CF0
3CF0
3CF0
3CF0
3CF0
3CF0
0000
0000
03C0
03C0
ENDCHAR
STARTCHAR uni1F8E
ENCODING 8078
SWIDTH 994 0
DWIDTH 14 0
BBX 14 26 0 -6
BITMAP
0000
0000
0000
0000
CFC0
CFC0
FCF0
FCF0
3CF0
3CF0
3CF0
3CF0
3FF0
3FF0
3CF0
3CF0
3CF0
3CF0
3CF0
3CF0
3CF0
3CF0
0000
0000
03C0
03C0
ENDCHAR
STARTCHAR uni1F8F
ENCODING 8079
SWIDTH 994 0
DWIDTH 14 0
BBX 14 26 0 -6
BITMAP
0000
0000
0000
0000
CFC0
CFC0
FCF0
FCF0
3CF0
3CF0
3CF0
3CF0
3FF0
3FF0
3CF0
3CF0
3CF0
3CF0
3CF0
3CF0
3CF0
3CF0
0000
0000
03C0
03C0
ENDCHAR
STARTCHAR uni1F90
ENCODING 8080
SWIDTH 994 0
DWIDTH 14 0
BBX 14 26 0 -6
BITMAP
0000
0000
0FC0
0FC0
03C0
03C0
0F00
0F00
0000
0000
FFC0
FFC0
F0F0
F0F0
F0F0
F0F0
F0F0
F0F0
F0F0
F0F0
F0F0
F0F0
00F0
00F0
F0F0
F0F0
ENDCHAR
STARTCHAR uni1F91
ENCODING 8081
SWIDTH 994 0
DWIDTH 14 0
BBX 14 26 0 -6
BITMAP
0000
0000
0FC0
0FC0
0F00
0F00
03C0
03C0
0000
0000
FFC0
FFC0
F0F0
F0F0
F0F0
F0F0
F0F0
F0F0
F0F0
F0F0
F0F0
F0F0
00F0
00F0
F0F0
F0F0
ENDCHAR
STARTCHAR uni1F92
ENCODING 8082
SWIDTH 994 0
DWIDTH 14 0
BBX 14 26 0 -6
BITMAP
0000
0000
FFC0
FFC0
3CF0
3CF0
F000
F000
0000
0000
FFC0
FFC0
F0F0
F0F0
F0F0
F0F0
F0F0
F0F0
F0F0
F0F0
F0F0
F0F0
00F0
00F0
F0F0
F0F0
ENDCHAR
STARTCHAR uni1F93
ENCODING 8083
SWIDTH 994 0
DWIDTH 14 0
BBX 14 26 0 -6
BITMAP
0000
0000
FFC0
FFC0
F0F0
F0F0
3C00
3C00
0000
0000
FFC0
FFC0
F0F0
F0F0
F0F0
F0F0
F0F0
F0F0
F0F0
F0F0
F0F0
F0F0
00F0
00F0
F0F0
F0F0
ENDCHAR
STARTCHAR uni1F94
ENCODING 8084
SWIDTH 994 0
DWIDTH 14 0
BBX 14 26 0 -6
BITMAP
0000
0000
FCF0
FCF0
3FC0
3FC0
F000
F000
0000
0000
FFC0
FFC0
F0F0
F0F0
F0F0
F0F0
F0F0
F0F0
F0F0
F0F0
F0F0
F0F0
00F0
00F0
F0F0
F0F0
ENDCHAR
STARTCHAR uni1F95
ENCODING 8085
SWIDTH 994 0
DWIDTH 14 0
BBX 14 26 0 -6
BITMAP
0000
0000
FCF0
FCF0
F3C0
F3C0
3C00
3C00
0000
0000
FFC0
FFC0
F0F0
F0F0
F0F0
F0F0
F0F0
F0F0
F0F0
F0F0
F0F0
F0F0
00F0
00F0
F0F0
F0F0
ENDCHAR
STARTCHAR uni1F96
ENCODING 8086
SWIDTH 994 0
DWIDTH 14 0
BBX 14 26 0 -6
BITMAP
3C30
3C30
CFC0
CFC0
03C0
03C0
0F00
0F00
0000
0000
FFC0
FFC0
F0F0
F0F0
F0F0
F0F0
F0F0
F0F0
F0F0
F0F0
F0F0
F0F0
00F0
00F0
F0F0
F0F0
ENDCHAR
STARTCHAR uni1F97
ENCODING 8087
SWIDTH 994 0
DWIDTH 14 0
BBX 14 26 0 -6
BITMAP
3C30
3C30
CFC0
CFC0
0F00
0F00
03C0
03C0
0000
0000
FFC0
FFC0
F0F0
F0F0
F0F0
F0F0
F0F0
F0F0
F0F0
F0F0
F0F0
F0F0
00F0
00F0
F0F0
F0F0
ENDCHAR
STARTCHAR uni1F98
ENCODING 8088
SWIDTH 994 0
DWIDTH 14 0
BBX 14 26 0 -6
BITMAP
0000
0000
0000
0000
FCF0
FCF0
FCF0
FCF0
3CF0
3CF0
3CF0
3CF0
3FF0
3FF0
3CF0
3CF0
3CF0
3CF0
3CF0
3CF0
3CF0
3CF0
0000
0000
03C0
03C0
ENDCHAR
STARTCHAR uni1F99
ENCODING 8089
SWIDTH 994 0
DWIDTH 14 0
BBX 14 26 0 -6
BITMAP
0000
0000
0000
0000
FCF0
FCF0
FCF0
FCF0
3CF0
3CF0
3CF0
3CF0
3FF0
3FF0
3CF0
3CF0
3CF0
3CF0
3CF0
3CF0
3CF0
3CF0
0000
0000
03C0
03C0
ENDCHAR
STARTCHAR uni1F9A
ENCODING 8090
SWIDTH 994 0
DWIDTH 14 0
BBX 14 26 0 -6
BITMAP
0000
0000
0000
0000
FCF0
FCF0
FCF0
FCF0
3CF0
3CF0
3CF0
3CF0
3FF0
3FF0
3CF0
3CF0
3CF0
3CF0
3CF0
3CF0
3CF0
3CF0
0000
0000
03C0
03C0
ENDCHAR
STARTCHAR uni1F9B
ENCODING 8091
SWIDTH 994 0
DWIDTH 14 0
BBX 14 26 0 -6
BITMAP
0000
0000
0000
0000
FCF0
FCF0
FCF0
FCF0
3CF0
3CF0
3CF0
3CF0
3FF0
3FF0
3CF0
3CF0
3CF0
3CF0
3CF0
3CF0
3CF0
3CF0
0000
0000
03C0
03C0
ENDCHAR
STARTCHAR uni1F9C
ENCODING 8092
SWIDTH 994 0
DWIDTH 14 0
BBX 14 26 0 -6
BITMAP
0000
0000
0000
0000
FCF0
FCF0
FCF0
FCF0
3CF0
3CF0
3CF0
3CF0
3FF0
3FF0
3CF0
3CF0
3CF0
3CF0
3CF0
3CF0
3CF0
3CF0
0000
0000
03C0
03C0
ENDCHAR
STARTCHAR uni1F9D
ENCODING 8093
SWIDTH 994 0
DWIDTH 14 0
BBX 14 26 0 -6
BITMAP
0000
0000
0000
0000
FCF0
FCF0
FCF0
FCF0
3CF0
3CF0
3CF0
3CF0
3FF0
3FF0
3CF0
3CF0
3CF0
3CF0
3CF0
3CF0
3CF0
3CF0
0000
0000
03C0
03C0
ENDCHAR
STARTCHAR uni1F9E
ENCODING 8094
SWIDTH 994 0
DWIDTH 14 0
BBX 14 26 0 -6
BITMAP
0000
0000
0000
0000
FCF0
FCF0
FCF0
FCF0
3CF0
3CF0
3CF0
3CF0
3FF0
3FF0
3CF0
3CF0
3CF0
3CF0
3CF0
3CF0
3CF0
3CF0
0000
0000
03C0
03C0
ENDCHAR
STARTCHAR uni1F9F
ENCODING 8095
SWIDTH 994 0
DWIDTH 14 0
BBX 14 26 0 -6
BITMAP
0000
0000
0000
0000
FCF0
FCF0
FCF0
FCF0
3CF0
3CF0
3CF0
3CF0
3FF0
3FF0
3CF0
3CF0
3CF0
3CF0
3CF0
3CF0
3CF0
3CF0
0000
0000
03C0
03C0
ENDCHAR
STARTCHAR uni1FA0
ENCODING 8096
SWIDTH 994 0
DWIDTH 14 0
BBX 14 26 0 -6
BITMAP
0000
0000
0FC0
0FC0
03C0
03C0
0F00
0F00
0000
0000
F0F0
F0F0
F0F0
F0F0
F0F0
F0F0
FFF0
FFF0
FFF0
FFF0
30C0
30C0
0000
0000
0F00
0F00
ENDCHAR
STARTCHAR uni1FA1
ENCODING 8097
SWIDTH 994 0
DWIDTH 14 0
BBX 14 26 0 -6
BITMAP
0000
0000
0FC0
0FC0
0F00
0F00
03C0
03C0
0000
0000
F0F0
F0F0
F0F0
F0F0
F0F0
F0F0
FFF0
FFF0
FFF0
FFF0
30C0
30C0
0000
0000
0F00
0F00
ENDCHAR
STARTCHAR uni1FA2
ENCODING 8098
SWIDTH 994 0
DWIDTH 14 0
BBX 14 26 0 -6
BITMAP
0000
0000
FFC0
FFC0
3CF0
3CF0
F000
F000
0000
0000
F0F0
F0F0
F0F0
F0F0
F0F0
F0F0
FFF0
FFF0
FFF0
FFF0
30C0
30C0
0000
0000
0F00
0F00
ENDCHAR
STARTCHAR uni1FA3
ENCODING 8099
SWIDTH 994 0
DWIDTH 14 0
BBX 14 26 0 -6
BITMAP
0000
0000
FFC0
FFC0
F0F0
F0F0
3C00
3C00
0000
0000
F0F0
F0F0
F0F0
F0F0
F0F0
F0F0
FFF0
FFF0
FFF0
FFF0
30C0
30C0
0000
0000
0F00
0F00
ENDCHAR
STARTCHAR uni1FA4
ENCODING 8100
SWIDTH 994 0
DWIDTH 14 0
BBX 14 26 0 -6
BITMAP
0000
0000
FCF0
FCF0
3FC0
3FC0
F000
F000
0000
0000
F0F0
F0F0
F0F0
F0F0
F0F0
F0F0
FFF0
FFF0
FFF0
FFF0
30C0
30C0
0000
0000
0F00
0F00
ENDCHAR
STARTCHAR uni1FA5
ENCODING 8101
SWIDTH 994 0
DWIDTH 14 0
BBX 14 26 0 -6
BITMAP
0000
0000
FCF0
FCF0
F3C0
F3C0
3C00
3C00
0000
0000
F0F0
F0F0
F0F0
F0F0
F0F0
F0F0
FFF0
FFF0
FFF0
FFF0
30C0
30C0
0000
0000
0F00
0F00
ENDCHAR
STARTCHAR uni1FA6
ENCODING 8102
SWIDTH 994 0
DWIDTH 14 0
BBX 14 26 0 -6
BITMAP
0000
0000
0FC0
0FC0
03C0
03C0
0F00
0F00
0000
0000
F0F0
F0F0
F0F0
F0F0
F0F0
F0F0
FFF0
FFF0
FFF0
FFF0
30C0
30C0
0000
0000
0F00
0F00
ENDCHAR
STARTCHAR uni1FA7
ENCODING 8103
SWIDTH 994 0
DWIDTH 14 0
BBX 14 26 0 -6
BITMAP
0000
0000
0FC0
0FC0
0F00
0F00
03C0
03C0
0000
0000
F0F0
F0F0
F0F0
F0F0
F0F0
F0F0
FFF0
FFF0
FFF0
FFF0
30C0
30C0
0000
0000
0F00
0F00
ENDCHAR
STARTCHAR uni1FA8
ENCODING 8104
SWIDTH 994 0
DWIDTH 14 0
BBX 14 26 0 -6
BITMAP
0000
0000
0000
0000
CFC0
CFC0
FCF0
FCF0
3CF0
3CF0
3CF0
3CF0
3CF0
3CF0
3CF0
3CF0
0CC0
0CC0
0CC0
0CC0
3CF0
3CF0
0000
0000
03C0
03C0
ENDCHAR
STARTCHAR uni1FA9
ENCODING 8105
SWIDTH 994 0
DWIDTH 14 0
BBX 14 26 0 -6
BITMAP
0000
0000
0000
0000
CFC0
CFC0
FCF0
FCF0
3CF0
3CF0
3CF0
3CF0
3CF0
3CF0
3CF0
3CF0
0CC0
0CC0
0CC0
0CC0
3CF0
3CF0
0000
0000
03C0
03C0
ENDCHAR
STARTCHAR uni1FAA
ENCODING 8106
SWIDTH 994 0
DWIDTH 14 0
BBX 14 26 0 -6
BITMAP
0000
0000
0000
0000
CFC0
CFC0
FCF0
FCF0
3CF0
3CF0
3CF0
3CF0
3CF0
3CF0
3CF0
3CF0
0CC0
0CC0
0CC0
0CC0
3CF0
3CF0
0000
0000
03C0
03C0
ENDCHAR
STARTCHAR uni1FAB
ENCODING 8107
SWIDTH 994 0
DWIDTH 14 0
BBX 14 26 0 -6
BITMAP
0000
0000
0000
0000
CFC0
CFC0
FCF0
FCF0
3CF0
3CF0
3CF0
3CF0
3CF0
3CF0
3CF0
3CF0
0CC0
0CC0
0CC0
0CC0
3CF0
3CF0
0000
0000
03C0
03C0
ENDCHAR
STARTCHAR uni1FAC
ENCODING 8108
SWIDTH 994 0
DWIDTH 14 0
BBX 14 26 0 -6
BITMAP
0000
0000
0000
0000
CFC0
CFC0
FCF0
FCF0
3CF0
3CF0
3CF0
3CF0
3CF0
3CF0
3CF0
3CF0
0CC0
0CC0
0CC0
0CC0
3CF0
3CF0
0000
0000
03C0
03C0
ENDCHAR
STARTCHAR uni1FAD
ENCODING 8109
SWIDTH 994 0
DWIDTH 14 0
BBX 14 26 0 -6
BITMAP
0000
0000
0000
0000
CFC0
CFC0
FCF0
FCF0
3CF0
3CF0
3CF0
3CF0
3CF0
3CF0
3CF0
3CF0
0CC0
0CC0
0CC0
0CC0
3CF0
3CF0
0000
0000
03C0
03C0
ENDCHAR
ENDFONT
